SplineFontDB: 3.2
FontName: NotoSerif-CondensedBold
FullName: Noto Serif Condensed Bold
FamilyName: Noto Serif Condensed
Weight: Bold
Copyright: Copyright 2015 Google Inc. All Rights Reserved.
Version: 2.002; ttfautohint (v1.8.2)
ItalicAngle: 0
UnderlinePosition: -125
UnderlineWidth: 50
Ascent: 800
Descent: 200
InvalidEm: 0
sfntRevision: 0x00020083
LayerCount: 2
Layer: 0 1 "+BBcEMAQ0BD0EOAQ5 +BD8EOwQwBD0A" 1
Layer: 1 1 "+BB8ENQRABDUENAQ9BDgEOQAA +BD8EOwQwBD0A" 0
XUID: [1021 42 1189819461 9187184]
StyleMap: 0x0020
FSType: 0
OS2Version: 4
OS2_WeightWidthSlopeOnly: 1
OS2_UseTypoMetrics: 0
CreationTime: 1561037343
ModificationTime: 1584532160
PfmFamily: 17
TTFWeight: 700
TTFWidth: 3
LineGap: 0
VLineGap: 0
Panose: 2 2 8 6 6 5 5 2 2 4
OS2TypoAscent: 1069
OS2TypoAOffset: 0
OS2TypoDescent: -293
OS2TypoDOffset: 0
OS2TypoLinegap: 0
OS2WinAscent: 1069
OS2WinAOffset: 0
OS2WinDescent: 293
OS2WinDOffset: 0
HheadAscent: 1069
HheadAOffset: 0
HheadDescent: -293
HheadDOffset: 0
OS2SubXSize: 650
OS2SubYSize: 600
OS2SubXOff: 0
OS2SubYOff: 75
OS2SupXSize: 650
OS2SupYSize: 600
OS2SupXOff: 0
OS2SupYOff: 350
OS2StrikeYSize: 50
OS2StrikeYPos: 322
OS2CapHeight: 714
OS2XHeight: 536
OS2Vendor: 'GOOG'
OS2CodePages: 0000019f.00000000
OS2UnicodeRanges: e00002ff.4000201f.08000029.00100000
Lookup: 1 0 0 "'aalt' Access All Alternates lookup 0" { "'aalt' Access All Alternates lookup 0 subtable"  } ['aalt' ('DFLT' <'dflt' > 'cyrl' <'MKD ' 'SRB ' 'dflt' > 'grek' <'dflt' > 'latn' <'APPH' 'CAT ' 'IPPH' 'MAH ' 'MOL ' 'NAV ' 'ROM ' 'dflt' > ) ]
Lookup: 3 0 0 "'aalt' Access All Alternates lookup 1" { "'aalt' Access All Alternates lookup 1 subtable"  } ['aalt' ('DFLT' <'dflt' > 'cyrl' <'MKD ' 'SRB ' 'dflt' > 'grek' <'dflt' > 'latn' <'APPH' 'CAT ' 'IPPH' 'MAH ' 'MOL ' 'NAV ' 'ROM ' 'dflt' > ) ]

StartChar: .notdef
Encoding: 65536 -1 0
Width: 583
Flags: W
LayerCount: 2
Fore
SplineSet
85 0 m 1,0,-1
 85 714 l 1,1,-1
 496 714 l 1,2,-1
 496 0 l 1,3,-1
 85 0 l 1,0,-1
136 51 m 1,4,-1
 445 51 l 1,5,-1
 445 663 l 1,6,-1
 136 663 l 1,7,-1
 136 51 l 1,4,-1
EndSplineSet
EndChar

StartChar: exclam
Encoding: 33 33 4
Width: 336
Flags: W
LayerCount: 2
Fore
SplineSet
138 222 m 1,0,-1
 90 714 l 1,1,-1
 246 714 l 1,2,-1
 198 222 l 1,3,-1
 138 222 l 1,0,-1
169 -7 m 0,4,5
 139 -7 139 -7 118 9 c 128,-1,6
 97 25 97 25 97 68 c 0,7,8
 97 110 97 110 118 126.5 c 128,-1,9
 139 143 139 143 169 143 c 0,10,11
 198 143 198 143 219 126.5 c 128,-1,12
 240 110 240 110 240 68 c 0,13,14
 240 25 240 25 219 9 c 128,-1,15
 198 -7 198 -7 169 -7 c 0,4,5
EndSplineSet
Substitution2: "'smcp' Lowercase to Small Capitals lookup 38 subtable" exclam.sc
Substitution2: "'c2sc' Capitals to Small Capitals lookup 37 subtable" exclam.sc
Substitution2: "'aalt' Access All Alternates lookup 0 subtable" exclam.sc
EndChar

StartChar: quotedbl
Encoding: 34 34 5
Width: 449
Flags: W
LayerCount: 2
Fore
SplineSet
292 448 m 1,0,-1
 251 714 l 1,1,-1
 390 714 l 1,2,-1
 350 448 l 1,3,-1
 292 448 l 1,0,-1
99 448 m 1,4,-1
 59 714 l 1,5,-1
 198 714 l 1,6,-1
 158 448 l 1,7,-1
 99 448 l 1,4,-1
EndSplineSet
EndChar

StartChar: numbersign
Encoding: 35 35 6
Width: 487
Flags: W
LayerCount: 2
Fore
SplineSet
61 0 m 1,0,-1
 99 201 l 1,1,-1
 16 201 l 1,2,-1
 16 268 l 1,3,-1
 112 268 l 1,4,-1
 147 451 l 1,5,-1
 48 451 l 1,6,-1
 48 519 l 1,7,-1
 160 519 l 1,8,-1
 195 714 l 1,9,-1
 265 714 l 1,10,-1
 229 519 l 1,11,-1
 319 519 l 1,12,-1
 356 714 l 1,13,-1
 425 714 l 1,14,-1
 388 519 l 1,15,-1
 471 519 l 1,16,-1
 471 451 l 1,17,-1
 376 451 l 1,18,-1
 341 268 l 1,19,-1
 439 268 l 1,20,-1
 439 201 l 1,21,-1
 328 201 l 1,22,-1
 290 0 l 1,23,-1
 221 0 l 1,24,-1
 258 201 l 1,25,-1
 169 201 l 1,26,-1
 130 0 l 1,27,-1
 61 0 l 1,0,-1
181 268 m 1,28,-1
 272 268 l 1,29,-1
 307 451 l 1,30,-1
 217 451 l 1,31,-1
 181 268 l 1,28,-1
EndSplineSet
EndChar

StartChar: dollar
Encoding: 36 36 7
Width: 487
Flags: W
LayerCount: 2
Fore
SplineSet
224 -79 m 1,0,-1
 224 41 l 1,1,2
 157 44 157 44 117 65.5 c 128,-1,3
 77 87 77 87 60 118 c 128,-1,4
 43 149 43 149 43 182 c 0,5,6
 43 221 43 221 68.5 239.5 c 128,-1,7
 94 258 94 258 126 258 c 1,8,9
 127 186 127 186 150.5 144.5 c 128,-1,10
 174 103 174 103 224 93 c 1,11,-1
 224 318 l 1,12,13
 160 347 160 347 125 376 c 128,-1,14
 90 405 90 405 75.5 438.5 c 128,-1,15
 61 472 61 472 61 515 c 0,16,17
 61 586 61 586 107 630 c 128,-1,18
 153 674 153 674 224 683 c 1,19,-1
 224 760 l 1,20,-1
 272 760 l 1,21,-1
 272 684 l 1,22,23
 347 682 347 682 384 652.5 c 128,-1,24
 421 623 421 623 421 584 c 0,25,26
 421 554 421 554 399.5 533.5 c 128,-1,27
 378 513 378 513 329 513 c 1,28,29
 329 554 329 554 315 589 c 128,-1,30
 301 624 301 624 272 633 c 1,31,-1
 272 425 l 1,32,33
 316 402 316 402 355.5 377 c 128,-1,34
 395 352 395 352 420 317 c 128,-1,35
 445 282 445 282 445 228 c 0,36,37
 445 153 445 153 398.5 103.5 c 128,-1,38
 352 54 352 54 272 43 c 1,39,-1
 272 -79 l 1,40,-1
 224 -79 l 1,0,-1
224 451 m 1,41,-1
 224 635 l 1,42,43
 198 630 198 630 180.5 608 c 128,-1,44
 163 586 163 586 163 552 c 0,45,46
 163 519 163 519 176.5 495.5 c 128,-1,47
 190 472 190 472 224 451 c 1,41,-1
272 95 m 1,48,49
 305 103 305 103 322.5 128.5 c 128,-1,50
 340 154 340 154 340 189 c 0,51,52
 340 223 340 223 324 248.5 c 128,-1,53
 308 274 308 274 272 296 c 1,54,-1
 272 95 l 1,48,49
EndSplineSet
EndChar

StartChar: percent
Encoding: 37 37 8
Width: 789
Flags: W
LayerCount: 2
Fore
SplineSet
187 280 m 0,0,1
 103 280 103 280 65.5 341.5 c 128,-1,2
 28 403 28 403 28 503 c 0,3,4
 28 604 28 604 65.5 664 c 128,-1,5
 103 724 103 724 187 724 c 0,6,7
 267 724 267 724 306 664 c 128,-1,8
 345 604 345 604 345 503 c 0,9,10
 345 403 345 403 305.5 341.5 c 128,-1,11
 266 280 266 280 187 280 c 0,0,1
210 0 m 1,12,-1
 509 714 l 1,13,-1
 577 714 l 1,14,-1
 278 0 l 1,15,-1
 210 0 l 1,12,-1
187 327 m 0,16,17
 221 327 221 327 233.5 373 c 128,-1,18
 246 419 246 419 246 503 c 0,19,20
 246 586 246 586 233.5 631.5 c 128,-1,21
 221 677 221 677 187 677 c 0,22,23
 154 677 154 677 140.5 631.5 c 128,-1,24
 127 586 127 586 127 503 c 0,25,26
 127 419 127 419 140.5 373 c 128,-1,27
 154 327 154 327 187 327 c 0,16,17
602 -10 m 0,28,29
 519 -10 519 -10 482 51.5 c 128,-1,30
 445 113 445 113 445 213 c 0,31,32
 445 314 445 314 482 374 c 128,-1,33
 519 434 519 434 603 434 c 0,34,35
 683 434 683 434 722 374 c 128,-1,36
 761 314 761 314 761 213 c 0,37,38
 761 113 761 113 722 51.5 c 128,-1,39
 683 -10 683 -10 602 -10 c 0,28,29
602 37 m 0,40,41
 636 37 636 37 649 83 c 128,-1,42
 662 129 662 129 662 213 c 0,43,44
 662 296 662 296 649 341.5 c 128,-1,45
 636 387 636 387 603 387 c 256,46,47
 570 387 570 387 556.5 341.5 c 128,-1,48
 543 296 543 296 543 213 c 0,49,50
 543 129 543 129 556.5 83 c 128,-1,51
 570 37 570 37 602 37 c 0,40,41
EndSplineSet
EndChar

StartChar: ampersand
Encoding: 38 38 9
Width: 702
Flags: W
LayerCount: 2
Fore
SplineSet
260 -10 m 0,0,1
 155 -10 155 -10 97 45.5 c 128,-1,2
 39 101 39 101 39 200 c 0,3,4
 39 258 39 258 60.5 296 c 128,-1,5
 82 334 82 334 117 358 c 128,-1,6
 152 382 152 382 192 400 c 1,7,8
 157 445 157 445 141.5 483 c 128,-1,9
 126 521 126 521 126 570 c 0,10,11
 126 640 126 640 169.5 682 c 128,-1,12
 213 724 213 724 301 724 c 0,13,14
 359 724 359 724 396 704 c 128,-1,15
 433 684 433 684 450.5 651.5 c 128,-1,16
 468 619 468 619 468 582 c 0,17,18
 468 521 468 521 436 480 c 128,-1,19
 404 439 404 439 338 405 c 1,20,-1
 465 241 l 1,21,22
 471 273 471 273 474 311 c 128,-1,23
 477 349 477 349 477 382 c 2,24,-1
 477 425 l 1,25,-1
 666 425 l 1,26,-1
 666 374 l 1,27,-1
 651 374 l 2,28,29
 632 374 632 374 613.5 371 c 128,-1,30
 595 368 595 368 581.5 354.5 c 128,-1,31
 568 341 568 341 561 311 c 0,32,33
 554 280 554 280 544.5 247 c 128,-1,34
 535 214 535 214 522 181 c 1,35,-1
 610 78 l 2,36,37
 624 61 624 61 642 55.5 c 128,-1,38
 660 50 660 50 682 50 c 2,39,-1
 690 50 l 1,40,-1
 690 0 l 1,41,-1
 514 0 l 1,42,-1
 452 79 l 1,43,44
 422 42 422 42 374 16 c 128,-1,45
 326 -10 326 -10 260 -10 c 0,0,1
301 447 m 1,46,47
 337 472 337 472 352.5 503 c 128,-1,48
 368 534 368 534 368 581 c 0,49,50
 368 619 368 619 353 643.5 c 128,-1,51
 338 668 338 668 306 668 c 0,52,53
 275 668 275 668 259.5 644 c 128,-1,54
 244 620 244 620 244 580 c 0,55,56
 244 545 244 545 258.5 514.5 c 128,-1,57
 273 484 273 484 301 447 c 1,46,47
288 56 m 0,58,59
 330 56 330 56 361.5 75.5 c 128,-1,60
 393 95 393 95 413 125 c 1,61,-1
 229 355 l 1,62,63
 198 330 198 330 185 292 c 128,-1,64
 172 254 172 254 172 201 c 0,65,66
 172 133 172 133 203.5 94.5 c 128,-1,67
 235 56 235 56 288 56 c 0,58,59
EndSplineSet
Substitution2: "'smcp' Lowercase to Small Capitals lookup 38 subtable" ampersand.sc
Substitution2: "'c2sc' Capitals to Small Capitals lookup 37 subtable" ampersand.sc
Substitution2: "'aalt' Access All Alternates lookup 0 subtable" ampersand.sc
EndChar

StartChar: quotesingle
Encoding: 39 39 10
Width: 257
Flags: W
LayerCount: 2
Fore
SplineSet
99 448 m 1,0,-1
 59 714 l 1,1,-1
 198 714 l 1,2,-1
 158 448 l 1,3,-1
 99 448 l 1,0,-1
EndSplineSet
EndChar

StartChar: parenleft
Encoding: 40 40 11
Width: 352
Flags: W
LayerCount: 2
Fore
SplineSet
325 -136 m 1,0,1
 177 -72 177 -72 113 39.5 c 128,-1,2
 49 151 49 151 49 317 c 256,3,4
 49 483 49 483 113 594.5 c 128,-1,5
 177 706 177 706 325 769 c 1,6,-1
 325 710 l 1,7,8
 271 669 271 669 242.5 607.5 c 128,-1,9
 214 546 214 546 204 471.5 c 128,-1,10
 194 397 194 397 194 317 c 0,11,12
 194 238 194 238 204 163 c 128,-1,13
 214 88 214 88 242.5 26.5 c 128,-1,14
 271 -35 271 -35 325 -76 c 1,15,-1
 325 -136 l 1,0,1
EndSplineSet
Substitution2: "'smcp' Lowercase to Small Capitals lookup 38 subtable" parenleft.sc
Substitution2: "'c2sc' Capitals to Small Capitals lookup 37 subtable" parenleft.sc
Substitution2: "'sups' Superscript lookup 22 subtable" uni207D
Substitution2: "'subs' Subscript lookup 21 subtable" uni208D
AlternateSubs2: "'aalt' Access All Alternates lookup 1 subtable" uni208D uni207D parenleft.sc
EndChar

StartChar: parenright
Encoding: 41 41 12
Width: 352
Flags: W
LayerCount: 2
Fore
SplineSet
27 -136 m 1,0,-1
 27 -76 l 1,1,2
 81 -35 81 -35 109 26.5 c 128,-1,3
 137 88 137 88 147.5 163 c 128,-1,4
 158 238 158 238 158 317 c 0,5,6
 158 397 158 397 147.5 471.5 c 128,-1,7
 137 546 137 546 109 607.5 c 128,-1,8
 81 669 81 669 27 710 c 1,9,-1
 27 769 l 1,10,11
 175 706 175 706 238.5 594.5 c 128,-1,12
 302 483 302 483 302 317 c 256,13,14
 302 151 302 151 238.5 39.5 c 128,-1,15
 175 -72 175 -72 27 -136 c 1,0,-1
EndSplineSet
Substitution2: "'smcp' Lowercase to Small Capitals lookup 38 subtable" parenright.sc
Substitution2: "'c2sc' Capitals to Small Capitals lookup 37 subtable" parenright.sc
Substitution2: "'sups' Superscript lookup 22 subtable" uni207E
Substitution2: "'subs' Subscript lookup 21 subtable" uni208E
AlternateSubs2: "'aalt' Access All Alternates lookup 1 subtable" uni208E uni207E parenright.sc
EndChar

StartChar: asterisk
Encoding: 42 42 13
Width: 431
Flags: W
LayerCount: 2
Fore
SplineSet
168 368 m 1,0,-1
 197 533 l 1,1,-1
 70 428 l 1,2,-1
 30 521 l 1,3,-1
 163 564 l 1,4,-1
 30 607 l 1,5,-1
 70 700 l 1,6,-1
 197 595 l 1,7,-1
 168 760 l 1,8,-1
 266 760 l 1,9,-1
 235 596 l 1,10,-1
 363 699 l 1,11,-1
 403 606 l 1,12,-1
 270 564 l 1,13,-1
 403 522 l 1,14,-1
 363 429 l 1,15,-1
 235 532 l 1,16,-1
 266 368 l 1,17,-1
 168 368 l 1,0,-1
EndSplineSet
EndChar

StartChar: plus
Encoding: 43 43 14
Width: 465
Flags: W
LayerCount: 2
Fore
SplineSet
197 143 m 1,0,-1
 197 323 l 1,1,-1
 46 323 l 1,2,-1
 46 392 l 1,3,-1
 197 392 l 1,4,-1
 197 572 l 1,5,-1
 267 572 l 1,6,-1
 267 392 l 1,7,-1
 419 392 l 1,8,-1
 419 323 l 1,9,-1
 267 323 l 1,10,-1
 267 143 l 1,11,-1
 197 143 l 1,0,-1
EndSplineSet
Substitution2: "'sups' Superscript lookup 22 subtable" uni207A
Substitution2: "'subs' Subscript lookup 21 subtable" uni208A
AlternateSubs2: "'aalt' Access All Alternates lookup 1 subtable" uni208A uni207A
EndChar

StartChar: comma
Encoding: 44 44 15
Width: 259
Flags: W
LayerCount: 2
Fore
SplineSet
42 -154 m 1,0,-1
 42 -105 l 1,1,2
 78 -90 78 -90 97 -71 c 128,-1,3
 116 -52 116 -52 116 -25 c 0,4,5
 116 -11 116 -11 107 -3 c 128,-1,6
 98 5 98 5 85.5 13 c 128,-1,7
 73 21 73 21 63.5 35.5 c 128,-1,8
 54 50 54 50 54 78 c 0,9,10
 54 109 54 109 72.5 126 c 128,-1,11
 91 143 91 143 118 143 c 0,12,13
 155 143 155 143 175.5 114.5 c 128,-1,14
 196 86 196 86 196 36 c 0,15,16
 196 -26 196 -26 161 -77.5 c 128,-1,17
 126 -129 126 -129 42 -154 c 1,0,-1
EndSplineSet
EndChar

StartChar: hyphen
Encoding: 45 45 16
Width: 270
Flags: W
LayerCount: 2
Fore
SplineSet
22 224 m 1,0,-1
 22 322 l 1,1,-1
 249 322 l 1,2,-1
 249 224 l 1,3,-1
 22 224 l 1,0,-1
EndSplineSet
EndChar

StartChar: period
Encoding: 46 46 17
Width: 259
Flags: W
LayerCount: 2
Fore
SplineSet
130 -7 m 0,0,1
 99 -7 99 -7 78 9 c 128,-1,2
 57 25 57 25 57 68 c 0,3,4
 57 110 57 110 78 126.5 c 128,-1,5
 99 143 99 143 130 143 c 0,6,7
 158 143 158 143 180 126.5 c 128,-1,8
 202 110 202 110 202 68 c 0,9,10
 202 25 202 25 180 9 c 128,-1,11
 158 -7 158 -7 130 -7 c 0,0,1
EndSplineSet
EndChar

StartChar: slash
Encoding: 47 47 18
Width: 251
Flags: W
LayerCount: 2
Fore
SplineSet
0 -121 m 1,0,-1
 189 760 l 1,1,-1
 251 760 l 1,2,-1
 64 -121 l 1,3,-1
 0 -121 l 1,0,-1
EndSplineSet
Substitution2: "'frac' Diagonal Fractions lookup 26 subtable" fraction
Substitution2: "'aalt' Access All Alternates lookup 0 subtable" fraction
EndChar

StartChar: zero
Encoding: 48 48 19
Width: 487
Flags: W
LayerCount: 2
Fore
SplineSet
244 -10 m 0,0,1
 163 -10 163 -10 116 34.5 c 128,-1,2
 69 79 69 79 48.5 162 c 128,-1,3
 28 245 28 245 28 359 c 0,4,5
 28 471 28 471 48.5 553 c 128,-1,6
 69 635 69 635 116 679.5 c 128,-1,7
 163 724 163 724 245 724 c 0,8,9
 321 724 321 724 368 680 c 128,-1,10
 415 636 415 636 436 554 c 128,-1,11
 457 472 457 472 457 358 c 0,12,13
 457 245 457 245 435.5 162.5 c 128,-1,14
 414 80 414 80 367 35 c 128,-1,15
 320 -10 320 -10 244 -10 c 0,0,1
244 52 m 0,16,17
 291 52 291 52 305.5 132.5 c 128,-1,18
 320 213 320 213 320 358 c 256,19,20
 320 503 320 503 305.5 583 c 128,-1,21
 291 663 291 663 245 663 c 0,22,23
 196 663 196 663 181.5 583 c 128,-1,24
 167 503 167 503 167 358 c 256,25,26
 167 213 167 213 181 132.5 c 128,-1,27
 195 52 195 52 244 52 c 0,16,17
EndSplineSet
Substitution2: "'zero' Slashed Zero lookup 42 subtable" zero.slash
Substitution2: "'case' Case-Sensitive Forms lookup 39 subtable" zero.lf
Substitution2: "'onum' Oldstyle Figures lookup 36 subtable" zero.tosf
Substitution2: "'pnum' Proportional Numbers lookup 34 subtable" zero.lf
Substitution2: "'frac' Diagonal Fractions lookup 27 subtable" zero.numr
Substitution2: "'dnom' Denominators lookup 25 subtable" zero.dnom
Substitution2: "'numr' Numerators lookup 24 subtable" zero.numr
Substitution2: "'sups' Superscript lookup 22 subtable" uni2070
Substitution2: "'subs' Subscript lookup 21 subtable" uni2080
AlternateSubs2: "'aalt' Access All Alternates lookup 1 subtable" uni2070 zero.lf zero.tosf zero.dnom zero.numr uni2080
EndChar

StartChar: one
Encoding: 49 49 20
Width: 487
Flags: W
LayerCount: 2
Fore
SplineSet
79 0 m 1,0,-1
 79 50 l 1,1,-1
 143 50 l 2,2,3
 168 50 168 50 183 63 c 128,-1,4
 198 76 198 76 198 117 c 2,5,-1
 198 620 l 1,6,7
 166 576 166 576 139 549.5 c 128,-1,8
 112 523 112 523 85 523 c 0,9,10
 64 523 64 523 49.5 542 c 128,-1,11
 35 561 35 561 35 593 c 1,12,13
 61 600 61 600 93.5 616 c 128,-1,14
 126 632 126 632 169 668 c 2,15,-1
 230 718 l 1,16,-1
 330 718 l 1,17,-1
 330 117 l 2,18,19
 330 81 330 81 343.5 65.5 c 128,-1,20
 357 50 357 50 385 50 c 2,21,-1
 440 50 l 1,22,-1
 440 0 l 1,23,-1
 79 0 l 1,0,-1
EndSplineSet
Substitution2: "'case' Case-Sensitive Forms lookup 39 subtable" one.lf
Substitution2: "'onum' Oldstyle Figures lookup 36 subtable" one.tosf
Substitution2: "'pnum' Proportional Numbers lookup 34 subtable" one.lf
Substitution2: "'frac' Diagonal Fractions lookup 27 subtable" one.numr
Substitution2: "'dnom' Denominators lookup 25 subtable" one.dnom
Substitution2: "'numr' Numerators lookup 24 subtable" one.numr
Substitution2: "'sups' Superscript lookup 22 subtable" uni00B9
Substitution2: "'subs' Subscript lookup 21 subtable" uni2081
AlternateSubs2: "'aalt' Access All Alternates lookup 1 subtable" uni00B9 one.lf one.tosf one.dnom one.numr uni2081
EndChar

StartChar: two
Encoding: 50 50 21
Width: 487
Flags: W
LayerCount: 2
Fore
SplineSet
31 0 m 1,0,-1
 31 92 l 1,1,-1
 159 249 l 2,2,3
 212 312 212 312 241.5 361.5 c 128,-1,4
 271 411 271 411 283 455.5 c 128,-1,5
 295 500 295 500 295 549 c 0,6,7
 295 608 295 608 276.5 637 c 128,-1,8
 258 666 258 666 227 666 c 0,9,10
 183 666 183 666 164 623.5 c 128,-1,11
 145 581 145 581 145 501 c 1,12,13
 100 501 100 501 67 520 c 128,-1,14
 34 539 34 539 34 588 c 0,15,16
 34 623 34 623 55.5 654 c 128,-1,17
 77 685 77 685 119.5 704.5 c 128,-1,18
 162 724 162 724 227 724 c 0,19,20
 326 724 326 724 378 677.5 c 128,-1,21
 430 631 430 631 430 554 c 0,22,23
 430 500 430 500 408.5 451.5 c 128,-1,24
 387 403 387 403 344.5 350 c 128,-1,25
 302 297 302 297 238 231 c 2,26,-1
 122 103 l 1,27,-1
 318 103 l 2,28,29
 344 103 344 103 363 120.5 c 128,-1,30
 382 138 382 138 390 173 c 2,31,-1
 397 202 l 1,32,-1
 451 202 l 1,33,-1
 446 0 l 1,34,-1
 31 0 l 1,0,-1
EndSplineSet
Substitution2: "'case' Case-Sensitive Forms lookup 39 subtable" two.lf
Substitution2: "'onum' Oldstyle Figures lookup 36 subtable" two.tosf
Substitution2: "'pnum' Proportional Numbers lookup 34 subtable" two.lf
Substitution2: "'frac' Diagonal Fractions lookup 27 subtable" two.numr
Substitution2: "'dnom' Denominators lookup 25 subtable" two.dnom
Substitution2: "'numr' Numerators lookup 24 subtable" two.numr
Substitution2: "'sups' Superscript lookup 22 subtable" uni00B2
Substitution2: "'subs' Subscript lookup 21 subtable" uni2082
AlternateSubs2: "'aalt' Access All Alternates lookup 1 subtable" uni00B2 two.lf two.tosf two.dnom two.numr uni2082
EndChar

StartChar: three
Encoding: 51 51 22
Width: 487
Flags: W
LayerCount: 2
Fore
SplineSet
219 -10 m 0,0,1
 128 -10 128 -10 77.5 22.5 c 128,-1,2
 27 55 27 55 27 112 c 0,3,4
 27 148 27 148 49.5 167.5 c 128,-1,5
 72 187 72 187 103 187 c 1,6,7
 103 128 103 128 130 92 c 128,-1,8
 157 56 157 56 209 56 c 0,9,10
 237 56 237 56 261 69.5 c 128,-1,11
 285 83 285 83 300 115 c 128,-1,12
 315 147 315 147 315 204 c 0,13,14
 315 265 315 265 282 303 c 128,-1,15
 249 341 249 341 184 341 c 2,16,-1
 129 341 l 1,17,-1
 129 399 l 1,18,-1
 185 399 l 2,19,20
 243 399 243 399 268.5 439.5 c 128,-1,21
 294 480 294 480 294 548 c 0,22,23
 294 603 294 603 275 634.5 c 128,-1,24
 256 666 256 666 222 666 c 0,25,26
 192 666 192 666 175 644 c 128,-1,27
 158 622 158 622 151 587.5 c 128,-1,28
 144 553 144 553 144 514 c 1,29,30
 95 514 95 514 65.5 532 c 128,-1,31
 36 550 36 550 36 592 c 0,32,33
 36 645 36 645 84 684.5 c 128,-1,34
 132 724 132 724 229 724 c 0,35,36
 321 724 321 724 375 681.5 c 128,-1,37
 429 639 429 639 429 560 c 0,38,39
 429 492 429 492 391.5 446 c 128,-1,40
 354 400 354 400 299 380 c 1,41,42
 335 372 335 372 370 352.5 c 128,-1,43
 405 333 405 333 428 296.5 c 128,-1,44
 451 260 451 260 451 203 c 0,45,46
 451 123 451 123 418 76.5 c 128,-1,47
 385 30 385 30 332 10 c 128,-1,48
 279 -10 279 -10 219 -10 c 0,0,1
EndSplineSet
Substitution2: "'case' Case-Sensitive Forms lookup 39 subtable" three.lf
Substitution2: "'onum' Oldstyle Figures lookup 36 subtable" three.tosf
Substitution2: "'pnum' Proportional Numbers lookup 34 subtable" three.lf
Substitution2: "'frac' Diagonal Fractions lookup 27 subtable" three.numr
Substitution2: "'dnom' Denominators lookup 25 subtable" three.dnom
Substitution2: "'numr' Numerators lookup 24 subtable" three.numr
Substitution2: "'sups' Superscript lookup 22 subtable" uni00B3
Substitution2: "'subs' Subscript lookup 21 subtable" uni2083
AlternateSubs2: "'aalt' Access All Alternates lookup 1 subtable" uni00B3 three.lf three.tosf three.dnom three.numr uni2083
EndChar

StartChar: four
Encoding: 52 52 23
Width: 487
Flags: W
LayerCount: 2
Fore
SplineSet
155 0 m 1,0,-1
 155 50 l 1,1,-1
 179 50 l 2,2,3
 209 50 209 50 230 62.5 c 128,-1,4
 251 75 251 75 251 122 c 2,5,-1
 251 189 l 1,6,-1
 12 189 l 1,7,-1
 12 244 l 1,8,-1
 254 714 l 1,9,-1
 381 714 l 1,10,-1
 381 252 l 1,11,-1
 469 252 l 1,12,-1
 469 189 l 1,13,-1
 381 189 l 1,14,-1
 381 122 l 2,15,16
 381 75 381 75 402 62.5 c 128,-1,17
 423 50 423 50 452 50 c 2,18,-1
 464 50 l 1,19,-1
 464 0 l 1,20,-1
 155 0 l 1,0,-1
77 252 m 1,21,-1
 251 252 l 1,22,-1
 251 435 l 2,23,24
 251 478 251 478 252 526.5 c 128,-1,25
 253 575 253 575 256 621 c 1,26,27
 250 601 250 601 237 573 c 128,-1,28
 224 545 224 545 210.5 517 c 128,-1,29
 197 489 197 489 188 469 c 2,30,-1
 77 252 l 1,21,-1
EndSplineSet
Substitution2: "'case' Case-Sensitive Forms lookup 39 subtable" four.lf
Substitution2: "'onum' Oldstyle Figures lookup 36 subtable" four.tosf
Substitution2: "'pnum' Proportional Numbers lookup 34 subtable" four.lf
Substitution2: "'frac' Diagonal Fractions lookup 27 subtable" four.numr
Substitution2: "'dnom' Denominators lookup 25 subtable" four.dnom
Substitution2: "'numr' Numerators lookup 24 subtable" four.numr
Substitution2: "'sups' Superscript lookup 22 subtable" uni2074
Substitution2: "'subs' Subscript lookup 21 subtable" uni2084
AlternateSubs2: "'aalt' Access All Alternates lookup 1 subtable" uni2074 four.lf four.tosf four.dnom four.numr uni2084
EndChar

StartChar: five
Encoding: 53 53 24
Width: 487
Flags: W
LayerCount: 2
Fore
SplineSet
214 -10 m 0,0,1
 148 -10 148 -10 108.5 7.5 c 128,-1,2
 69 25 69 25 51.5 52.5 c 128,-1,3
 34 80 34 80 34 109 c 0,4,5
 34 141 34 141 53.5 159 c 128,-1,6
 73 177 73 177 105 177 c 1,7,8
 105 147 105 147 113.5 119 c 128,-1,9
 122 91 122 91 143 72.5 c 128,-1,10
 164 54 164 54 199 54 c 0,11,12
 228 54 228 54 252 69 c 128,-1,13
 276 84 276 84 290.5 120 c 128,-1,14
 305 156 305 156 305 219 c 0,15,16
 305 295 305 295 274.5 333 c 128,-1,17
 244 371 244 371 189 371 c 0,18,19
 158 371 158 371 135 364 c 128,-1,20
 112 357 112 357 91 351 c 1,21,-1
 57 367 l 1,22,-1
 86 714 l 1,23,-1
 412 714 l 1,24,-1
 416 540 l 1,25,-1
 364 540 l 1,26,-1
 356 570 l 2,27,28
 350 591 350 591 344 601.5 c 128,-1,29
 338 612 338 612 317 612 c 2,30,-1
 137 612 l 1,31,-1
 121 417 l 1,32,33
 136 423 136 423 164 428 c 128,-1,34
 192 433 192 433 216 433 c 0,35,36
 319 433 319 433 380.5 379.5 c 128,-1,37
 442 326 442 326 442 219 c 0,38,39
 442 158 442 158 421 114 c 128,-1,40
 400 70 400 70 366 43 c 128,-1,41
 332 16 332 16 292 3 c 128,-1,42
 252 -10 252 -10 214 -10 c 0,0,1
EndSplineSet
Substitution2: "'case' Case-Sensitive Forms lookup 39 subtable" five.lf
Substitution2: "'onum' Oldstyle Figures lookup 36 subtable" five.tosf
Substitution2: "'pnum' Proportional Numbers lookup 34 subtable" five.lf
Substitution2: "'frac' Diagonal Fractions lookup 27 subtable" five.numr
Substitution2: "'dnom' Denominators lookup 25 subtable" five.dnom
Substitution2: "'numr' Numerators lookup 24 subtable" five.numr
Substitution2: "'sups' Superscript lookup 22 subtable" uni2075
Substitution2: "'subs' Subscript lookup 21 subtable" uni2085
AlternateSubs2: "'aalt' Access All Alternates lookup 1 subtable" uni2075 five.lf five.tosf five.dnom five.numr uni2085
EndChar

StartChar: six
Encoding: 54 54 25
Width: 487
Flags: W
LayerCount: 2
Fore
SplineSet
255 -10 m 0,0,1
 158 -10 158 -10 98 73 c 128,-1,2
 38 156 38 156 38 334 c 0,3,4
 38 453 38 453 64.5 541 c 128,-1,5
 91 629 91 629 145 676.5 c 128,-1,6
 199 724 199 724 280 724 c 0,7,8
 366 724 366 724 403.5 690.5 c 128,-1,9
 441 657 441 657 441 615 c 0,10,11
 441 583 441 583 417.5 562.5 c 128,-1,12
 394 542 394 542 339 542 c 1,13,14
 339 592 339 592 324 630 c 128,-1,15
 309 668 309 668 275 668 c 0,16,17
 225 668 225 668 197.5 597 c 128,-1,18
 170 526 170 526 166 395 c 1,19,20
 183 410 183 410 211 423.5 c 128,-1,21
 239 437 239 437 284 437 c 0,22,23
 362 437 362 437 410 382 c 128,-1,24
 458 327 458 327 458 230 c 0,25,26
 458 124 458 124 406.5 57 c 128,-1,27
 355 -10 355 -10 255 -10 c 0,0,1
258 52 m 0,28,29
 291 52 291 52 310 92 c 128,-1,30
 329 132 329 132 329 220 c 0,31,32
 329 303 329 303 308 340.5 c 128,-1,33
 287 378 287 378 251 378 c 0,34,35
 223 378 223 378 200.5 362.5 c 128,-1,36
 178 347 178 347 166 333 c 1,37,38
 166 190 166 190 192.5 121 c 128,-1,39
 219 52 219 52 258 52 c 0,28,29
EndSplineSet
Substitution2: "'case' Case-Sensitive Forms lookup 39 subtable" six.lf
Substitution2: "'onum' Oldstyle Figures lookup 36 subtable" six.tosf
Substitution2: "'pnum' Proportional Numbers lookup 34 subtable" six.lf
Substitution2: "'frac' Diagonal Fractions lookup 27 subtable" six.numr
Substitution2: "'dnom' Denominators lookup 25 subtable" six.dnom
Substitution2: "'numr' Numerators lookup 24 subtable" six.numr
Substitution2: "'sups' Superscript lookup 22 subtable" uni2076
Substitution2: "'subs' Subscript lookup 21 subtable" uni2086
AlternateSubs2: "'aalt' Access All Alternates lookup 1 subtable" uni2076 six.lf six.tosf six.dnom six.numr uni2086
EndChar

StartChar: seven
Encoding: 55 55 26
Width: 487
Flags: W
LayerCount: 2
Fore
SplineSet
137 0 m 1,0,-1
 371 612 l 1,1,-1
 150 612 l 2,2,3
 105 612 105 612 100 560 c 2,4,-1
 94 511 l 1,5,-1
 39 511 l 1,6,-1
 44 714 l 1,7,-1
 453 714 l 1,8,-1
 453 670 l 1,9,-1
 219 0 l 1,10,-1
 137 0 l 1,0,-1
EndSplineSet
Substitution2: "'case' Case-Sensitive Forms lookup 39 subtable" seven.lf
Substitution2: "'onum' Oldstyle Figures lookup 36 subtable" seven.tosf
Substitution2: "'pnum' Proportional Numbers lookup 34 subtable" seven.lf
Substitution2: "'frac' Diagonal Fractions lookup 27 subtable" seven.numr
Substitution2: "'dnom' Denominators lookup 25 subtable" seven.dnom
Substitution2: "'numr' Numerators lookup 24 subtable" seven.numr
Substitution2: "'sups' Superscript lookup 22 subtable" uni2077
Substitution2: "'subs' Subscript lookup 21 subtable" uni2087
AlternateSubs2: "'aalt' Access All Alternates lookup 1 subtable" uni2077 seven.lf seven.tosf seven.dnom seven.numr uni2087
EndChar

StartChar: eight
Encoding: 56 56 27
Width: 487
Flags: W
LayerCount: 2
Fore
SplineSet
239 -10 m 0,0,1
 165 -10 165 -10 118 15 c 128,-1,2
 71 40 71 40 48.5 82.5 c 128,-1,3
 26 125 26 125 26 176 c 0,4,5
 26 250 26 250 63 293 c 128,-1,6
 100 336 100 336 157 363 c 1,7,8
 105 395 105 395 75 437 c 128,-1,9
 45 479 45 479 45 544 c 0,10,11
 45 593 45 593 65.5 634 c 128,-1,12
 86 675 86 675 130.5 699.5 c 128,-1,13
 175 724 175 724 248 724 c 0,14,15
 342 724 342 724 389.5 676 c 128,-1,16
 437 628 437 628 437 556 c 0,17,18
 437 491 437 491 406 452.5 c 128,-1,19
 375 414 375 414 321 386 c 1,20,21
 394 346 394 346 428 301 c 128,-1,22
 462 256 462 256 462 184 c 0,23,24
 462 94 462 94 403 42 c 128,-1,25
 344 -10 344 -10 239 -10 c 0,0,1
266 415 m 1,26,27
 295 437 295 437 309 469.5 c 128,-1,28
 323 502 323 502 323 555 c 0,29,30
 323 599 323 599 303.5 633 c 128,-1,31
 284 667 284 667 245 667 c 0,32,33
 209 667 209 667 190 637 c 128,-1,34
 171 607 171 607 171 558 c 0,35,36
 171 504 171 504 196.5 472.5 c 128,-1,37
 222 441 222 441 266 415 c 1,26,27
242 46 m 0,38,39
 283 46 283 46 308.5 78.5 c 128,-1,40
 334 111 334 111 334 168 c 0,41,42
 334 218 334 218 303.5 255 c 128,-1,43
 273 292 273 292 209 329 c 1,44,45
 180 305 180 305 162.5 268 c 128,-1,46
 145 231 145 231 145 179 c 0,47,48
 145 116 145 116 172 81 c 128,-1,49
 199 46 199 46 242 46 c 0,38,39
EndSplineSet
Substitution2: "'case' Case-Sensitive Forms lookup 39 subtable" eight.lf
Substitution2: "'onum' Oldstyle Figures lookup 36 subtable" eight.tosf
Substitution2: "'pnum' Proportional Numbers lookup 34 subtable" eight.lf
Substitution2: "'frac' Diagonal Fractions lookup 27 subtable" eight.numr
Substitution2: "'dnom' Denominators lookup 25 subtable" eight.dnom
Substitution2: "'numr' Numerators lookup 24 subtable" eight.numr
Substitution2: "'sups' Superscript lookup 22 subtable" uni2078
Substitution2: "'subs' Subscript lookup 21 subtable" uni2088
AlternateSubs2: "'aalt' Access All Alternates lookup 1 subtable" uni2078 eight.lf eight.tosf eight.dnom eight.numr uni2088
EndChar

StartChar: nine
Encoding: 57 57 28
Width: 487
Flags: W
LayerCount: 2
Fore
SplineSet
198 -11 m 0,0,1
 145 -11 145 -11 113.5 4 c 128,-1,2
 82 19 82 19 68 42.5 c 128,-1,3
 54 66 54 66 54 93 c 0,4,5
 54 114 54 114 65 131.5 c 128,-1,6
 76 149 76 149 101 154 c 1,7,8
 113 112 113 112 135.5 81.5 c 128,-1,9
 158 51 158 51 204 51 c 0,10,11
 314 51 314 51 324 341 c 1,12,13
 305 315 305 315 275 296.5 c 128,-1,14
 245 278 245 278 200 278 c 0,15,16
 125 278 125 278 77 331 c 128,-1,17
 29 384 29 384 29 484 c 0,18,19
 29 555 29 555 53 609 c 128,-1,20
 77 663 77 663 121.5 693.5 c 128,-1,21
 166 724 166 724 229 724 c 256,22,23
 292 724 292 724 342 690 c 128,-1,24
 392 656 392 656 420.5 582 c 128,-1,25
 449 508 449 508 449 388 c 0,26,27
 449 274 449 274 423.5 183.5 c 128,-1,28
 398 93 398 93 342.5 41 c 128,-1,29
 287 -11 287 -11 198 -11 c 0,0,1
239 343 m 0,30,31
 269 344 269 344 290 361.5 c 128,-1,32
 311 379 311 379 324 404 c 1,33,34
 323 543 323 543 299.5 602 c 128,-1,35
 276 661 276 661 236 661 c 0,36,37
 198 661 198 661 178 617 c 128,-1,38
 158 573 158 573 158 488 c 0,39,40
 158 418 158 418 178 381 c 128,-1,41
 198 344 198 344 239 343 c 0,30,31
EndSplineSet
Substitution2: "'case' Case-Sensitive Forms lookup 39 subtable" nine.lf
Substitution2: "'onum' Oldstyle Figures lookup 36 subtable" nine.tosf
Substitution2: "'pnum' Proportional Numbers lookup 34 subtable" nine.lf
Substitution2: "'frac' Diagonal Fractions lookup 27 subtable" nine.numr
Substitution2: "'dnom' Denominators lookup 25 subtable" nine.dnom
Substitution2: "'numr' Numerators lookup 24 subtable" nine.numr
Substitution2: "'sups' Superscript lookup 22 subtable" uni2079
Substitution2: "'subs' Subscript lookup 21 subtable" uni2089
AlternateSubs2: "'aalt' Access All Alternates lookup 1 subtable" uni2079 nine.lf nine.tosf nine.dnom nine.numr uni2089
EndChar

StartChar: colon
Encoding: 58 58 29
Width: 263
Flags: W
LayerCount: 2
Fore
SplineSet
131 390 m 0,0,1
 101 390 101 390 80.5 406.5 c 128,-1,2
 60 423 60 423 60 465 c 0,3,4
 60 508 60 508 80.5 524 c 128,-1,5
 101 540 101 540 131 540 c 0,6,7
 160 540 160 540 181.5 524 c 128,-1,8
 203 508 203 508 203 465 c 0,9,10
 203 423 203 423 181.5 406.5 c 128,-1,11
 160 390 160 390 131 390 c 0,0,1
131 -7 m 0,12,13
 101 -7 101 -7 80.5 9 c 128,-1,14
 60 25 60 25 60 68 c 0,15,16
 60 110 60 110 80.5 126.5 c 128,-1,17
 101 143 101 143 131 143 c 0,18,19
 160 143 160 143 181.5 126.5 c 128,-1,20
 203 110 203 110 203 68 c 0,21,22
 203 25 203 25 181.5 9 c 128,-1,23
 160 -7 160 -7 131 -7 c 0,12,13
EndSplineSet
EndChar

StartChar: semicolon
Encoding: 59 59 30
Width: 263
Flags: W
LayerCount: 2
Fore
SplineSet
131 390 m 0,0,1
 101 390 101 390 80.5 406.5 c 128,-1,2
 60 423 60 423 60 465 c 0,3,4
 60 508 60 508 80.5 524 c 128,-1,5
 101 540 101 540 131 540 c 0,6,7
 160 540 160 540 181.5 524 c 128,-1,8
 203 508 203 508 203 465 c 0,9,10
 203 423 203 423 181.5 406.5 c 128,-1,11
 160 390 160 390 131 390 c 0,0,1
47 -154 m 1,12,-1
 47 -105 l 1,13,14
 85 -90 85 -90 104 -71.5 c 128,-1,15
 123 -53 123 -53 123 -25 c 0,16,17
 123 -11 123 -11 113.5 -3 c 128,-1,18
 104 5 104 5 92 13 c 128,-1,19
 80 21 80 21 70.5 35.5 c 128,-1,20
 61 50 61 50 61 78 c 0,21,22
 61 109 61 109 79.5 126 c 128,-1,23
 98 143 98 143 124 143 c 0,24,25
 162 143 162 143 182 114.5 c 128,-1,26
 202 86 202 86 202 36 c 0,27,28
 202 -26 202 -26 167 -77.5 c 128,-1,29
 132 -129 132 -129 47 -154 c 1,12,-1
EndSplineSet
EndChar

StartChar: less
Encoding: 60 60 31
Width: 465
Flags: W
LayerCount: 2
Fore
SplineSet
419 105 m 1,0,-1
 46 338 l 1,1,-1
 46 377 l 1,2,-1
 419 611 l 1,3,-1
 419 534 l 1,4,-1
 140 357 l 1,5,-1
 419 182 l 1,6,-1
 419 105 l 1,0,-1
EndSplineSet
EndChar

StartChar: equal
Encoding: 61 61 32
Width: 465
Flags: W
LayerCount: 2
Fore
SplineSet
44 416 m 1,0,-1
 44 483 l 1,1,-1
 421 483 l 1,2,-1
 421 416 l 1,3,-1
 44 416 l 1,0,-1
44 231 m 1,4,-1
 44 299 l 1,5,-1
 421 299 l 1,6,-1
 421 231 l 1,7,-1
 44 231 l 1,4,-1
EndSplineSet
Substitution2: "'sups' Superscript lookup 22 subtable" uni207C
Substitution2: "'subs' Subscript lookup 21 subtable" uni208C
AlternateSubs2: "'aalt' Access All Alternates lookup 1 subtable" uni208C uni207C
EndChar

StartChar: greater
Encoding: 62 62 33
Width: 465
Flags: W
LayerCount: 2
Fore
SplineSet
46 105 m 1,0,-1
 46 182 l 1,1,-1
 325 357 l 1,2,-1
 46 534 l 1,3,-1
 46 611 l 1,4,-1
 419 377 l 1,5,-1
 419 338 l 1,6,-1
 46 105 l 1,0,-1
EndSplineSet
EndChar

StartChar: question
Encoding: 63 63 34
Width: 484
Flags: W
LayerCount: 2
Fore
SplineSet
186 223 m 1,0,-1
 171 349 l 1,1,2
 220 372 220 372 246.5 403.5 c 128,-1,3
 273 435 273 435 283 473 c 128,-1,4
 293 511 293 511 293 552 c 0,5,6
 293 601 293 601 275.5 634 c 128,-1,7
 258 667 258 667 224 667 c 0,8,9
 186 667 186 667 169.5 631 c 128,-1,10
 153 595 153 595 153 537 c 1,11,12
 98 537 98 537 65.5 553 c 128,-1,13
 33 569 33 569 33 607 c 0,14,15
 33 654 33 654 79 689 c 128,-1,16
 125 724 125 724 221 724 c 256,17,18
 317 724 317 724 376 676.5 c 128,-1,19
 435 629 435 629 435 542 c 0,20,21
 435 461 435 461 392.5 411.5 c 128,-1,22
 350 362 350 362 263 322 c 1,23,-1
 247 223 l 1,24,-1
 186 223 l 1,0,-1
215 -7 m 0,25,26
 185 -7 185 -7 164 9 c 128,-1,27
 143 25 143 25 143 68 c 0,28,29
 143 110 143 110 164 126.5 c 128,-1,30
 185 143 185 143 215 143 c 0,31,32
 244 143 244 143 266 126.5 c 128,-1,33
 288 110 288 110 288 68 c 0,34,35
 288 25 288 25 266 9 c 128,-1,36
 244 -7 244 -7 215 -7 c 0,25,26
EndSplineSet
Substitution2: "'smcp' Lowercase to Small Capitals lookup 38 subtable" question.sc
Substitution2: "'c2sc' Capitals to Small Capitals lookup 37 subtable" question.sc
Substitution2: "'aalt' Access All Alternates lookup 0 subtable" question.sc
EndChar

StartChar: at
Encoding: 64 64 35
Width: 801
Flags: W
LayerCount: 2
Fore
SplineSet
401 -142 m 0,0,1
 329 -142 329 -142 265 -119.5 c 128,-1,2
 201 -97 201 -97 152.5 -50.5 c 128,-1,3
 104 -4 104 -4 76 66.5 c 128,-1,4
 48 137 48 137 48 233 c 0,5,6
 48 342 48 342 81 431 c 128,-1,7
 114 520 114 520 171.5 583 c 128,-1,8
 229 646 229 646 303.5 680 c 128,-1,9
 378 714 378 714 461 714 c 0,10,11
 556 714 556 714 624 673 c 128,-1,12
 692 632 692 632 728 559 c 128,-1,13
 764 486 764 486 764 389 c 256,14,15
 764 292 764 292 738.5 222 c 128,-1,16
 713 152 713 152 672 114.5 c 128,-1,17
 631 77 631 77 587 77 c 0,18,19
 549 77 549 77 522 99 c 128,-1,20
 495 121 495 121 481 172 c 1,21,-1
 476 172 l 1,22,23
 457 133 457 133 428 105 c 128,-1,24
 399 77 399 77 353 77 c 0,25,26
 297 77 297 77 258 119.5 c 128,-1,27
 219 162 219 162 219 248 c 0,28,29
 219 293 219 293 232.5 342 c 128,-1,30
 246 391 246 391 274.5 433.5 c 128,-1,31
 303 476 303 476 346.5 502.5 c 128,-1,32
 390 529 390 529 450 529 c 0,33,34
 478 529 478 529 502 519.5 c 128,-1,35
 526 510 526 510 538 499 c 1,36,-1
 574 520 l 1,37,-1
 600 520 l 1,38,-1
 562 274 l 2,39,40
 560 255 560 255 558 233.5 c 128,-1,41
 556 212 556 212 556 201 c 0,42,43
 556 159 556 159 569.5 144.5 c 128,-1,44
 583 130 583 130 596 130 c 0,45,46
 619 130 619 130 643 159 c 128,-1,47
 667 188 667 188 683.5 244.5 c 128,-1,48
 700 301 700 301 700 384 c 0,49,50
 700 476 700 476 668.5 539 c 128,-1,51
 637 602 637 602 581.5 634 c 128,-1,52
 526 666 526 666 455 666 c 0,53,54
 392 666 392 666 333 635.5 c 128,-1,55
 274 605 274 605 228 548 c 128,-1,56
 182 491 182 491 155 410.5 c 128,-1,57
 128 330 128 330 128 230 c 0,58,59
 128 118 128 118 164.5 47 c 128,-1,60
 201 -24 201 -24 265 -57 c 128,-1,61
 329 -90 329 -90 411 -90 c 0,62,63
 486 -90 486 -90 546 -64 c 128,-1,64
 606 -38 606 -38 646 -7 c 1,65,-1
 668 -46 l 1,66,67
 620 -84 620 -84 554.5 -113 c 128,-1,68
 489 -142 489 -142 401 -142 c 0,0,1
382 131 m 0,69,70
 406 131 406 131 421.5 148.5 c 128,-1,71
 437 166 437 166 447 193.5 c 128,-1,72
 457 221 457 221 461 248 c 2,73,-1
 497 459 l 1,74,75
 491 472 491 472 477 480 c 128,-1,76
 463 488 463 488 448 488 c 0,77,78
 415 488 415 488 392 462 c 128,-1,79
 369 436 369 436 354 396 c 128,-1,80
 339 356 339 356 332 313 c 128,-1,81
 325 270 325 270 325 235 c 0,82,83
 325 181 325 181 341 156 c 128,-1,84
 357 131 357 131 382 131 c 0,69,70
EndSplineSet
EndChar

StartChar: A
Encoding: 65 65 36
Width: 659
GlyphClass: 2
Flags: W
AnchorPoint: "Anchor-2" 537 714 basechar 0
AnchorPoint: "Anchor-1" 330 714 basechar 0
AnchorPoint: "Anchor-0" 330 0 basechar 0
LayerCount: 2
Fore
SplineSet
4 0 m 1,0,-1
 4 50 l 1,1,-1
 14 50 l 2,2,3
 37 50 37 50 53 64.5 c 128,-1,4
 69 79 69 79 83 125 c 2,5,-1
 272 714 l 1,6,-1
 395 714 l 1,7,-1
 580 111 l 2,8,9
 591 76 591 76 607.5 63 c 128,-1,10
 624 50 624 50 648 50 c 2,11,-1
 659 50 l 1,12,-1
 659 0 l 1,13,-1
 368 0 l 1,14,-1
 368 50 l 1,15,-1
 398 50 l 2,16,17
 415 50 415 50 427 59 c 128,-1,18
 439 68 439 68 439 87 c 0,19,20
 439 99 439 99 436 113 c 128,-1,21
 433 127 433 127 430 138 c 2,22,-1
 401 236 l 1,23,-1
 191 236 l 1,24,-1
 167 150 l 2,25,26
 164 138 164 138 159.5 120.5 c 128,-1,27
 155 103 155 103 155 90 c 0,28,29
 155 50 155 50 197 50 c 2,30,-1
 231 50 l 1,31,-1
 231 0 l 1,32,-1
 4 0 l 1,0,-1
210 295 m 1,33,-1
 383 295 l 1,34,-1
 334 478 l 2,35,36
 324 513 324 513 315 549 c 128,-1,37
 306 585 306 585 300 617 c 1,38,39
 292 586 292 586 283 551 c 128,-1,40
 274 516 274 516 264 483 c 2,41,-1
 210 295 l 1,33,-1
EndSplineSet
Substitution2: "'c2sc' Capitals to Small Capitals lookup 37 subtable" a.sc
Substitution2: "Single Substitution lookup 32 subtable" ordfeminine
AlternateSubs2: "'aalt' Access All Alternates lookup 1 subtable" ordfeminine a.sc
EndChar

StartChar: B
Encoding: 66 66 37
Width: 600
GlyphClass: 2
Flags: W
AnchorPoint: "Anchor-2" 580 714 basechar 0
AnchorPoint: "Anchor-1" 300 714 basechar 0
AnchorPoint: "Anchor-0" 300 0 basechar 0
LayerCount: 2
Fore
SplineSet
24 0 m 1,0,-1
 24 50 l 1,1,-1
 59 50 l 2,2,3
 80 50 80 50 92.5 63.5 c 128,-1,4
 105 77 105 77 105 115 c 2,5,-1
 105 601 l 2,6,7
 105 640 105 640 90 652 c 128,-1,8
 75 664 75 664 57 664 c 2,9,-1
 24 664 l 1,10,-1
 24 714 l 1,11,-1
 288 714 l 2,12,13
 412 714 412 714 476 672 c 128,-1,14
 540 630 540 630 540 538 c 0,15,16
 540 471 540 471 505 434.5 c 128,-1,17
 470 398 470 398 421 381 c 1,18,-1
 421 376 l 1,19,20
 485 363 485 363 525.5 318.5 c 128,-1,21
 566 274 566 274 566 195 c 0,22,23
 566 0 566 0 314 0 c 2,24,-1
 24 0 l 1,0,-1
245 403 m 1,25,-1
 282 403 l 2,26,27
 341 403 341 403 366.5 434 c 128,-1,28
 392 465 392 465 392 533 c 0,29,30
 392 603 392 603 365 629.5 c 128,-1,31
 338 656 338 656 281 656 c 2,32,-1
 245 656 l 1,33,-1
 245 403 l 1,25,-1
245 58 m 1,34,-1
 304 58 l 2,35,36
 361 58 361 58 388.5 89.5 c 128,-1,37
 416 121 416 121 416 198 c 0,38,39
 416 273 416 273 390.5 308.5 c 128,-1,40
 365 344 365 344 306 344 c 2,41,-1
 245 344 l 1,42,-1
 245 58 l 1,34,-1
EndSplineSet
Substitution2: "'c2sc' Capitals to Small Capitals lookup 37 subtable" b.sc
Substitution2: "'aalt' Access All Alternates lookup 0 subtable" b.sc
EndChar

StartChar: C
Encoding: 67 67 38
Width: 586
GlyphClass: 2
Flags: W
AnchorPoint: "Anchor-2" 566 714 basechar 0
AnchorPoint: "Anchor-1" 336 714 basechar 0
AnchorPoint: "Anchor-0" 336 0 basechar 0
LayerCount: 2
Fore
SplineSet
347 -10 m 0,0,1
 248 -10 248 -10 181.5 36 c 128,-1,2
 115 82 115 82 81.5 164.5 c 128,-1,3
 48 247 48 247 48 358 c 0,4,5
 48 467 48 467 82 549.5 c 128,-1,6
 116 632 116 632 183 678 c 128,-1,7
 250 724 250 724 349 724 c 0,8,9
 449 724 449 724 499.5 690 c 128,-1,10
 550 656 550 656 550 608 c 0,11,12
 550 573 550 573 522 549.5 c 128,-1,13
 494 526 494 526 439 526 c 1,14,15
 439 559 439 559 430 590.5 c 128,-1,16
 421 622 421 622 400 642.5 c 128,-1,17
 379 663 379 663 341 663 c 0,18,19
 261 663 261 663 230 582.5 c 128,-1,20
 199 502 199 502 199 358 c 0,21,22
 199 210 199 210 237.5 136.5 c 128,-1,23
 276 63 276 63 370 63 c 0,24,25
 415 63 415 63 446 77.5 c 128,-1,26
 477 92 477 92 499 114 c 128,-1,27
 521 136 521 136 536 159 c 1,28,29
 542 153 542 153 546 141.5 c 128,-1,30
 550 130 550 130 550 119 c 0,31,32
 550 92 550 92 531.5 62 c 128,-1,33
 513 32 513 32 469 11 c 128,-1,34
 425 -10 425 -10 347 -10 c 0,0,1
EndSplineSet
Substitution2: "'c2sc' Capitals to Small Capitals lookup 37 subtable" c.sc
Substitution2: "'aalt' Access All Alternates lookup 0 subtable" c.sc
EndChar

StartChar: D
Encoding: 68 68 39
Width: 670
GlyphClass: 2
Flags: W
AnchorPoint: "Anchor-3" 336 357 basechar 0
AnchorPoint: "Anchor-2" 650 714 basechar 0
AnchorPoint: "Anchor-1" 336 714 basechar 0
AnchorPoint: "Anchor-0" 336 0 basechar 0
LayerCount: 2
Fore
SplineSet
24 0 m 1,0,-1
 24 50 l 1,1,-1
 60 50 l 2,2,3
 80 50 80 50 92.5 64 c 128,-1,4
 105 78 105 78 105 115 c 2,5,-1
 105 602 l 2,6,7
 105 639 105 639 91.5 651.5 c 128,-1,8
 78 664 78 664 56 664 c 2,9,-1
 24 664 l 1,10,-1
 24 714 l 1,11,-1
 313 714 l 2,12,13
 458 714 458 714 540.5 625.5 c 128,-1,14
 623 537 623 537 623 367 c 0,15,16
 623 258 623 258 588 175 c 128,-1,17
 553 92 553 92 484 46 c 128,-1,18
 415 0 415 0 313 0 c 2,19,-1
 24 0 l 1,0,-1
246 59 m 1,20,-1
 293 59 l 2,21,22
 381 59 381 59 426.5 141 c 128,-1,23
 472 223 472 223 472 367 c 0,24,25
 472 656 472 656 293 656 c 2,26,-1
 246 656 l 1,27,-1
 246 59 l 1,20,-1
EndSplineSet
Substitution2: "'c2sc' Capitals to Small Capitals lookup 37 subtable" d.sc
Substitution2: "'aalt' Access All Alternates lookup 0 subtable" d.sc
EndChar

StartChar: E
Encoding: 69 69 40
Width: 570
GlyphClass: 2
Flags: W
AnchorPoint: "Anchor-2" 550 714 basechar 0
AnchorPoint: "Anchor-1" 286 714 basechar 0
AnchorPoint: "Anchor-0" 286 0 basechar 0
LayerCount: 2
Fore
SplineSet
24 0 m 1,0,-1
 24 50 l 1,1,-1
 59 50 l 2,2,3
 80 50 80 50 92.5 62 c 128,-1,4
 105 74 105 74 105 110 c 2,5,-1
 105 600 l 2,6,7
 105 642 105 642 91 653 c 128,-1,8
 77 664 77 664 57 664 c 2,9,-1
 24 664 l 1,10,-1
 24 714 l 1,11,-1
 511 714 l 1,12,-1
 514 532 l 1,13,-1
 452 532 l 1,14,-1
 448 578 l 2,15,16
 445 614 445 614 431 635 c 128,-1,17
 417 656 417 656 385 656 c 2,18,-1
 246 656 l 1,19,-1
 246 402 l 1,20,-1
 453 402 l 1,21,-1
 453 344 l 1,22,-1
 246 344 l 1,23,-1
 246 58 l 1,24,-1
 410 58 l 2,25,26
 442 58 442 58 456.5 80.5 c 128,-1,27
 471 103 471 103 475 136 c 2,28,-1
 481 182 l 1,29,-1
 543 182 l 1,30,-1
 538 0 l 1,31,-1
 24 0 l 1,0,-1
EndSplineSet
Substitution2: "'c2sc' Capitals to Small Capitals lookup 37 subtable" e.sc
Substitution2: "'aalt' Access All Alternates lookup 0 subtable" e.sc
EndChar

StartChar: F
Encoding: 70 70 41
Width: 543
GlyphClass: 2
Flags: W
AnchorPoint: "Anchor-2" 523 714 basechar 0
AnchorPoint: "Anchor-1" 272 714 basechar 0
AnchorPoint: "Anchor-0" 176 0 basechar 0
LayerCount: 2
Fore
SplineSet
24 0 m 1,0,-1
 24 50 l 1,1,-1
 52 50 l 2,2,3
 78 50 78 50 91.5 61.5 c 128,-1,4
 105 73 105 73 105 109 c 2,5,-1
 105 604 l 2,6,7
 105 640 105 640 91.5 652 c 128,-1,8
 78 664 78 664 58 664 c 2,9,-1
 24 664 l 1,10,-1
 24 714 l 1,11,-1
 509 714 l 1,12,-1
 514 532 l 1,13,-1
 452 532 l 1,14,-1
 448 579 l 2,15,16
 440 656 440 656 384 656 c 2,17,-1
 246 656 l 1,18,-1
 246 379 l 1,19,-1
 453 379 l 1,20,-1
 453 322 l 1,21,-1
 246 322 l 1,22,-1
 246 112 l 2,23,24
 246 75 246 75 260 62.5 c 128,-1,25
 274 50 274 50 300 50 c 2,26,-1
 345 50 l 1,27,-1
 345 0 l 1,28,-1
 24 0 l 1,0,-1
EndSplineSet
Substitution2: "'c2sc' Capitals to Small Capitals lookup 37 subtable" f.sc
Substitution2: "'aalt' Access All Alternates lookup 0 subtable" f.sc
EndChar

StartChar: G
Encoding: 71 71 42
Width: 673
GlyphClass: 2
Flags: W
AnchorPoint: "Anchor-2" 653 714 basechar 0
AnchorPoint: "Anchor-1" 373 714 basechar 0
AnchorPoint: "Anchor-0" 368 0 basechar 0
LayerCount: 2
Fore
SplineSet
371 -10 m 0,0,1
 262 -10 262 -10 190 36 c 128,-1,2
 118 82 118 82 83 164.5 c 128,-1,3
 48 247 48 247 48 358 c 0,4,5
 48 466 48 466 85 548.5 c 128,-1,6
 122 631 122 631 194.5 677.5 c 128,-1,7
 267 724 267 724 374 724 c 0,8,9
 482 724 482 724 537.5 691 c 128,-1,10
 593 658 593 658 593 609 c 0,11,12
 593 575 593 575 565 551 c 128,-1,13
 537 527 537 527 481 527 c 1,14,15
 481 585 481 585 454 624 c 128,-1,16
 427 663 427 663 372 663 c 0,17,18
 279 663 279 663 238.5 585 c 128,-1,19
 198 507 198 507 198 358 c 0,20,21
 198 211 198 211 240 133 c 128,-1,22
 282 55 282 55 383 55 c 0,23,24
 415 55 415 55 445 63 c 1,25,-1
 445 214 l 2,26,27
 445 255 445 255 430 269.5 c 128,-1,28
 415 284 415 284 385 284 c 2,29,-1
 372 284 l 1,30,-1
 372 335 l 1,31,-1
 644 335 l 1,32,-1
 644 284 l 1,33,-1
 635 284 l 2,34,35
 608 284 608 284 597 269 c 128,-1,36
 586 254 586 254 586 210 c 2,37,-1
 586 42 l 1,38,39
 535 16 535 16 482.5 3 c 128,-1,40
 430 -10 430 -10 371 -10 c 0,0,1
EndSplineSet
Substitution2: "'c2sc' Capitals to Small Capitals lookup 37 subtable" g.sc
Substitution2: "'aalt' Access All Alternates lookup 0 subtable" g.sc
EndChar

StartChar: H
Encoding: 72 72 43
Width: 715
GlyphClass: 2
Flags: W
AnchorPoint: "Anchor-3" 358 357 basechar 0
AnchorPoint: "Anchor-2" 695 714 basechar 0
AnchorPoint: "Anchor-1" 358 714 basechar 0
AnchorPoint: "Anchor-0" 358 0 basechar 0
LayerCount: 2
Fore
SplineSet
24 0 m 1,0,-1
 24 50 l 1,1,-1
 60 50 l 2,2,3
 79 50 79 50 92 63.5 c 128,-1,4
 105 77 105 77 105 113 c 2,5,-1
 105 602 l 2,6,7
 105 639 105 639 90.5 651.5 c 128,-1,8
 76 664 76 664 55 664 c 2,9,-1
 24 664 l 1,10,-1
 24 714 l 1,11,-1
 320 714 l 1,12,-1
 320 664 l 1,13,-1
 291 664 l 2,14,15
 270 664 270 664 258.5 651.5 c 128,-1,16
 247 639 247 639 247 602 c 2,17,-1
 247 402 l 1,18,-1
 469 402 l 1,19,-1
 469 600 l 2,20,21
 469 639 469 639 457 651.5 c 128,-1,22
 445 664 445 664 423 664 c 2,23,-1
 396 664 l 1,24,-1
 396 714 l 1,25,-1
 692 714 l 1,26,-1
 692 664 l 1,27,-1
 656 664 l 2,28,29
 635 664 635 664 623 651.5 c 128,-1,30
 611 639 611 639 611 600 c 2,31,-1
 611 111 l 2,32,33
 611 75 611 75 623.5 62.5 c 128,-1,34
 636 50 636 50 656 50 c 2,35,-1
 692 50 l 1,36,-1
 692 0 l 1,37,-1
 396 0 l 1,38,-1
 396 50 l 1,39,-1
 423 50 l 2,40,41
 444 50 444 50 456.5 63.5 c 128,-1,42
 469 77 469 77 469 115 c 2,43,-1
 469 343 l 1,44,-1
 247 343 l 1,45,-1
 247 113 l 2,46,47
 247 77 247 77 258.5 63.5 c 128,-1,48
 270 50 270 50 291 50 c 2,49,-1
 320 50 l 1,50,-1
 320 0 l 1,51,-1
 24 0 l 1,0,-1
EndSplineSet
Substitution2: "'c2sc' Capitals to Small Capitals lookup 37 subtable" h.sc
Substitution2: "'aalt' Access All Alternates lookup 0 subtable" h.sc
EndChar

StartChar: I
Encoding: 73 73 44
Width: 351
GlyphClass: 2
Flags: W
AnchorPoint: "Anchor-2" 331 714 basechar 0
AnchorPoint: "Anchor-1" 176 714 basechar 0
AnchorPoint: "Anchor-0" 176 0 basechar 0
LayerCount: 2
Fore
SplineSet
24 0 m 1,0,-1
 24 50 l 1,1,-1
 60 50 l 2,2,3
 78 50 78 50 91.5 62.5 c 128,-1,4
 105 75 105 75 105 112 c 2,5,-1
 105 600 l 2,6,7
 105 639 105 639 91.5 651.5 c 128,-1,8
 78 664 78 664 60 664 c 2,9,-1
 24 664 l 1,10,-1
 24 714 l 1,11,-1
 328 714 l 1,12,-1
 328 664 l 1,13,-1
 292 664 l 2,14,15
 272 664 272 664 259 651.5 c 128,-1,16
 246 639 246 639 246 600 c 2,17,-1
 246 112 l 2,18,19
 246 76 246 76 259.5 63 c 128,-1,20
 273 50 273 50 292 50 c 2,21,-1
 328 50 l 1,22,-1
 328 0 l 1,23,-1
 24 0 l 1,0,-1
EndSplineSet
Substitution2: "'c2sc' Capitals to Small Capitals lookup 37 subtable" i.sc
Substitution2: "'aalt' Access All Alternates lookup 0 subtable" i.sc
EndChar

StartChar: J
Encoding: 74 74 45
Width: 350
GlyphClass: 2
Flags: W
AnchorPoint: "Anchor-2" 320 714 basechar 0
AnchorPoint: "Anchor-1" 180 714 basechar 0
AnchorPoint: "Anchor-0" 109 -240 basechar 0
LayerCount: 2
Fore
SplineSet
-17 -240 m 1,0,-1
 -17 -185 l 1,1,-1
 -1 -185 l 2,2,3
 26 -185 26 -185 51.5 -168 c 128,-1,4
 77 -151 77 -151 93 -111.5 c 128,-1,5
 109 -72 109 -72 109 -4 c 2,6,-1
 109 603 l 2,7,8
 109 639 109 639 95 651.5 c 128,-1,9
 81 664 81 664 64 664 c 2,10,-1
 28 664 l 1,11,-1
 28 714 l 1,12,-1
 332 714 l 1,13,-1
 332 664 l 1,14,-1
 297 664 l 2,15,16
 278 664 278 664 264 651.5 c 128,-1,17
 250 639 250 639 250 600 c 2,18,-1
 250 -3 l 2,19,20
 250 -71 250 -71 230.5 -117 c 128,-1,21
 211 -163 211 -163 178 -190 c 128,-1,22
 145 -217 145 -217 103 -228.5 c 128,-1,23
 61 -240 61 -240 16 -240 c 2,24,-1
 -17 -240 l 1,0,-1
EndSplineSet
Substitution2: "'c2sc' Capitals to Small Capitals lookup 37 subtable" j.sc
Substitution2: "'aalt' Access All Alternates lookup 0 subtable" j.sc
EndChar

StartChar: K
Encoding: 75 75 46
Width: 651
GlyphClass: 2
Flags: W
AnchorPoint: "Anchor-2" 631 714 basechar 0
AnchorPoint: "Anchor-1" 326 714 basechar 0
AnchorPoint: "Anchor-0" 326 0 basechar 0
LayerCount: 2
Fore
SplineSet
24 0 m 1,0,-1
 24 50 l 1,1,-1
 55 50 l 2,2,3
 76 50 76 50 90.5 62 c 128,-1,4
 105 74 105 74 105 110 c 2,5,-1
 105 604 l 2,6,7
 105 640 105 640 91.5 652 c 128,-1,8
 78 664 78 664 57 664 c 2,9,-1
 24 664 l 1,10,-1
 24 714 l 1,11,-1
 320 714 l 1,12,-1
 320 664 l 1,13,-1
 293 664 l 2,14,15
 272 664 272 664 259.5 651.5 c 128,-1,16
 247 639 247 639 247 602 c 2,17,-1
 247 340 l 1,18,-1
 386 536 l 2,19,20
 412 572 412 572 424.5 594.5 c 128,-1,21
 437 617 437 617 437 637 c 0,22,23
 437 652 437 652 425.5 658.5 c 128,-1,24
 414 665 414 665 387 665 c 1,25,-1
 387 714 l 1,26,-1
 624 714 l 1,27,-1
 624 665 l 1,28,29
 588 665 588 665 558.5 640.5 c 128,-1,30
 529 616 529 616 498 576 c 2,31,-1
 380 425 l 1,32,-1
 553 133 l 2,33,34
 579 89 579 89 600.5 69.5 c 128,-1,35
 622 50 622 50 650 50 c 2,36,-1
 654 50 l 1,37,-1
 654 0 l 1,38,-1
 596 0 l 2,39,40
 536 0 536 0 501.5 10 c 128,-1,41
 467 20 467 20 445.5 43.5 c 128,-1,42
 424 67 424 67 403 109 c 2,43,-1
 287 326 l 1,44,-1
 247 275 l 1,45,-1
 247 112 l 2,46,47
 247 75 247 75 261 62.5 c 128,-1,48
 275 50 275 50 296 50 c 2,49,-1
 320 50 l 1,50,-1
 320 0 l 1,51,-1
 24 0 l 1,0,-1
EndSplineSet
Substitution2: "'c2sc' Capitals to Small Capitals lookup 37 subtable" k.sc
Substitution2: "'aalt' Access All Alternates lookup 0 subtable" k.sc
EndChar

StartChar: L
Encoding: 76 76 47
Width: 571
GlyphClass: 2
Flags: W
AnchorPoint: "Anchor-3" 286 357 basechar 0
AnchorPoint: "Anchor-2" 551 714 basechar 0
AnchorPoint: "Anchor-1" 286 714 basechar 0
AnchorPoint: "Anchor-0" 286 0 basechar 0
LayerCount: 2
Fore
SplineSet
24 0 m 1,0,-1
 24 50 l 1,1,-1
 60 50 l 2,2,3
 78 50 78 50 91.5 62.5 c 128,-1,4
 105 75 105 75 105 112 c 2,5,-1
 105 600 l 2,6,7
 105 639 105 639 91 651.5 c 128,-1,8
 77 664 77 664 56 664 c 2,9,-1
 24 664 l 1,10,-1
 24 714 l 1,11,-1
 328 714 l 1,12,-1
 328 664 l 1,13,-1
 295 664 l 2,14,15
 270 664 270 664 258.5 652 c 128,-1,16
 247 640 247 640 247 604 c 2,17,-1
 247 58 l 1,18,-1
 409 58 l 2,19,20
 438 58 438 58 455 80 c 128,-1,21
 472 102 472 102 481 146 c 2,22,-1
 496 221 l 1,23,-1
 543 221 l 1,24,-1
 538 0 l 1,25,-1
 24 0 l 1,0,-1
EndSplineSet
Substitution2: "'c2sc' Capitals to Small Capitals lookup 37 subtable" l.sc
Substitution2: "'aalt' Access All Alternates lookup 0 subtable" l.sc
EndChar

StartChar: M
Encoding: 77 77 48
Width: 830
GlyphClass: 2
Flags: W
AnchorPoint: "Anchor-2" 810 714 basechar 0
AnchorPoint: "Anchor-1" 415 714 basechar 0
AnchorPoint: "Anchor-0" 415 0 basechar 0
LayerCount: 2
Fore
SplineSet
24 0 m 1,0,-1
 24 50 l 1,1,-1
 51 50 l 2,2,3
 75 50 75 50 90 62 c 128,-1,4
 105 74 105 74 105 112 c 2,5,-1
 105 601 l 2,6,7
 105 639 105 639 91 651.5 c 128,-1,8
 77 664 77 664 57 664 c 2,9,-1
 24 664 l 1,10,-1
 24 714 l 1,11,-1
 279 714 l 1,12,-1
 416 211 l 1,13,-1
 549 714 l 1,14,-1
 806 714 l 1,15,-1
 806 664 l 1,16,-1
 771 664 l 2,17,18
 753 664 753 664 739.5 651.5 c 128,-1,19
 726 639 726 639 726 602 c 2,20,-1
 726 112 l 2,21,22
 726 75 726 75 739 62.5 c 128,-1,23
 752 50 752 50 775 50 c 2,24,-1
 806 50 l 1,25,-1
 806 0 l 1,26,-1
 521 0 l 1,27,-1
 521 50 l 1,28,-1
 532 50 l 2,29,30
 562 50 562 50 574.5 62.5 c 128,-1,31
 587 75 587 75 587 115 c 2,32,-1
 587 621 l 1,33,-1
 420 0 l 1,34,-1
 345 0 l 1,35,-1
 171 620 l 1,36,-1
 171 117 l 2,37,38
 171 73 171 73 188 61.5 c 128,-1,39
 205 50 205 50 236 50 c 2,40,-1
 242 50 l 1,41,-1
 242 0 l 1,42,-1
 24 0 l 1,0,-1
EndSplineSet
Substitution2: "'c2sc' Capitals to Small Capitals lookup 37 subtable" m.sc
Substitution2: "'aalt' Access All Alternates lookup 0 subtable" m.sc
EndChar

StartChar: N
Encoding: 78 78 49
Width: 687
GlyphClass: 2
Flags: W
AnchorPoint: "Anchor-2" 667 714 basechar 0
AnchorPoint: "Anchor-1" 344 714 basechar 0
AnchorPoint: "Anchor-0" 344 0 basechar 0
LayerCount: 2
Fore
SplineSet
24 0 m 1,0,-1
 24 50 l 1,1,-1
 51 50 l 2,2,3
 75 50 75 50 90 61.5 c 128,-1,4
 105 73 105 73 105 117 c 2,5,-1
 105 601 l 2,6,7
 105 642 105 642 90.5 653 c 128,-1,8
 76 664 76 664 55 664 c 2,9,-1
 24 664 l 1,10,-1
 24 714 l 1,11,-1
 233 714 l 1,12,-1
 527 200 l 1,13,-1
 527 601 l 2,14,15
 527 640 527 640 512.5 652 c 128,-1,16
 498 664 498 664 478 664 c 2,17,-1
 446 664 l 1,18,-1
 446 714 l 1,19,-1
 674 714 l 1,20,-1
 674 664 l 1,21,-1
 643 664 l 2,22,23
 621 664 621 664 607 651 c 128,-1,24
 593 638 593 638 593 597 c 2,25,-1
 593 0 l 1,26,-1
 499 0 l 1,27,-1
 171 564 l 1,28,-1
 171 117 l 2,29,30
 171 73 171 73 184 61.5 c 128,-1,31
 197 50 197 50 220 50 c 2,32,-1
 252 50 l 1,33,-1
 252 0 l 1,34,-1
 24 0 l 1,0,-1
EndSplineSet
Substitution2: "'c2sc' Capitals to Small Capitals lookup 37 subtable" n.sc
Substitution2: "'aalt' Access All Alternates lookup 0 subtable" n.sc
EndChar

StartChar: O
Encoding: 79 79 50
Width: 688
GlyphClass: 2
Flags: W
AnchorPoint: "Anchor-3" 344 357 basechar 0
AnchorPoint: "Anchor-2" 668 714 basechar 0
AnchorPoint: "Anchor-1" 344 714 basechar 0
AnchorPoint: "Anchor-0" 344 0 basechar 0
LayerCount: 2
Fore
SplineSet
345 -10 m 0,0,1
 245 -10 245 -10 179 36 c 128,-1,2
 113 82 113 82 80.5 165 c 128,-1,3
 48 248 48 248 48 359 c 256,4,5
 48 470 48 470 80.5 552 c 128,-1,6
 113 634 113 634 179.5 679.5 c 128,-1,7
 246 725 246 725 346 725 c 0,8,9
 440 725 440 725 506 679.5 c 128,-1,10
 572 634 572 634 606 551.5 c 128,-1,11
 640 469 640 469 640 358 c 256,12,13
 640 247 640 247 606 164.5 c 128,-1,14
 572 82 572 82 506 36 c 128,-1,15
 440 -10 440 -10 345 -10 c 0,0,1
345 52 m 0,16,17
 425 52 425 52 458 133 c 128,-1,18
 491 214 491 214 491 358 c 256,19,20
 491 502 491 502 458 582.5 c 128,-1,21
 425 663 425 663 346 663 c 0,22,23
 266 663 266 663 232.5 582.5 c 128,-1,24
 199 502 199 502 199 358 c 256,25,26
 199 214 199 214 232.5 133 c 128,-1,27
 266 52 266 52 345 52 c 0,16,17
EndSplineSet
Substitution2: "'c2sc' Capitals to Small Capitals lookup 37 subtable" o.sc
Substitution2: "Single Substitution lookup 32 subtable" ordmasculine
AlternateSubs2: "'aalt' Access All Alternates lookup 1 subtable" ordmasculine o.sc
EndChar

StartChar: P
Encoding: 80 80 51
Width: 558
GlyphClass: 2
Flags: W
AnchorPoint: "Anchor-2" 567 714 basechar 0
AnchorPoint: "Anchor-1" 279 714 basechar 0
AnchorPoint: "Anchor-0" 176 0 basechar 0
LayerCount: 2
Fore
SplineSet
24 0 m 1,0,-1
 24 50 l 1,1,-1
 54 50 l 2,2,3
 76 50 76 50 90.5 61.5 c 128,-1,4
 105 73 105 73 105 117 c 2,5,-1
 105 601 l 2,6,7
 105 642 105 642 90 653 c 128,-1,8
 75 664 75 664 56 664 c 2,9,-1
 24 664 l 1,10,-1
 24 714 l 1,11,-1
 297 714 l 2,12,13
 422 714 422 714 481.5 659 c 128,-1,14
 541 604 541 604 541 503 c 0,15,16
 541 441 541 441 515 388.5 c 128,-1,17
 489 336 489 336 431.5 305 c 128,-1,18
 374 274 374 274 278 274 c 2,19,-1
 247 274 l 1,20,-1
 247 112 l 2,21,22
 247 71 247 71 262 60.5 c 128,-1,23
 277 50 277 50 297 50 c 2,24,-1
 344 50 l 1,25,-1
 344 0 l 1,26,-1
 24 0 l 1,0,-1
246 330 m 1,27,-1
 270 330 l 2,28,29
 335 330 335 330 363.5 368.5 c 128,-1,30
 392 407 392 407 392 499 c 0,31,32
 392 580 392 580 366.5 619 c 128,-1,33
 341 658 341 658 283 658 c 2,34,-1
 246 658 l 1,35,-1
 246 330 l 1,27,-1
EndSplineSet
Substitution2: "'c2sc' Capitals to Small Capitals lookup 37 subtable" p.sc
Substitution2: "'aalt' Access All Alternates lookup 0 subtable" p.sc
EndChar

StartChar: Q
Encoding: 81 81 52
Width: 688
GlyphClass: 2
Flags: W
AnchorPoint: "Anchor-2" 668 714 basechar 0
AnchorPoint: "Anchor-1" 344 714 basechar 0
AnchorPoint: "Anchor-0" 344 -235 basechar 0
LayerCount: 2
Fore
SplineSet
504 -235 m 2,0,1
 451 -235 451 -235 401.5 -213 c 128,-1,2
 352 -191 352 -191 318.5 -140.5 c 128,-1,3
 285 -90 285 -90 279 -5 c 1,4,5
 163 15 163 15 105.5 112 c 128,-1,6
 48 209 48 209 48 359 c 0,7,8
 48 470 48 470 80.5 552 c 128,-1,9
 113 634 113 634 179.5 679.5 c 128,-1,10
 246 725 246 725 346 725 c 0,11,12
 440 725 440 725 506 679.5 c 128,-1,13
 572 634 572 634 606 551.5 c 128,-1,14
 640 469 640 469 640 358 c 0,15,16
 640 216 640 216 585.5 121 c 128,-1,17
 531 26 531 26 429 -1 c 1,18,19
 434 -74 434 -74 453 -112.5 c 128,-1,20
 472 -151 472 -151 499 -165.5 c 128,-1,21
 526 -180 526 -180 555 -180 c 2,22,-1
 569 -180 l 1,23,-1
 569 -235 l 1,24,-1
 504 -235 l 2,0,1
345 52 m 256,25,26
 425 52 425 52 458 133 c 128,-1,27
 491 214 491 214 491 358 c 256,28,29
 491 502 491 502 458 582.5 c 128,-1,30
 425 663 425 663 346 663 c 0,31,32
 265 663 265 663 232 582.5 c 128,-1,33
 199 502 199 502 199 358 c 256,34,35
 199 214 199 214 232 133 c 128,-1,36
 265 52 265 52 345 52 c 256,25,26
EndSplineSet
Substitution2: "'c2sc' Capitals to Small Capitals lookup 37 subtable" q.sc
Substitution2: "'aalt' Access All Alternates lookup 0 subtable" q.sc
EndChar

StartChar: R
Encoding: 82 82 53
Width: 622
GlyphClass: 2
Flags: W
AnchorPoint: "Anchor-2" 602 714 basechar 0
AnchorPoint: "Anchor-1" 311 714 basechar 0
AnchorPoint: "Anchor-0" 311 0 basechar 0
LayerCount: 2
Fore
SplineSet
24 0 m 1,0,-1
 24 50 l 1,1,-1
 54 50 l 2,2,3
 74 50 74 50 89.5 60.5 c 128,-1,4
 105 71 105 71 105 112 c 2,5,-1
 105 601 l 2,6,7
 105 642 105 642 88.5 653 c 128,-1,8
 72 664 72 664 54 664 c 2,9,-1
 24 664 l 1,10,-1
 24 714 l 1,11,-1
 308 714 l 2,12,13
 440 714 440 714 496.5 666 c 128,-1,14
 553 618 553 618 553 527 c 0,15,16
 553 471 553 471 536 433.5 c 128,-1,17
 519 396 519 396 491 373 c 128,-1,18
 463 350 463 350 431 339 c 1,19,-1
 536 133 l 2,20,21
 558 90 558 90 577 70 c 128,-1,22
 596 50 596 50 620 50 c 2,23,-1
 625 50 l 1,24,-1
 625 0 l 1,25,-1
 595 0 l 2,26,27
 520 0 520 0 475.5 17 c 128,-1,28
 431 34 431 34 406 90 c 2,29,-1
 304 311 l 1,30,-1
 247 311 l 1,31,-1
 247 112 l 2,32,33
 247 71 247 71 260.5 60.5 c 128,-1,34
 274 50 274 50 296 50 c 2,35,-1
 320 50 l 1,36,-1
 320 0 l 1,37,-1
 24 0 l 1,0,-1
247 367 m 1,38,-1
 291 367 l 2,39,40
 352 367 352 367 378 405 c 128,-1,41
 404 443 404 443 404 517 c 0,42,43
 404 590 404 590 377 624 c 128,-1,44
 350 658 350 658 292 658 c 2,45,-1
 247 658 l 1,46,-1
 247 367 l 1,38,-1
EndSplineSet
Substitution2: "'c2sc' Capitals to Small Capitals lookup 37 subtable" r.sc
Substitution2: "'aalt' Access All Alternates lookup 0 subtable" r.sc
EndChar

StartChar: S
Encoding: 83 83 54
Width: 508
GlyphClass: 2
Flags: W
AnchorPoint: "Anchor-2" 488 714 basechar 0
AnchorPoint: "Anchor-1" 254 714 basechar 0
AnchorPoint: "Anchor-0" 254 0 basechar 0
LayerCount: 2
Fore
SplineSet
238 -10 m 0,0,1
 157 -10 157 -10 111 10.5 c 128,-1,2
 65 31 65 31 46.5 62.5 c 128,-1,3
 28 94 28 94 28 128 c 0,4,5
 28 176 28 176 57.5 196.5 c 128,-1,6
 87 217 87 217 125 217 c 1,7,8
 127 132 127 132 163.5 89.5 c 128,-1,9
 200 47 200 47 252 47 c 0,10,11
 302 47 302 47 329 78 c 128,-1,12
 356 109 356 109 356 157 c 0,13,14
 356 212 356 212 318 244 c 128,-1,15
 280 276 280 276 208 311 c 0,16,17
 118 354 118 354 82 405.5 c 128,-1,18
 46 457 46 457 46 532 c 0,19,20
 46 591 46 591 74.5 634 c 128,-1,21
 103 677 103 677 152 700.5 c 128,-1,22
 201 724 201 724 262 724 c 0,23,24
 326 724 326 724 367.5 707 c 128,-1,25
 409 690 409 690 429.5 663 c 128,-1,26
 450 636 450 636 450 606 c 0,27,28
 450 572 450 572 424.5 551 c 128,-1,29
 399 530 399 530 344 530 c 1,30,31
 344 562 344 562 333.5 593.5 c 128,-1,32
 323 625 323 625 301.5 646 c 128,-1,33
 280 667 280 667 247 667 c 0,34,35
 209 667 209 667 185 641 c 128,-1,36
 161 615 161 615 161 568 c 0,37,38
 161 539 161 539 172.5 515.5 c 128,-1,39
 184 492 184 492 215.5 468.5 c 128,-1,40
 247 445 247 445 306 418 c 0,41,42
 396 376 396 376 434.5 326.5 c 128,-1,43
 473 277 473 277 473 201 c 0,44,45
 473 137 473 137 444 89.5 c 128,-1,46
 415 42 415 42 362 16 c 128,-1,47
 309 -10 309 -10 238 -10 c 0,0,1
EndSplineSet
Substitution2: "'c2sc' Capitals to Small Capitals lookup 37 subtable" s.sc
Substitution2: "'aalt' Access All Alternates lookup 0 subtable" s.sc
EndChar

StartChar: T
Encoding: 84 84 55
Width: 571
GlyphClass: 2
Flags: W
AnchorPoint: "Anchor-3" 286 357 basechar 0
AnchorPoint: "Anchor-2" 551 714 basechar 0
AnchorPoint: "Anchor-1" 286 714 basechar 0
AnchorPoint: "Anchor-0" 286 0 basechar 0
LayerCount: 2
Fore
SplineSet
130 0 m 1,0,-1
 130 50 l 1,1,-1
 158 50 l 2,2,3
 182 50 182 50 198 61.5 c 128,-1,4
 214 73 214 73 214 116 c 2,5,-1
 214 656 l 1,6,-1
 146 656 l 2,7,8
 107 656 107 656 92 635.5 c 128,-1,9
 77 615 77 615 74 582 c 2,10,-1
 67 524 l 1,11,-1
 8 524 l 1,12,-1
 12 714 l 1,13,-1
 559 714 l 1,14,-1
 563 524 l 1,15,-1
 504 524 l 1,16,-1
 498 582 l 2,17,18
 494 615 494 615 479 635.5 c 128,-1,19
 464 656 464 656 425 656 c 2,20,-1
 357 656 l 1,21,-1
 357 117 l 2,22,23
 357 73 357 73 373 61.5 c 128,-1,24
 389 50 389 50 414 50 c 2,25,-1
 441 50 l 1,26,-1
 441 0 l 1,27,-1
 130 0 l 1,0,-1
EndSplineSet
Substitution2: "'c2sc' Capitals to Small Capitals lookup 37 subtable" t.sc
Substitution2: "'aalt' Access All Alternates lookup 0 subtable" t.sc
EndChar

StartChar: U
Encoding: 85 85 56
Width: 653
GlyphClass: 2
Flags: W
AnchorPoint: "Anchor-2" 646 714 basechar 0
AnchorPoint: "Anchor-1" 341 714 basechar 0
AnchorPoint: "Anchor-0" 326 0 basechar 0
LayerCount: 2
Fore
SplineSet
335 -10 m 0,0,1
 262 -10 262 -10 208.5 12.5 c 128,-1,2
 155 35 155 35 125.5 85 c 128,-1,3
 96 135 96 135 96 217 c 2,4,-1
 96 601 l 2,5,6
 96 642 96 642 80 653 c 128,-1,7
 64 664 64 664 40 664 c 2,8,-1
 14 664 l 1,9,-1
 14 714 l 1,10,-1
 318 714 l 1,11,-1
 318 664 l 1,12,-1
 293 664 l 2,13,14
 269 664 269 664 253 652.5 c 128,-1,15
 237 641 237 641 237 597 c 2,16,-1
 237 210 l 2,17,18
 237 125 237 125 272 91.5 c 128,-1,19
 307 58 307 58 366 58 c 0,20,21
 422 58 422 58 456.5 97.5 c 128,-1,22
 491 137 491 137 491 212 c 2,23,-1
 491 601 l 2,24,25
 491 642 491 642 475 653 c 128,-1,26
 459 664 459 664 435 664 c 2,27,-1
 410 664 l 1,28,-1
 410 714 l 1,29,-1
 639 714 l 1,30,-1
 639 664 l 1,31,-1
 612 664 l 2,32,33
 588 664 588 664 572.5 652.5 c 128,-1,34
 557 641 557 641 557 597 c 2,35,-1
 557 210 l 2,36,37
 557 109 557 109 504 49.5 c 128,-1,38
 451 -10 451 -10 335 -10 c 0,0,1
EndSplineSet
Substitution2: "'c2sc' Capitals to Small Capitals lookup 37 subtable" u.sc
Substitution2: "'aalt' Access All Alternates lookup 0 subtable" u.sc
EndChar

StartChar: V
Encoding: 86 86 57
Width: 609
GlyphClass: 2
Flags: W
AnchorPoint: "Anchor-2" 589 714 basechar 0
AnchorPoint: "Anchor-1" 305 714 basechar 0
AnchorPoint: "Anchor-0" 305 0 basechar 0
LayerCount: 2
Fore
SplineSet
253 0 m 1,0,-1
 75 614 l 2,1,2
 66 644 66 644 51.5 654 c 128,-1,3
 37 664 37 664 21 664 c 2,4,-1
 0 664 l 1,5,-1
 0 714 l 1,6,-1
 287 714 l 1,7,-1
 287 664 l 1,8,-1
 252 664 l 2,9,10
 236 664 236 664 226 656.5 c 128,-1,11
 216 649 216 649 216 633 c 0,12,13
 216 622 216 622 219.5 608.5 c 128,-1,14
 223 595 223 595 226 584 c 2,15,-1
 309 273 l 2,16,17
 317 243 317 243 325 208.5 c 128,-1,18
 333 174 333 174 337 145 c 1,19,20
 342 173 342 173 350 205.5 c 128,-1,21
 358 238 358 238 367 271 c 2,22,-1
 452 575 l 2,23,24
 456 591 456 591 460 606.5 c 128,-1,25
 464 622 464 622 464 633 c 0,26,27
 464 664 464 664 428 664 c 2,28,-1
 388 664 l 1,29,-1
 388 714 l 1,30,-1
 609 714 l 1,31,-1
 609 664 l 1,32,-1
 579 664 l 2,33,34
 560 664 560 664 549.5 650 c 128,-1,35
 539 636 539 636 525 589 c 2,36,-1
 353 0 l 1,37,-1
 253 0 l 1,0,-1
EndSplineSet
Substitution2: "'c2sc' Capitals to Small Capitals lookup 37 subtable" v.sc
Substitution2: "'aalt' Access All Alternates lookup 0 subtable" v.sc
EndChar

StartChar: W
Encoding: 87 87 58
Width: 931
GlyphClass: 2
Flags: W
AnchorPoint: "Anchor-2" 911 714 basechar 0
AnchorPoint: "Anchor-1" 465 714 basechar 0
AnchorPoint: "Anchor-0" 465 0 basechar 0
LayerCount: 2
Fore
SplineSet
223 0 m 1,0,-1
 73 611 l 2,1,2
 65 642 65 642 50.5 653 c 128,-1,3
 36 664 36 664 11 664 c 2,4,-1
 0 664 l 1,5,-1
 0 714 l 1,6,-1
 295 714 l 1,7,-1
 295 664 l 1,8,-1
 274 664 l 2,9,10
 222 664 222 664 222 621 c 0,11,12
 222 612 222 612 225 595.5 c 128,-1,13
 228 579 228 579 231 565 c 2,14,-1
 287 314 l 2,15,16
 295 275 295 275 305 228.5 c 128,-1,17
 315 182 315 182 319 148 c 1,18,19
 325 183 325 183 334 218.5 c 128,-1,20
 343 254 343 254 354 295 c 2,21,-1
 462 707 l 1,22,-1
 542 707 l 1,23,-1
 645 314 l 2,24,25
 658 265 658 265 668.5 222.5 c 128,-1,26
 679 180 679 180 684 147 c 1,27,28
 696 218 696 218 716 311 c 2,29,-1
 770 563 l 2,30,31
 773 575 773 575 775.5 593.5 c 128,-1,32
 778 612 778 612 778 622 c 0,33,34
 778 645 778 645 764.5 654.5 c 128,-1,35
 751 664 751 664 723 664 c 2,36,-1
 702 664 l 1,37,-1
 702 714 l 1,38,-1
 931 714 l 1,39,-1
 931 664 l 1,40,-1
 914 664 l 2,41,42
 889 664 889 664 874.5 649.5 c 128,-1,43
 860 635 860 635 849 586 c 2,44,-1
 714 0 l 1,45,-1
 596 0 l 1,46,-1
 471 494 l 1,47,-1
 344 0 l 1,48,-1
 223 0 l 1,0,-1
EndSplineSet
Substitution2: "'c2sc' Capitals to Small Capitals lookup 37 subtable" w.sc
Substitution2: "'aalt' Access All Alternates lookup 0 subtable" w.sc
EndChar

StartChar: X
Encoding: 88 88 59
Width: 642
GlyphClass: 2
Flags: W
AnchorPoint: "Anchor-2" 622 714 basechar 0
AnchorPoint: "Anchor-1" 321 714 basechar 0
AnchorPoint: "Anchor-0" 321 0 basechar 0
LayerCount: 2
Fore
SplineSet
9 0 m 1,0,-1
 9 50 l 1,1,-1
 14 50 l 2,2,3
 45 50 45 50 64 68 c 128,-1,4
 83 86 83 86 105 120 c 2,5,-1
 257 353 l 1,6,-1
 113 611 l 2,7,8
 99 638 99 638 84 651 c 128,-1,9
 69 664 69 664 39 664 c 2,10,-1
 28 664 l 1,11,-1
 28 714 l 1,12,-1
 320 714 l 1,13,-1
 320 664 l 1,14,-1
 316 664 l 2,15,16
 286 664 286 664 276 654.5 c 128,-1,17
 266 645 266 645 266 633 c 0,18,19
 266 623 266 623 273 607 c 128,-1,20
 280 591 280 591 288 576 c 2,21,-1
 361 443 l 1,22,-1
 436 574 l 2,23,24
 444 588 444 588 451.5 604.5 c 128,-1,25
 459 621 459 621 459 635 c 0,26,27
 459 653 459 653 445.5 658.5 c 128,-1,28
 432 664 432 664 411 664 c 2,29,-1
 408 664 l 1,30,-1
 408 714 l 1,31,-1
 613 714 l 1,32,-1
 613 664 l 1,33,-1
 604 664 l 2,34,35
 579 664 579 664 561 648.5 c 128,-1,36
 543 633 543 633 518 592 c 2,37,-1
 393 388 l 1,38,-1
 552 103 l 2,39,40
 569 73 569 73 587 61.5 c 128,-1,41
 605 50 605 50 622 50 c 2,42,-1
 633 50 l 1,43,-1
 633 0 l 1,44,-1
 342 0 l 1,45,-1
 342 50 l 1,46,-1
 346 50 l 2,47,48
 398 50 398 50 398 83 c 0,49,50
 398 94 398 94 393 107 c 128,-1,51
 388 120 388 120 370 152 c 2,52,-1
 289 298 l 1,53,-1
 197 150 l 2,54,55
 188 134 188 134 181 117 c 128,-1,56
 174 100 174 100 174 84 c 256,57,58
 174 68 174 68 185.5 59 c 128,-1,59
 197 50 197 50 225 50 c 2,60,-1
 229 50 l 1,61,-1
 229 0 l 1,62,-1
 9 0 l 1,0,-1
EndSplineSet
Substitution2: "'c2sc' Capitals to Small Capitals lookup 37 subtable" x.sc
Substitution2: "'aalt' Access All Alternates lookup 0 subtable" x.sc
EndChar

StartChar: Y
Encoding: 89 89 60
Width: 608
GlyphClass: 2
Flags: W
AnchorPoint: "Anchor-2" 588 714 basechar 0
AnchorPoint: "Anchor-1" 304 714 basechar 0
AnchorPoint: "Anchor-0" 304 0 basechar 0
LayerCount: 2
Fore
SplineSet
143 0 m 1,0,-1
 143 50 l 1,1,-1
 174 50 l 2,2,3
 200 50 200 50 217 62 c 128,-1,4
 234 74 234 74 234 117 c 2,5,-1
 234 267 l 1,6,-1
 74 611 l 2,7,8
 60 640 60 640 49 652 c 128,-1,9
 38 664 38 664 12 664 c 2,10,-1
 0 664 l 1,11,-1
 0 714 l 1,12,-1
 294 714 l 1,13,-1
 294 664 l 1,14,-1
 282 664 l 2,15,16
 256 664 256 664 242.5 652 c 128,-1,17
 229 640 229 640 229 622 c 0,18,19
 229 610 229 610 233 595 c 128,-1,20
 237 580 237 580 242 567 c 2,21,-1
 306 427 l 2,22,23
 320 397 320 397 329 373.5 c 128,-1,24
 338 350 338 350 345 327 c 1,25,26
 363 374 363 374 391 441 c 2,27,-1
 441 556 l 2,28,29
 450 577 450 577 453.5 593 c 128,-1,30
 457 609 457 609 457 618 c 0,31,32
 457 643 457 643 442 653.5 c 128,-1,33
 427 664 427 664 399 664 c 2,34,-1
 381 664 l 1,35,-1
 381 714 l 1,36,-1
 608 714 l 1,37,-1
 608 664 l 1,38,-1
 596 664 l 2,39,40
 573 664 573 664 560 648 c 128,-1,41
 547 632 547 632 526 586 c 2,42,-1
 378 267 l 1,43,-1
 378 119 l 2,44,45
 378 74 378 74 394 62 c 128,-1,46
 410 50 410 50 433 50 c 2,47,-1
 469 50 l 1,48,-1
 469 0 l 1,49,-1
 143 0 l 1,0,-1
EndSplineSet
Substitution2: "'c2sc' Capitals to Small Capitals lookup 37 subtable" y.sc
Substitution2: "'aalt' Access All Alternates lookup 0 subtable" y.sc
EndChar

StartChar: Z
Encoding: 90 90 61
Width: 585
GlyphClass: 2
Flags: W
AnchorPoint: "Anchor-2" 565 714 basechar 0
AnchorPoint: "Anchor-1" 292 714 basechar 0
AnchorPoint: "Anchor-0" 292 0 basechar 0
LayerCount: 2
Fore
SplineSet
36 0 m 1,0,-1
 36 47 l 1,1,-1
 365 656 l 1,2,-1
 193 656 l 2,3,4
 152 656 152 656 138.5 631 c 128,-1,5
 125 606 125 606 122 567 c 2,6,-1
 118 515 l 1,7,-1
 53 515 l 1,8,-1
 58 714 l 1,9,-1
 527 714 l 1,10,-1
 527 666 l 1,11,-1
 197 58 l 1,12,-1
 385 58 l 2,13,14
 421 58 421 58 440.5 72 c 128,-1,15
 460 86 460 86 468 108 c 128,-1,16
 476 130 476 130 478 155 c 2,17,-1
 482 199 l 1,18,-1
 546 199 l 1,19,-1
 542 0 l 1,20,-1
 36 0 l 1,0,-1
EndSplineSet
Substitution2: "'c2sc' Capitals to Small Capitals lookup 37 subtable" z.sc
Substitution2: "'aalt' Access All Alternates lookup 0 subtable" z.sc
EndChar

StartChar: bracketleft
Encoding: 91 91 62
Width: 364
Flags: W
LayerCount: 2
Fore
SplineSet
87 -128 m 1,0,-1
 87 760 l 1,1,-1
 332 760 l 1,2,-1
 332 710 l 1,3,-1
 295 710 l 2,4,5
 265 710 265 710 244 697.5 c 128,-1,6
 223 685 223 685 223 638 c 2,7,-1
 223 -6 l 2,8,9
 223 -53 223 -53 244 -65.5 c 128,-1,10
 265 -78 265 -78 295 -78 c 2,11,-1
 332 -78 l 1,12,-1
 332 -128 l 1,13,-1
 87 -128 l 1,0,-1
EndSplineSet
Substitution2: "'smcp' Lowercase to Small Capitals lookup 38 subtable" bracketleft.sc
Substitution2: "'c2sc' Capitals to Small Capitals lookup 37 subtable" bracketleft.sc
Substitution2: "'aalt' Access All Alternates lookup 0 subtable" bracketleft.sc
EndChar

StartChar: backslash
Encoding: 92 92 63
Width: 251
Flags: W
LayerCount: 2
Fore
SplineSet
187 -121 m 1,0,-1
 0 760 l 1,1,-1
 63 760 l 1,2,-1
 251 -121 l 1,3,-1
 187 -121 l 1,0,-1
EndSplineSet
EndChar

StartChar: bracketright
Encoding: 93 93 64
Width: 364
Flags: W
LayerCount: 2
Fore
SplineSet
32 -128 m 1,0,-1
 32 -78 l 1,1,-1
 70 -78 l 2,2,3
 99 -78 99 -78 120 -65.5 c 128,-1,4
 141 -53 141 -53 141 -6 c 2,5,-1
 141 638 l 2,6,7
 141 685 141 685 120 697.5 c 128,-1,8
 99 710 99 710 70 710 c 2,9,-1
 32 710 l 1,10,-1
 32 760 l 1,11,-1
 278 760 l 1,12,-1
 278 -128 l 1,13,-1
 32 -128 l 1,0,-1
EndSplineSet
Substitution2: "'smcp' Lowercase to Small Capitals lookup 38 subtable" bracketright.sc
Substitution2: "'c2sc' Capitals to Small Capitals lookup 37 subtable" bracketright.sc
Substitution2: "'aalt' Access All Alternates lookup 0 subtable" bracketright.sc
EndChar

StartChar: asciicircum
Encoding: 94 94 65
Width: 465
Flags: W
LayerCount: 2
Fore
SplineSet
29 263 m 1,0,-1
 213 714 l 1,1,-1
 250 714 l 1,2,-1
 435 263 l 1,3,-1
 367 263 l 1,4,-1
 231 609 l 1,5,-1
 97 263 l 1,6,-1
 29 263 l 1,0,-1
EndSplineSet
EndChar

StartChar: underscore
Encoding: 95 95 66
Width: 399
Flags: W
LayerCount: 2
Fore
SplineSet
-5 -142 m 1,0,-1
 -5 -83 l 1,1,-1
 403 -83 l 1,2,-1
 403 -142 l 1,3,-1
 -5 -142 l 1,0,-1
EndSplineSet
EndChar

StartChar: grave
Encoding: 96 96 67
Width: 307
Flags: W
LayerCount: 2
Fore
SplineSet
205 606 m 1,0,1
 184 620 184 620 159 639.5 c 128,-1,2
 134 659 134 659 110 681 c 128,-1,3
 86 703 86 703 67 723 c 128,-1,4
 48 743 48 743 40 756 c 1,5,-1
 40 766 l 1,6,-1
 180 766 l 1,7,8
 189 744 189 744 204.5 717 c 128,-1,9
 220 690 220 690 237 664 c 128,-1,10
 254 638 254 638 267 619 c 1,11,-1
 267 606 l 1,12,-1
 205 606 l 1,0,1
EndSplineSet
EndChar

StartChar: a
Encoding: 97 97 68
Width: 525
GlyphClass: 2
Flags: W
AnchorPoint: "Anchor-2" 505 536 basechar 0
AnchorPoint: "Anchor-1" 263 536 basechar 0
AnchorPoint: "Anchor-0" 263 0 basechar 0
LayerCount: 2
Fore
SplineSet
175 -10 m 0,0,1
 118 -10 118 -10 78.5 29.5 c 128,-1,2
 39 69 39 69 39 152 c 0,3,4
 39 233 39 233 87.5 272 c 128,-1,5
 136 311 136 311 233 315 c 2,6,-1
 305 318 l 1,7,-1
 305 373 l 2,8,9
 305 428 305 428 293.5 459 c 128,-1,10
 282 490 282 490 248 490 c 0,11,12
 216 490 216 490 203 460.5 c 128,-1,13
 190 431 190 431 190 381 c 1,14,15
 75 381 75 381 75 448 c 0,16,17
 75 482 75 482 99 504.5 c 128,-1,18
 123 527 123 527 164.5 537.5 c 128,-1,19
 206 548 206 548 257 548 c 0,20,21
 348 548 348 548 394.5 509.5 c 128,-1,22
 441 471 441 471 441 378 c 2,23,-1
 441 121 l 2,24,25
 441 80 441 80 452.5 65 c 128,-1,26
 464 50 464 50 494 50 c 2,27,-1
 497 50 l 1,28,-1
 497 0 l 1,29,-1
 331 0 l 1,30,-1
 313 73 l 1,31,-1
 305 73 l 1,32,33
 276 32 276 32 250 11 c 128,-1,34
 224 -10 224 -10 175 -10 c 0,0,1
226 57 m 0,35,36
 262 57 262 57 284 94 c 128,-1,37
 306 131 306 131 306 191 c 2,38,-1
 306 267 l 1,39,-1
 268 264 l 2,40,41
 217 261 217 261 197.5 232 c 128,-1,42
 178 203 178 203 178 148 c 0,43,44
 178 104 178 104 189.5 80.5 c 128,-1,45
 201 57 201 57 226 57 c 0,35,36
EndSplineSet
Substitution2: "'smcp' Lowercase to Small Capitals lookup 38 subtable" a.sc
Substitution2: "Single Substitution lookup 32 subtable" ordfeminine
AlternateSubs2: "'aalt' Access All Alternates lookup 1 subtable" ordfeminine a.sc
EndChar

StartChar: b
Encoding: 98 98 69
Width: 568
GlyphClass: 2
Flags: W
AnchorPoint: "Anchor-2" 545 760 basechar 0
AnchorPoint: "Anchor-1" 284 760 basechar 0
AnchorPoint: "Anchor-0" 284 0 basechar 0
LayerCount: 2
Fore
SplineSet
349 -10 m 0,0,1
 298 -10 298 -10 266 14.5 c 128,-1,2
 234 39 234 39 215 78 c 1,3,-1
 208 78 l 1,4,-1
 182 0 l 1,5,-1
 14 0 l 1,6,-1
 14 50 l 1,7,-1
 21 50 l 2,8,9
 37 50 37 50 52 55 c 128,-1,10
 67 60 67 60 77 75 c 128,-1,11
 87 90 87 90 87 121 c 2,12,-1
 87 643 l 2,13,14
 87 686 87 686 67 698 c 128,-1,15
 47 710 47 710 19 710 c 2,16,-1
 14 710 l 1,17,-1
 14 760 l 1,18,-1
 223 760 l 1,19,-1
 223 586 l 2,20,21
 223 561 223 561 221 523.5 c 128,-1,22
 219 486 219 486 217 463 c 1,23,-1
 222 463 l 1,24,25
 240 500 240 500 271.5 523.5 c 128,-1,26
 303 547 303 547 353 547 c 0,27,28
 437 547 437 547 481.5 480.5 c 128,-1,29
 526 414 526 414 526 269 c 256,30,31
 526 124 526 124 480 57 c 128,-1,32
 434 -10 434 -10 349 -10 c 0,0,1
310 59 m 0,33,34
 352 59 352 59 370.5 114 c 128,-1,35
 389 169 389 169 389 271 c 0,36,37
 389 377 389 377 370.5 428.5 c 128,-1,38
 352 480 352 480 309 480 c 0,39,40
 259 480 259 480 241 427.5 c 128,-1,41
 223 375 223 375 223 270 c 0,42,43
 223 168 223 168 241 113.5 c 128,-1,44
 259 59 259 59 310 59 c 0,33,34
EndSplineSet
Substitution2: "'smcp' Lowercase to Small Capitals lookup 38 subtable" b.sc
Substitution2: "'aalt' Access All Alternates lookup 0 subtable" b.sc
EndChar

StartChar: c
Encoding: 99 99 70
Width: 461
GlyphClass: 2
Flags: W
AnchorPoint: "Anchor-2" 441 536 basechar 0
AnchorPoint: "Anchor-1" 251 536 basechar 0
AnchorPoint: "Anchor-0" 251 0 basechar 0
LayerCount: 2
Fore
SplineSet
258 -10 m 0,0,1
 193 -10 193 -10 144 16.5 c 128,-1,2
 95 43 95 43 67.5 103.5 c 128,-1,3
 40 164 40 164 40 265 c 0,4,5
 40 373 40 373 68.5 435 c 128,-1,6
 97 497 97 497 146 522.5 c 128,-1,7
 195 548 195 548 255 548 c 0,8,9
 345 548 345 548 387 518 c 128,-1,10
 429 488 429 488 429 444 c 0,11,12
 429 422 429 422 420 404 c 128,-1,13
 411 386 411 386 386 375 c 128,-1,14
 361 364 361 364 314 364 c 1,15,16
 314 415 314 415 302.5 452.5 c 128,-1,17
 291 490 291 490 259 490 c 0,18,19
 234 490 234 490 216 470 c 128,-1,20
 198 450 198 450 188 401.5 c 128,-1,21
 178 353 178 353 178 266 c 0,22,23
 178 164 178 164 202.5 111.5 c 128,-1,24
 227 59 227 59 283 59 c 0,25,26
 327 59 327 59 358.5 83 c 128,-1,27
 390 107 390 107 405 141 c 1,28,29
 429 126 429 126 429 98 c 0,30,31
 429 74 429 74 412.5 49 c 128,-1,32
 396 24 396 24 359 7 c 128,-1,33
 322 -10 322 -10 258 -10 c 0,0,1
EndSplineSet
Substitution2: "'smcp' Lowercase to Small Capitals lookup 38 subtable" c.sc
Substitution2: "'aalt' Access All Alternates lookup 0 subtable" c.sc
EndChar

StartChar: d
Encoding: 100 100 71
Width: 568
GlyphClass: 2
Flags: W
AnchorPoint: "Anchor-3" 284 268 basechar 0
AnchorPoint: "Anchor-2" 542 760 basechar 0
AnchorPoint: "Anchor-1" 284 760 basechar 0
AnchorPoint: "Anchor-0" 284 0 basechar 0
LayerCount: 2
Fore
SplineSet
216 -10 m 0,0,1
 131 -10 131 -10 85 56.5 c 128,-1,2
 39 123 39 123 39 267 c 0,3,4
 39 412 39 412 85 479.5 c 128,-1,5
 131 547 131 547 215 547 c 0,6,7
 264 547 264 547 294 525 c 128,-1,8
 324 503 324 503 342 468 c 1,9,-1
 347 468 l 1,10,11
 345 493 345 493 344.5 523.5 c 128,-1,12
 344 554 344 554 344 581 c 2,13,-1
 344 646 l 2,14,15
 344 688 344 688 323 699 c 128,-1,16
 302 710 302 710 274 710 c 2,17,-1
 266 710 l 1,18,-1
 266 760 l 1,19,-1
 480 760 l 1,20,-1
 480 124 l 2,21,22
 480 79 480 79 498.5 64.5 c 128,-1,23
 517 50 517 50 548 50 c 2,24,-1
 554 50 l 1,25,-1
 554 0 l 1,26,-1
 379 0 l 1,27,-1
 357 81 l 1,28,-1
 352 81 l 1,29,30
 332 39 332 39 300 14.5 c 128,-1,31
 268 -10 268 -10 216 -10 c 0,0,1
256 59 m 0,32,33
 305 59 305 59 324.5 113 c 128,-1,34
 344 167 344 167 344 268 c 0,35,36
 344 370 344 370 325 424.5 c 128,-1,37
 306 479 306 479 256 479 c 0,38,39
 214 479 214 479 195.5 424.5 c 128,-1,40
 177 370 177 370 177 267 c 0,41,42
 177 163 177 163 195.5 111 c 128,-1,43
 214 59 214 59 256 59 c 0,32,33
EndSplineSet
Substitution2: "'smcp' Lowercase to Small Capitals lookup 38 subtable" d.sc
Substitution2: "'aalt' Access All Alternates lookup 0 subtable" d.sc
EndChar

StartChar: e
Encoding: 101 101 72
Width: 500
GlyphClass: 2
Flags: W
AnchorPoint: "Anchor-2" 480 536 basechar 0
AnchorPoint: "Anchor-1" 260 536 basechar 0
AnchorPoint: "Anchor-0" 260 0 basechar 0
LayerCount: 2
Fore
SplineSet
268 -10 m 0,0,1
 155 -10 155 -10 97.5 62 c 128,-1,2
 40 134 40 134 40 264 c 0,3,4
 40 405 40 405 97 476.5 c 128,-1,5
 154 548 154 548 258 548 c 0,6,7
 354 548 354 548 409 486.5 c 128,-1,8
 464 425 464 425 464 307 c 2,9,-1
 464 259 l 1,10,-1
 178 259 l 1,11,12
 180 155 180 155 210.5 107 c 128,-1,13
 241 59 241 59 299 59 c 0,14,15
 344 59 344 59 372.5 83.5 c 128,-1,16
 401 108 401 108 417 143 c 1,17,18
 429 138 429 138 437 127 c 128,-1,19
 445 116 445 116 445 100 c 0,20,21
 445 74 445 74 426.5 48.5 c 128,-1,22
 408 23 408 23 369 6.5 c 128,-1,23
 330 -10 330 -10 268 -10 c 0,0,1
180 319 m 1,24,-1
 328 319 l 1,25,26
 328 396 328 396 312.5 442 c 128,-1,27
 297 488 297 488 261 488 c 0,28,29
 224 488 224 488 202.5 444.5 c 128,-1,30
 181 401 181 401 180 319 c 1,24,-1
EndSplineSet
Substitution2: "'smcp' Lowercase to Small Capitals lookup 38 subtable" e.sc
Substitution2: "'aalt' Access All Alternates lookup 0 subtable" e.sc
EndChar

StartChar: f
Encoding: 102 102 73
Width: 357
GlyphClass: 2
Flags: W
AnchorPoint: "Anchor-2" 425 770 basechar 0
AnchorPoint: "Anchor-1" 250 770 basechar 0
AnchorPoint: "Anchor-0" 179 0 basechar 0
LayerCount: 2
Fore
SplineSet
16 0 m 1,0,-1
 16 50 l 1,1,-1
 36 50 l 2,2,3
 48 50 48 50 62.5 54.5 c 128,-1,4
 77 59 77 59 87 73 c 128,-1,5
 97 87 97 87 97 117 c 2,6,-1
 97 472 l 1,7,-1
 20 472 l 1,8,-1
 20 536 l 1,9,-1
 97 536 l 1,10,-1
 97 576 l 2,11,12
 97 668 97 668 140 719 c 128,-1,13
 183 770 183 770 278 770 c 0,14,15
 334 770 334 770 364.5 759.5 c 128,-1,16
 395 749 395 749 407 732.5 c 128,-1,17
 419 716 419 716 419 697 c 0,18,19
 419 668 419 668 396.5 650 c 128,-1,20
 374 632 374 632 319 632 c 1,21,22
 319 649 319 649 315.5 668 c 128,-1,23
 312 687 312 687 303 701 c 128,-1,24
 294 715 294 715 278 715 c 0,25,26
 255 715 255 715 244 686 c 128,-1,27
 233 657 233 657 233 592 c 2,28,-1
 233 536 l 1,29,-1
 353 536 l 1,30,-1
 353 472 l 1,31,-1
 233 472 l 1,32,-1
 233 117 l 2,33,34
 233 87 233 87 243 73 c 128,-1,35
 253 59 253 59 267 54.5 c 128,-1,36
 281 50 281 50 294 50 c 2,37,-1
 336 50 l 1,38,-1
 336 0 l 1,39,-1
 16 0 l 1,0,-1
EndSplineSet
Substitution2: "'smcp' Lowercase to Small Capitals lookup 38 subtable" f.sc
Substitution2: "'aalt' Access All Alternates lookup 0 subtable" f.sc
EndChar

StartChar: g
Encoding: 103 103 74
Width: 489
GlyphClass: 2
Flags: W
AnchorPoint: "Anchor-2" 488 536 basechar 0
AnchorPoint: "Anchor-1" 239 536 basechar 0
AnchorPoint: "Anchor-0" 244 -237 basechar 0
LayerCount: 2
Fore
SplineSet
205 -237 m 0,0,1
 102 -237 102 -237 51 -201 c 128,-1,2
 0 -165 0 -165 0 -98 c 0,3,4
 0 -44 0 -44 32.5 -13 c 128,-1,5
 65 18 65 18 118 24 c 1,6,7
 94 35 94 35 73 54 c 128,-1,8
 52 73 52 73 52 108 c 0,9,10
 52 140 52 140 75 164 c 128,-1,11
 98 188 98 188 133 210 c 1,12,13
 92 226 92 226 65 265.5 c 128,-1,14
 38 305 38 305 38 363 c 0,15,16
 38 451 38 451 83.5 499.5 c 128,-1,17
 129 548 129 548 226 548 c 0,18,19
 259 548 259 548 285 540 c 128,-1,20
 311 532 311 532 332 518 c 1,21,22
 352 540 352 540 374 557.5 c 128,-1,23
 396 575 396 575 427 575 c 0,24,25
 456 575 456 575 471 558.5 c 128,-1,26
 486 542 486 542 486 518 c 0,27,28
 486 495 486 495 473 478 c 128,-1,29
 460 461 460 461 426 461 c 1,30,31
 426 481 426 481 415.5 492 c 128,-1,32
 405 503 405 503 394 503 c 0,33,34
 385 503 385 503 377 499.5 c 128,-1,35
 369 496 369 496 363 492 c 1,36,37
 382 471 382 471 395.5 440 c 128,-1,38
 409 409 409 409 409 367 c 0,39,40
 409 289 409 289 365 239.5 c 128,-1,41
 321 190 321 190 226 190 c 0,42,43
 216 190 216 190 199.5 191 c 128,-1,44
 183 192 183 192 175 194 c 1,45,46
 164 187 164 187 154.5 172.5 c 128,-1,47
 145 158 145 158 145 140 c 0,48,49
 145 120 145 120 157.5 111.5 c 128,-1,50
 170 103 170 103 189 103 c 2,51,-1
 291 103 l 2,52,53
 378 103 378 103 419 62.5 c 128,-1,54
 460 22 460 22 460 -46 c 0,55,56
 460 -135 460 -135 397.5 -186 c 128,-1,57
 335 -237 335 -237 205 -237 c 0,0,1
223 245 m 0,58,59
 262 245 262 245 275 276.5 c 128,-1,60
 288 308 288 308 288 365 c 0,61,62
 288 424 288 424 274.5 458 c 128,-1,63
 261 492 261 492 224 492 c 256,64,65
 187 492 187 492 173 457 c 128,-1,66
 159 422 159 422 159 364 c 0,67,68
 159 309 159 309 173 277 c 128,-1,69
 187 245 187 245 223 245 c 0,58,59
208 -180 m 0,70,71
 283 -180 283 -180 318 -152 c 128,-1,72
 353 -124 353 -124 353 -76 c 0,73,74
 353 -12 353 -12 284 -12 c 2,75,-1
 182 -12 l 2,76,77
 165 -12 165 -12 147.5 -19 c 128,-1,78
 130 -26 130 -26 118 -44 c 128,-1,79
 106 -62 106 -62 106 -95 c 0,80,81
 106 -136 106 -136 133 -158 c 128,-1,82
 160 -180 160 -180 208 -180 c 0,70,71
EndSplineSet
Substitution2: "'smcp' Lowercase to Small Capitals lookup 38 subtable" g.sc
Substitution2: "'aalt' Access All Alternates lookup 0 subtable" g.sc
EndChar

StartChar: h
Encoding: 104 104 75
Width: 583
GlyphClass: 2
Flags: W
AnchorPoint: "Anchor-3" 291 268 basechar 0
AnchorPoint: "Anchor-2" 525 760 basechar 0
AnchorPoint: "Anchor-1" 291 760 basechar 0
AnchorPoint: "Anchor-0" 291 0 basechar 0
LayerCount: 2
Fore
SplineSet
17 0 m 1,0,-1
 17 50 l 1,1,-1
 21 50 l 2,2,3
 49 50 49 50 67.5 62 c 128,-1,4
 86 74 86 74 86 120 c 2,5,-1
 86 647 l 2,6,7
 86 675 86 675 75.5 688 c 128,-1,8
 65 701 65 701 51 705.5 c 128,-1,9
 37 710 37 710 26 710 c 2,10,-1
 14 710 l 1,11,-1
 14 760 l 1,12,-1
 223 760 l 1,13,-1
 223 577 l 2,14,15
 223 544 223 544 221 509.5 c 128,-1,16
 219 475 219 475 218 465 c 1,17,-1
 224 465 l 1,18,19
 243 505 243 505 274.5 526.5 c 128,-1,20
 306 548 306 548 357 548 c 0,21,22
 427 548 427 548 463.5 502 c 128,-1,23
 500 456 500 456 500 355 c 2,24,-1
 500 121 l 2,25,26
 500 75 500 75 514 62.5 c 128,-1,27
 528 50 528 50 558 50 c 2,28,-1
 560 50 l 1,29,-1
 560 0 l 1,30,-1
 364 0 l 1,31,-1
 364 333 l 2,32,33
 364 397 364 397 348.5 432.5 c 128,-1,34
 333 468 333 468 296 468 c 0,35,36
 268 468 268 468 252 447 c 128,-1,37
 236 426 236 426 229.5 390.5 c 128,-1,38
 223 355 223 355 223 312 c 2,39,-1
 224 116 l 2,40,41
 224 73 224 73 239.5 61.5 c 128,-1,42
 255 50 255 50 284 50 c 2,43,-1
 287 50 l 1,44,-1
 287 0 l 1,45,-1
 17 0 l 1,0,-1
EndSplineSet
Substitution2: "'smcp' Lowercase to Small Capitals lookup 38 subtable" h.sc
Substitution2: "'subs' Subscript lookup 21 subtable" uni2095
AlternateSubs2: "'aalt' Access All Alternates lookup 1 subtable" h.sc uni2095
EndChar

StartChar: i
Encoding: 105 105 76
Width: 309
GlyphClass: 2
Flags: W
AnchorPoint: "Anchor-2" 268 766 basechar 0
AnchorPoint: "Anchor-1" 151 766 basechar 0
AnchorPoint: "Anchor-0" 154 0 basechar 0
LayerCount: 2
Fore
SplineSet
149 630 m 256,0,1
 117 630 117 630 95.5 646.5 c 128,-1,2
 74 663 74 663 74 698 c 0,3,4
 74 734 74 734 95.5 750 c 128,-1,5
 117 766 117 766 149 766 c 256,6,7
 181 766 181 766 203.5 750 c 128,-1,8
 226 734 226 734 226 698 c 0,9,10
 226 663 226 663 203.5 646.5 c 128,-1,11
 181 630 181 630 149 630 c 256,0,1
14 0 m 1,12,-1
 14 50 l 1,13,-1
 24 50 l 2,14,15
 49 50 49 50 67.5 63.5 c 128,-1,16
 86 77 86 77 86 120 c 2,17,-1
 86 419 l 2,18,19
 86 460 86 460 68 473 c 128,-1,20
 50 486 50 486 26 486 c 2,21,-1
 14 486 l 1,22,-1
 14 536 l 1,23,-1
 222 536 l 1,24,-1
 222 121 l 2,25,26
 222 77 222 77 240.5 63.5 c 128,-1,27
 259 50 259 50 283 50 c 2,28,-1
 293 50 l 1,29,-1
 293 0 l 1,30,-1
 14 0 l 1,12,-1
EndSplineSet
Substitution2: "'smcp' Lowercase to Small Capitals lookup 38 subtable" i.sc
Substitution2: "Single Substitution lookup 5 subtable" dotlessi
Substitution2: "Single Substitution lookup 4 subtable" dotlessi
AlternateSubs2: "'aalt' Access All Alternates lookup 1 subtable" dotlessi i.sc
EndChar

StartChar: j
Encoding: 106 106 77
Width: 307
GlyphClass: 2
Flags: W
AnchorPoint: "Anchor-2" 275 766 basechar 0
AnchorPoint: "Anchor-1" 154 766 basechar 0
AnchorPoint: "Anchor-0" 105 -240 basechar 0
LayerCount: 2
Fore
SplineSet
154 630 m 0,0,1
 121 630 121 630 99 646.5 c 128,-1,2
 77 663 77 663 77 698 c 0,3,4
 77 734 77 734 99 750 c 128,-1,5
 121 766 121 766 154 766 c 0,6,7
 185 766 185 766 208 750 c 128,-1,8
 231 734 231 734 231 698 c 0,9,10
 231 663 231 663 208 646.5 c 128,-1,11
 185 630 185 630 154 630 c 0,0,1
-16 -240 m 1,12,-1
 -16 -181 l 1,13,-1
 -10 -181 l 2,14,15
 38 -181 38 -181 63.5 -143 c 128,-1,16
 89 -105 89 -105 89 -2 c 2,17,-1
 89 419 l 2,18,19
 89 462 89 462 69 474 c 128,-1,20
 49 486 49 486 21 486 c 2,21,-1
 17 486 l 1,22,-1
 17 536 l 1,23,-1
 225 536 l 1,24,-1
 225 -8 l 2,25,26
 225 -97 225 -97 196.5 -148 c 128,-1,27
 168 -199 168 -199 118 -219.5 c 128,-1,28
 68 -240 68 -240 2 -240 c 2,29,-1
 -16 -240 l 1,12,-1
EndSplineSet
Substitution2: "'smcp' Lowercase to Small Capitals lookup 38 subtable" j.sc
Substitution2: "Single Substitution lookup 5 subtable" uni0237
Substitution2: "Single Substitution lookup 4 subtable" uni0237
AlternateSubs2: "'aalt' Access All Alternates lookup 1 subtable" uni0237 j.sc
EndChar

StartChar: k
Encoding: 107 107 78
Width: 558
GlyphClass: 2
Flags: W
AnchorPoint: "Anchor-2" 542 760 basechar 0
AnchorPoint: "Anchor-1" 279 760 basechar 0
AnchorPoint: "Anchor-0" 279 0 basechar 0
LayerCount: 2
Fore
SplineSet
14 0 m 1,0,-1
 14 50 l 1,1,-1
 26 50 l 2,2,3
 38 50 38 50 52 54.5 c 128,-1,4
 66 59 66 59 76.5 73 c 128,-1,5
 87 87 87 87 87 117 c 2,6,-1
 87 647 l 2,7,8
 87 675 87 675 76.5 688 c 128,-1,9
 66 701 66 701 51.5 705.5 c 128,-1,10
 37 710 37 710 26 710 c 2,11,-1
 14 710 l 1,12,-1
 14 760 l 1,13,-1
 223 760 l 1,14,-1
 223 376 l 2,15,16
 223 358 223 358 222 333.5 c 128,-1,17
 221 309 221 309 220 289 c 128,-1,18
 219 269 219 269 219 265 c 1,19,-1
 326 407 l 2,20,21
 343 428 343 428 347 440.5 c 128,-1,22
 351 453 351 453 351 460 c 0,23,24
 351 488 351 488 306 488 c 1,25,-1
 306 536 l 1,26,-1
 526 536 l 1,27,-1
 526 488 l 1,28,29
 469 488 469 488 404 400 c 2,30,-1
 353 333 l 1,31,-1
 468 133 l 2,32,33
 492 92 492 92 512.5 71 c 128,-1,34
 533 50 533 50 554 50 c 2,35,-1
 558 50 l 1,36,-1
 558 0 l 1,37,-1
 545 0 l 2,38,39
 480 0 480 0 442.5 7 c 128,-1,40
 405 14 405 14 381 35 c 128,-1,41
 357 56 357 56 334 100 c 2,42,-1
 260 242 l 1,43,-1
 223 196 l 1,44,-1
 223 116 l 2,45,46
 223 87 223 87 233.5 73 c 128,-1,47
 244 59 244 59 258 54.5 c 128,-1,48
 272 50 272 50 284 50 c 2,49,-1
 295 50 l 1,50,-1
 295 0 l 1,51,-1
 14 0 l 1,0,-1
EndSplineSet
Substitution2: "'smcp' Lowercase to Small Capitals lookup 38 subtable" k.sc
Substitution2: "'subs' Subscript lookup 21 subtable" uni2096
AlternateSubs2: "'aalt' Access All Alternates lookup 1 subtable" k.sc uni2096
EndChar

StartChar: l
Encoding: 108 108 79
Width: 309
GlyphClass: 2
Flags: W
AnchorPoint: "Anchor-3" 155 268 basechar 0
AnchorPoint: "Anchor-2" 275 760 basechar 0
AnchorPoint: "Anchor-1" 155 760 basechar 0
AnchorPoint: "Anchor-0" 155 0 basechar 0
LayerCount: 2
Fore
SplineSet
15 0 m 1,0,-1
 15 50 l 1,1,-1
 26 50 l 2,2,3
 49 50 49 50 67.5 63.5 c 128,-1,4
 86 77 86 77 86 121 c 2,5,-1
 86 647 l 2,6,7
 86 675 86 675 75.5 688 c 128,-1,8
 65 701 65 701 51 705.5 c 128,-1,9
 37 710 37 710 26 710 c 2,10,-1
 15 710 l 1,11,-1
 15 760 l 1,12,-1
 223 760 l 1,13,-1
 223 121 l 2,14,15
 223 77 223 77 241 63.5 c 128,-1,16
 259 50 259 50 284 50 c 2,17,-1
 294 50 l 1,18,-1
 294 0 l 1,19,-1
 15 0 l 1,0,-1
EndSplineSet
Substitution2: "'smcp' Lowercase to Small Capitals lookup 38 subtable" l.sc
Substitution2: "'subs' Subscript lookup 21 subtable" uni2097
AlternateSubs2: "'aalt' Access All Alternates lookup 1 subtable" l.sc uni2097
EndChar

StartChar: m
Encoding: 109 109 80
Width: 861
GlyphClass: 2
Flags: W
AnchorPoint: "Anchor-2" 838 536 basechar 0
AnchorPoint: "Anchor-1" 431 536 basechar 0
AnchorPoint: "Anchor-0" 431 0 basechar 0
LayerCount: 2
Fore
SplineSet
17 0 m 1,0,-1
 17 50 l 1,1,-1
 22 50 l 2,2,3
 51 50 51 50 68.5 62 c 128,-1,4
 86 74 86 74 86 120 c 2,5,-1
 86 422 l 2,6,7
 86 465 86 465 69.5 476.5 c 128,-1,8
 53 488 53 488 24 488 c 2,9,-1
 21 488 l 1,10,-1
 21 536 l 1,11,-1
 207 536 l 1,12,-1
 219 462 l 1,13,-1
 224 462 l 1,14,15
 245 510 245 510 277 529 c 128,-1,16
 309 548 309 548 361 548 c 0,17,18
 407 548 407 548 440 528 c 128,-1,19
 473 508 473 508 488 460 c 1,20,-1
 494 460 l 1,21,22
 514 509 514 509 549 528.5 c 128,-1,23
 584 548 584 548 632 548 c 0,24,25
 701 548 701 548 740 502 c 128,-1,26
 779 456 779 456 779 355 c 2,27,-1
 779 121 l 2,28,29
 779 75 779 75 793 62.5 c 128,-1,30
 807 50 807 50 836 50 c 2,31,-1
 839 50 l 1,32,-1
 839 0 l 1,33,-1
 642 0 l 1,34,-1
 642 333 l 2,35,36
 642 397 642 397 627 432.5 c 128,-1,37
 612 468 612 468 575 468 c 0,38,39
 548 468 548 468 531.5 448 c 128,-1,40
 515 428 515 428 507.5 395.5 c 128,-1,41
 500 363 500 363 500 324 c 2,42,-1
 500 121 l 2,43,44
 500 75 500 75 514 62.5 c 128,-1,45
 528 50 528 50 557 50 c 2,46,-1
 561 50 l 1,47,-1
 561 0 l 1,48,-1
 364 0 l 1,49,-1
 364 333 l 2,50,51
 364 397 364 397 349.5 432.5 c 128,-1,52
 335 468 335 468 298 468 c 0,53,54
 271 468 271 468 254 446 c 128,-1,55
 237 424 237 424 230 388.5 c 128,-1,56
 223 353 223 353 223 312 c 2,57,-1
 223 116 l 2,58,59
 223 73 223 73 239 61.5 c 128,-1,60
 255 50 255 50 284 50 c 2,61,-1
 286 50 l 1,62,-1
 286 0 l 1,63,-1
 17 0 l 1,0,-1
EndSplineSet
Substitution2: "'smcp' Lowercase to Small Capitals lookup 38 subtable" m.sc
Substitution2: "'subs' Subscript lookup 21 subtable" uni2098
AlternateSubs2: "'aalt' Access All Alternates lookup 1 subtable" m.sc uni2098
EndChar

StartChar: n
Encoding: 110 110 81
Width: 582
GlyphClass: 2
Flags: W
AnchorPoint: "Anchor-2" 559 536 basechar 0
AnchorPoint: "Anchor-1" 291 536 basechar 0
AnchorPoint: "Anchor-0" 291 0 basechar 0
LayerCount: 2
Fore
SplineSet
17 0 m 1,0,-1
 17 50 l 1,1,-1
 21 50 l 2,2,3
 50 50 50 50 68 62 c 128,-1,4
 86 74 86 74 86 120 c 2,5,-1
 86 420 l 2,6,7
 86 463 86 463 69.5 474.5 c 128,-1,8
 53 486 53 486 25 486 c 2,9,-1
 21 486 l 1,10,-1
 21 536 l 1,11,-1
 208 536 l 1,12,-1
 219 462 l 1,13,-1
 223 462 l 1,14,15
 245 509 245 509 276 528.5 c 128,-1,16
 307 548 307 548 356 548 c 0,17,18
 425 548 425 548 462 502 c 128,-1,19
 499 456 499 456 499 355 c 2,20,-1
 499 121 l 2,21,22
 499 75 499 75 513 62.5 c 128,-1,23
 527 50 527 50 556 50 c 2,24,-1
 560 50 l 1,25,-1
 560 0 l 1,26,-1
 363 0 l 1,27,-1
 363 333 l 2,28,29
 363 397 363 397 349 433 c 128,-1,30
 335 469 335 469 298 469 c 0,31,32
 269 469 269 469 252.5 446.5 c 128,-1,33
 236 424 236 424 229 388 c 128,-1,34
 222 352 222 352 222 312 c 2,35,-1
 222 116 l 2,36,37
 222 73 222 73 238 61.5 c 128,-1,38
 254 50 254 50 283 50 c 2,39,-1
 286 50 l 1,40,-1
 286 0 l 1,41,-1
 17 0 l 1,0,-1
EndSplineSet
Substitution2: "'smcp' Lowercase to Small Capitals lookup 38 subtable" n.sc
Substitution2: "'sups' Superscript lookup 22 subtable" uni207F
Substitution2: "'subs' Subscript lookup 21 subtable" uni2099
AlternateSubs2: "'aalt' Access All Alternates lookup 1 subtable" uni207F n.sc uni2099
EndChar

StartChar: o
Encoding: 111 111 82
Width: 536
GlyphClass: 2
Flags: W
AnchorPoint: "Anchor-3" 269 268 basechar 0
AnchorPoint: "Anchor-2" 521 536 basechar 0
AnchorPoint: "Anchor-1" 269 536 basechar 0
AnchorPoint: "Anchor-0" 269 0 basechar 0
LayerCount: 2
Fore
SplineSet
267 -10 m 0,0,1
 161 -10 161 -10 100.5 59 c 128,-1,2
 40 128 40 128 40 269 c 256,3,4
 40 410 40 410 98 479 c 128,-1,5
 156 548 156 548 270 548 c 0,6,7
 375 548 375 548 435 479 c 128,-1,8
 495 410 495 410 495 269 c 0,9,10
 495 -10 495 -10 267 -10 c 0,0,1
269 50 m 256,11,12
 318 50 318 50 337 106 c 128,-1,13
 356 162 356 162 356 269 c 0,14,15
 356 378 356 378 336.5 432.5 c 128,-1,16
 317 487 317 487 268 487 c 256,17,18
 219 487 219 487 199.5 432.5 c 128,-1,19
 180 378 180 378 180 269 c 0,20,21
 180 162 180 162 200 106 c 128,-1,22
 220 50 220 50 269 50 c 256,11,12
EndSplineSet
Substitution2: "'smcp' Lowercase to Small Capitals lookup 38 subtable" o.sc
Substitution2: "Single Substitution lookup 32 subtable" ordmasculine
AlternateSubs2: "'aalt' Access All Alternates lookup 1 subtable" ordmasculine o.sc
EndChar

StartChar: p
Encoding: 112 112 83
Width: 564
GlyphClass: 2
Flags: W
AnchorPoint: "Anchor-2" 549 536 basechar 0
AnchorPoint: "Anchor-1" 282 536 basechar 0
AnchorPoint: "Anchor-0" 282 -233 basechar 0
LayerCount: 2
Fore
SplineSet
11 -233 m 1,0,-1
 11 -182 l 1,1,-1
 22 -182 l 2,2,3
 34 -182 34 -182 48 -177.5 c 128,-1,4
 62 -173 62 -173 72 -159 c 128,-1,5
 82 -145 82 -145 82 -116 c 2,6,-1
 82 416 l 2,7,8
 82 462 82 462 66.5 474 c 128,-1,9
 51 486 51 486 26 486 c 2,10,-1
 20 486 l 1,11,-1
 20 536 l 1,12,-1
 192 536 l 1,13,-1
 208 458 l 1,14,-1
 212 458 l 1,15,16
 231 496 231 496 262.5 521 c 128,-1,17
 294 546 294 546 345 546 c 0,18,19
 431 546 431 546 477 479 c 128,-1,20
 523 412 523 412 523 267 c 256,21,22
 523 122 523 122 477.5 55.5 c 128,-1,23
 432 -11 432 -11 345 -11 c 0,24,25
 298 -11 298 -11 268 9.5 c 128,-1,26
 238 30 238 30 220 66 c 1,27,-1
 215 66 l 1,28,29
 217 44 217 44 218 12 c 128,-1,30
 219 -20 219 -20 219 -49 c 2,31,-1
 219 -116 l 2,32,33
 219 -145 219 -145 229.5 -159 c 128,-1,34
 240 -173 240 -173 254 -177.5 c 128,-1,35
 268 -182 268 -182 280 -182 c 2,36,-1
 303 -182 l 1,37,-1
 303 -233 l 1,38,-1
 11 -233 l 1,0,-1
305 56 m 0,39,40
 348 56 348 56 366.5 109.5 c 128,-1,41
 385 163 385 163 385 267 c 0,42,43
 385 368 385 368 367 422.5 c 128,-1,44
 349 477 349 477 307 477 c 0,45,46
 255 477 255 477 237 422 c 128,-1,47
 219 367 219 367 219 268 c 0,48,49
 219 163 219 163 237 109.5 c 128,-1,50
 255 56 255 56 305 56 c 0,39,40
EndSplineSet
Substitution2: "'smcp' Lowercase to Small Capitals lookup 38 subtable" p.sc
Substitution2: "'subs' Subscript lookup 21 subtable" uni209A
AlternateSubs2: "'aalt' Access All Alternates lookup 1 subtable" p.sc uni209A
EndChar

StartChar: q
Encoding: 113 113 84
Width: 566
GlyphClass: 2
Flags: W
AnchorPoint: "Anchor-2" 561 536 basechar 0
AnchorPoint: "Anchor-1" 283 536 basechar 0
AnchorPoint: "Anchor-0" 283 -233 basechar 0
LayerCount: 2
Fore
SplineSet
253 -233 m 1,0,-1
 253 -182 l 1,1,-1
 274 -182 l 2,2,3
 302 -182 302 -182 323 -171 c 128,-1,4
 344 -160 344 -160 344 -118 c 2,5,-1
 344 -47 l 2,6,7
 344 -16 344 -16 345.5 18 c 128,-1,8
 347 52 347 52 349 74 c 1,9,-1
 344 74 l 1,10,11
 325 37 325 37 294.5 13.5 c 128,-1,12
 264 -10 264 -10 214 -10 c 0,13,14
 131 -10 131 -10 85 57 c 128,-1,15
 39 124 39 124 39 268 c 256,16,17
 39 412 39 412 86 479 c 128,-1,18
 133 546 133 546 221 546 c 0,19,20
 269 546 269 546 301.5 522 c 128,-1,21
 334 498 334 498 354 458 c 1,22,-1
 359 458 l 1,23,-1
 376 536 l 1,24,-1
 555 536 l 1,25,-1
 555 486 l 1,26,-1
 551 486 l 2,27,28
 522 486 522 486 501 473.5 c 128,-1,29
 480 461 480 461 480 415 c 2,30,-1
 480 -119 l 2,31,32
 480 -160 480 -160 501 -171 c 128,-1,33
 522 -182 522 -182 551 -182 c 2,34,-1
 558 -182 l 1,35,-1
 558 -233 l 1,36,-1
 253 -233 l 1,0,-1
256 58 m 0,37,38
 304 58 304 58 324 111 c 128,-1,39
 344 164 344 164 344 267 c 0,40,41
 344 372 344 372 325 424.5 c 128,-1,42
 306 477 306 477 256 477 c 0,43,44
 214 477 214 477 195.5 426 c 128,-1,45
 177 375 177 375 177 267 c 0,46,47
 177 164 177 164 195.5 111 c 128,-1,48
 214 58 214 58 256 58 c 0,37,38
EndSplineSet
Substitution2: "'smcp' Lowercase to Small Capitals lookup 38 subtable" q.sc
Substitution2: "'aalt' Access All Alternates lookup 0 subtable" q.sc
EndChar

StartChar: r
Encoding: 114 114 85
Width: 459
GlyphClass: 2
Flags: W
AnchorPoint: "Anchor-2" 451 536 basechar 0
AnchorPoint: "Anchor-1" 237 536 basechar 0
AnchorPoint: "Anchor-0" 164 0 basechar 0
LayerCount: 2
Fore
SplineSet
17 0 m 1,0,-1
 17 50 l 1,1,-1
 20 50 l 2,2,3
 49 50 49 50 67 62.5 c 128,-1,4
 85 75 85 75 85 122 c 2,5,-1
 85 418 l 2,6,7
 85 462 85 462 69 474 c 128,-1,8
 53 486 53 486 24 486 c 2,9,-1
 21 486 l 1,10,-1
 21 536 l 1,11,-1
 199 536 l 1,12,-1
 216 441 l 1,13,-1
 221 441 l 1,14,15
 239 491 239 491 268.5 519 c 128,-1,16
 298 547 298 547 351 547 c 0,17,18
 400 547 400 547 423 524 c 128,-1,19
 446 501 446 501 446 464 c 0,20,21
 446 421 446 421 416.5 399 c 128,-1,22
 387 377 387 377 334 377 c 1,23,24
 334 418 334 418 326 438.5 c 128,-1,25
 318 459 318 459 293 459 c 0,26,27
 274 459 274 459 260.5 442 c 128,-1,28
 247 425 247 425 238.5 398 c 128,-1,29
 230 371 230 371 226.5 340 c 128,-1,30
 223 309 223 309 223 281 c 2,31,-1
 223 117 l 2,32,33
 223 73 223 73 239.5 61.5 c 128,-1,34
 256 50 256 50 281 50 c 2,35,-1
 309 50 l 1,36,-1
 309 0 l 1,37,-1
 17 0 l 1,0,-1
EndSplineSet
Substitution2: "'smcp' Lowercase to Small Capitals lookup 38 subtable" r.sc
Substitution2: "'aalt' Access All Alternates lookup 0 subtable" r.sc
EndChar

StartChar: s
Encoding: 115 115 86
Width: 422
GlyphClass: 2
Flags: W
AnchorPoint: "Anchor-2" 399 536 basechar 0
AnchorPoint: "Anchor-1" 211 536 basechar 0
AnchorPoint: "Anchor-0" 211 0 basechar 0
LayerCount: 2
Fore
SplineSet
202 -10 m 0,0,1
 108 -10 108 -10 67.5 20.5 c 128,-1,2
 27 51 27 51 27 102 c 0,3,4
 27 144 27 144 52 159 c 128,-1,5
 77 174 77 174 106 174 c 1,6,7
 106 113 106 113 132.5 79.5 c 128,-1,8
 159 46 159 46 204 46 c 0,9,10
 248 46 248 46 267.5 67 c 128,-1,11
 287 88 287 88 287 121 c 256,12,13
 287 154 287 154 264 174.5 c 128,-1,14
 241 195 241 195 185 218 c 0,15,16
 109 250 109 250 72 287 c 128,-1,17
 35 324 35 324 35 393 c 0,18,19
 35 470 35 470 86.5 508.5 c 128,-1,20
 138 547 138 547 222 547 c 0,21,22
 303 547 303 547 339 518.5 c 128,-1,23
 375 490 375 490 375 453 c 0,24,25
 375 422 375 422 355 405 c 128,-1,26
 335 388 335 388 292 388 c 1,27,28
 292 439 292 439 269.5 465.5 c 128,-1,29
 247 492 247 492 210 492 c 0,30,31
 180 492 180 492 160.5 475 c 128,-1,32
 141 458 141 458 141 428 c 0,33,34
 141 404 141 404 150.5 388 c 128,-1,35
 160 372 160 372 184 358 c 128,-1,36
 208 344 208 344 250 327 c 0,37,38
 316 300 316 300 354.5 263.5 c 128,-1,39
 393 227 393 227 393 159 c 0,40,41
 393 81 393 81 343.5 35.5 c 128,-1,42
 294 -10 294 -10 202 -10 c 0,0,1
EndSplineSet
Substitution2: "'smcp' Lowercase to Small Capitals lookup 38 subtable" s.sc
Substitution2: "'subs' Subscript lookup 21 subtable" uni209B
AlternateSubs2: "'aalt' Access All Alternates lookup 1 subtable" s.sc uni209B
EndChar

StartChar: t
Encoding: 116 116 87
Width: 357
GlyphClass: 2
Flags: W
AnchorPoint: "Anchor-3" 179 268 basechar 0
AnchorPoint: "Anchor-2" 347 659 basechar 0
AnchorPoint: "Anchor-1" 168 659 basechar 0
AnchorPoint: "Anchor-0" 216 0 basechar 0
LayerCount: 2
Fore
SplineSet
217 -10 m 0,0,1
 154 -10 154 -10 118.5 25 c 128,-1,2
 83 60 83 60 83 147 c 2,3,-1
 83 475 l 1,4,-1
 18 475 l 1,5,-1
 18 520 l 1,6,7
 49 522 49 522 70.5 534 c 128,-1,8
 92 546 92 546 106 562 c 0,9,10
 118 578 118 578 128 600.5 c 128,-1,11
 138 623 138 623 145 659 c 1,12,-1
 220 659 l 1,13,-1
 220 536 l 1,14,-1
 331 536 l 1,15,-1
 331 475 l 1,16,-1
 220 475 l 1,17,-1
 220 156 l 2,18,19
 220 109 220 109 232.5 87.5 c 128,-1,20
 245 66 245 66 276 66 c 0,21,22
 310 66 310 66 340 75 c 1,23,-1
 340 13 l 1,24,25
 325 6 325 6 293.5 -2 c 128,-1,26
 262 -10 262 -10 217 -10 c 0,0,1
EndSplineSet
Substitution2: "'smcp' Lowercase to Small Capitals lookup 38 subtable" t.sc
Substitution2: "'subs' Subscript lookup 21 subtable" uni209C
AlternateSubs2: "'aalt' Access All Alternates lookup 1 subtable" t.sc uni209C
EndChar

StartChar: u
Encoding: 117 117 88
Width: 584
GlyphClass: 2
Flags: W
AnchorPoint: "Anchor-2" 552 536 basechar 0
AnchorPoint: "Anchor-1" 292 536 basechar 0
AnchorPoint: "Anchor-0" 292 0 basechar 0
LayerCount: 2
Fore
SplineSet
227 -10 m 0,0,1
 153 -10 153 -10 117.5 38 c 128,-1,2
 82 86 82 86 82 187 c 2,3,-1
 82 416 l 2,4,5
 82 459 82 459 69.5 472.5 c 128,-1,6
 57 486 57 486 25 486 c 2,7,-1
 23 486 l 1,8,-1
 23 536 l 1,9,-1
 219 536 l 1,10,-1
 219 210 l 2,11,12
 219 140 219 140 232 104.5 c 128,-1,13
 245 69 245 69 283 69 c 0,14,15
 324 69 324 69 342 111.5 c 128,-1,16
 360 154 360 154 360 224 c 2,17,-1
 360 420 l 2,18,19
 360 464 360 464 343.5 475 c 128,-1,20
 327 486 327 486 302 486 c 2,21,-1
 299 486 l 1,22,-1
 299 536 l 1,23,-1
 496 536 l 1,24,-1
 496 115 l 2,25,26
 496 71 496 71 512 60.5 c 128,-1,27
 528 50 528 50 554 50 c 2,28,-1
 561 50 l 1,29,-1
 561 0 l 1,30,-1
 385 0 l 1,31,-1
 365 74 l 1,32,-1
 361 74 l 1,33,34
 338 26 338 26 304.5 8 c 128,-1,35
 271 -10 271 -10 227 -10 c 0,0,1
EndSplineSet
Substitution2: "'smcp' Lowercase to Small Capitals lookup 38 subtable" u.sc
Substitution2: "'aalt' Access All Alternates lookup 0 subtable" u.sc
EndChar

StartChar: v
Encoding: 118 118 89
Width: 530
GlyphClass: 2
Flags: W
AnchorPoint: "Anchor-2" 532 536 basechar 0
AnchorPoint: "Anchor-1" 272 536 basechar 0
AnchorPoint: "Anchor-0" 272 0 basechar 0
LayerCount: 2
Fore
SplineSet
210 0 m 1,0,-1
 71 436 l 2,1,2
 61 466 61 466 46.5 476 c 128,-1,3
 32 486 32 486 4 486 c 1,4,-1
 4 536 l 1,5,-1
 273 536 l 1,6,-1
 273 486 l 1,7,-1
 245 486 l 2,8,9
 209 486 209 486 209 453 c 0,10,11
 209 441 209 441 211.5 428.5 c 128,-1,12
 214 416 214 416 217 406 c 2,13,-1
 275 219 l 2,14,15
 284 186 284 186 292 152 c 128,-1,16
 300 118 300 118 304 93 c 1,17,18
 308 114 308 114 314.5 143 c 128,-1,19
 321 172 321 172 330 200 c 2,20,-1
 385 393 l 2,21,22
 390 411 390 411 393.5 425.5 c 128,-1,23
 397 440 397 440 397 455 c 0,24,25
 397 486 397 486 358 486 c 2,26,-1
 340 486 l 1,27,-1
 340 536 l 1,28,-1
 530 536 l 1,29,-1
 530 486 l 1,30,-1
 512 486 l 2,31,32
 493 486 493 486 481 471.5 c 128,-1,33
 469 457 469 457 456 411 c 2,34,-1
 331 0 l 1,35,-1
 210 0 l 1,0,-1
EndSplineSet
Substitution2: "'smcp' Lowercase to Small Capitals lookup 38 subtable" v.sc
Substitution2: "'aalt' Access All Alternates lookup 0 subtable" v.sc
EndChar

StartChar: w
Encoding: 119 119 90
Width: 745
GlyphClass: 2
Flags: W
AnchorPoint: "Anchor-2" 750 536 basechar 0
AnchorPoint: "Anchor-1" 373 536 basechar 0
AnchorPoint: "Anchor-0" 373 0 basechar 0
LayerCount: 2
Fore
SplineSet
174 0 m 1,0,-1
 62 433 l 2,1,2
 53 465 53 465 39.5 475.5 c 128,-1,3
 26 486 26 486 0 486 c 2,4,-1
 -2 486 l 1,5,-1
 -2 536 l 1,6,-1
 255 536 l 1,7,-1
 255 486 l 1,8,-1
 245 486 l 2,9,10
 219 486 219 486 206 477.5 c 128,-1,11
 193 469 193 469 193 444 c 0,12,13
 193 436 193 436 195 423.5 c 128,-1,14
 197 411 197 411 200 400 c 2,15,-1
 230 262 l 2,16,17
 237 226 237 226 244.5 186 c 128,-1,18
 252 146 252 146 256 123 c 1,19,-1
 259 123 l 1,20,21
 262 147 262 147 269.5 179.5 c 128,-1,22
 277 212 277 212 286 243 c 2,23,-1
 375 532 l 1,24,-1
 432 532 l 1,25,-1
 515 237 l 2,26,27
 523 208 523 208 529.5 175 c 128,-1,28
 536 142 536 142 538 123 c 1,29,-1
 541 123 l 1,30,31
 544 146 544 146 549 173.5 c 128,-1,32
 554 201 554 201 563 237 c 2,33,-1
 601 387 l 2,34,35
 604 400 604 400 606.5 414.5 c 128,-1,36
 609 429 609 429 609 437 c 0,37,38
 609 486 609 486 553 486 c 2,39,-1
 547 486 l 1,40,-1
 547 536 l 1,41,-1
 746 536 l 1,42,-1
 746 486 l 1,43,-1
 735 486 l 2,44,45
 709 486 709 486 696 471.5 c 128,-1,46
 683 457 683 457 670 408 c 2,47,-1
 557 0 l 1,48,-1
 461 0 l 1,49,-1
 368 352 l 1,50,-1
 270 0 l 1,51,-1
 174 0 l 1,0,-1
EndSplineSet
Substitution2: "'smcp' Lowercase to Small Capitals lookup 38 subtable" w.sc
Substitution2: "'aalt' Access All Alternates lookup 0 subtable" w.sc
EndChar

StartChar: x
Encoding: 120 120 91
Width: 566
GlyphClass: 2
Flags: W
AnchorPoint: "Anchor-2" 546 536 basechar 0
AnchorPoint: "Anchor-1" 283 536 basechar 0
AnchorPoint: "Anchor-0" 283 0 basechar 0
LayerCount: 2
Fore
SplineSet
10 0 m 1,0,-1
 10 50 l 1,1,-1
 18 50 l 2,2,3
 49 50 49 50 67.5 63.5 c 128,-1,4
 86 77 86 77 112 114 c 2,5,-1
 221 270 l 1,6,-1
 112 433 l 2,7,8
 75 486 75 486 37 486 c 2,9,-1
 26 486 l 1,10,-1
 26 536 l 1,11,-1
 301 536 l 1,12,-1
 301 486 l 1,13,-1
 298 486 l 2,14,15
 270 486 270 486 260.5 477.5 c 128,-1,16
 251 469 251 469 251 457 c 0,17,18
 251 446 251 446 256 436 c 128,-1,19
 261 426 261 426 271 411 c 2,20,-1
 320 337 l 1,21,-1
 360 400 l 2,22,23
 369 416 369 416 376 429 c 128,-1,24
 383 442 383 442 383 456 c 0,25,26
 383 474 383 474 371 480 c 128,-1,27
 359 486 359 486 340 486 c 2,28,-1
 336 486 l 1,29,-1
 336 536 l 1,30,-1
 536 536 l 1,31,-1
 536 486 l 1,32,-1
 529 486 l 2,33,34
 504 486 504 486 487 473.5 c 128,-1,35
 470 461 470 461 443 421 c 2,36,-1
 352 292 l 1,37,-1
 480 103 l 2,38,39
 499 75 499 75 516 62.5 c 128,-1,40
 533 50 533 50 549 50 c 2,41,-1
 561 50 l 1,42,-1
 561 0 l 1,43,-1
 280 0 l 1,44,-1
 280 50 l 1,45,-1
 284 50 l 2,46,47
 336 50 336 50 336 83 c 0,48,49
 336 94 336 94 330 108 c 128,-1,50
 324 122 324 122 303 152 c 2,51,-1
 254 227 l 1,52,-1
 196 136 l 2,53,54
 187 123 187 123 181.5 110 c 128,-1,55
 176 97 176 97 176 84 c 0,56,57
 176 67 176 67 188 58.5 c 128,-1,58
 200 50 200 50 229 50 c 2,59,-1
 231 50 l 1,60,-1
 231 0 l 1,61,-1
 10 0 l 1,0,-1
EndSplineSet
Substitution2: "'smcp' Lowercase to Small Capitals lookup 38 subtable" x.sc
Substitution2: "'aalt' Access All Alternates lookup 0 subtable" x.sc
EndChar

StartChar: y
Encoding: 121 121 92
Width: 505
GlyphClass: 2
Flags: W
AnchorPoint: "Anchor-2" 510 536 basechar 0
AnchorPoint: "Anchor-1" 253 536 basechar 0
AnchorPoint: "Anchor-0" 134 -233 basechar 0
LayerCount: 2
Fore
SplineSet
23 -233 m 1,0,-1
 23 -177 l 1,1,2
 83 -177 83 -177 119.5 -156 c 128,-1,3
 156 -135 156 -135 178 -96.5 c 128,-1,4
 200 -58 200 -58 214 -6 c 1,5,-1
 59 436 l 2,6,7
 48 466 48 466 36 475 c 128,-1,8
 24 484 24 484 4 484 c 2,9,-1
 0 484 l 1,10,-1
 0 536 l 1,11,-1
 252 536 l 1,12,-1
 252 486 l 1,13,-1
 249 486 l 2,14,15
 197 486 197 486 197 451 c 0,16,17
 197 441 197 441 200.5 427.5 c 128,-1,18
 204 414 204 414 208 399 c 2,19,-1
 260 233 l 2,20,21
 273 193 273 193 279 162.5 c 128,-1,22
 285 132 285 132 288 111 c 1,23,24
 291 135 291 135 297 159 c 128,-1,25
 303 183 303 183 308 203 c 2,26,-1
 362 396 l 2,27,28
 366 407 366 407 369 422.5 c 128,-1,29
 372 438 372 438 372 450 c 0,30,31
 372 470 372 470 359 477 c 128,-1,32
 346 484 346 484 319 485 c 1,33,-1
 315 486 l 1,34,-1
 315 536 l 1,35,-1
 505 536 l 1,36,-1
 505 486 l 1,37,-1
 502 486 l 2,38,39
 478 486 478 486 463 471 c 128,-1,40
 448 456 448 456 435 414 c 2,41,-1
 304 4 l 2,42,43
 281 -68 281 -68 261 -114 c 128,-1,44
 241 -160 241 -160 214 -186 c 128,-1,45
 187 -212 187 -212 145.5 -222.5 c 128,-1,46
 104 -233 104 -233 38 -233 c 2,47,-1
 23 -233 l 1,0,-1
EndSplineSet
Substitution2: "'smcp' Lowercase to Small Capitals lookup 38 subtable" y.sc
Substitution2: "'aalt' Access All Alternates lookup 0 subtable" y.sc
EndChar

StartChar: z
Encoding: 122 122 93
Width: 461
GlyphClass: 2
Flags: W
AnchorPoint: "Anchor-2" 447 536 basechar 0
AnchorPoint: "Anchor-1" 231 536 basechar 0
AnchorPoint: "Anchor-0" 231 0 basechar 0
LayerCount: 2
Fore
SplineSet
14 0 m 1,0,-1
 14 40 l 1,1,-1
 273 475 l 1,2,-1
 161 475 l 2,3,4
 133 475 133 475 120 459 c 128,-1,5
 107 443 107 443 97 403 c 2,6,-1
 91 379 l 1,7,-1
 37 379 l 1,8,-1
 48 536 l 1,9,-1
 427 536 l 1,10,-1
 427 494 l 1,11,-1
 168 61 l 1,12,-1
 309 61 l 2,13,14
 342 61 342 61 357 79.5 c 128,-1,15
 372 98 372 98 379 144 c 2,16,-1
 385 177 l 1,17,-1
 437 177 l 1,18,-1
 432 0 l 1,19,-1
 14 0 l 1,0,-1
EndSplineSet
Substitution2: "'smcp' Lowercase to Small Capitals lookup 38 subtable" z.sc
Substitution2: "'aalt' Access All Alternates lookup 0 subtable" z.sc
EndChar

StartChar: braceleft
Encoding: 123 123 94
Width: 385
Flags: W
LayerCount: 2
Fore
SplineSet
276 -126 m 2,0,1
 202 -126 202 -126 164 -86.5 c 128,-1,2
 126 -47 126 -47 126 22 c 2,3,-1
 126 193 l 2,4,5
 126 232 126 232 112.5 252.5 c 128,-1,6
 99 273 99 273 76 281 c 128,-1,7
 53 289 53 289 24 290 c 1,8,-1
 24 346 l 1,9,10
 67 348 67 348 96.5 366.5 c 128,-1,11
 126 385 126 385 126 443 c 2,12,-1
 126 615 l 2,13,14
 126 684 126 684 164 722 c 128,-1,15
 202 760 202 760 276 760 c 2,16,-1
 361 760 l 1,17,-1
 361 710 l 1,18,-1
 326 710 l 2,19,20
 289 710 289 710 277 684.5 c 128,-1,21
 265 659 265 659 265 611 c 2,22,-1
 265 441 l 2,23,24
 265 394 265 394 242.5 364 c 128,-1,25
 220 334 220 334 170 322 c 1,26,-1
 170 316 l 1,27,28
 219 303 219 303 242 272.5 c 128,-1,29
 265 242 265 242 265 196 c 2,30,-1
 265 25 l 2,31,32
 265 -24 265 -24 277 -49.5 c 128,-1,33
 289 -75 289 -75 326 -75 c 2,34,-1
 361 -75 l 1,35,-1
 361 -126 l 1,36,-1
 276 -126 l 2,0,1
EndSplineSet
Substitution2: "'smcp' Lowercase to Small Capitals lookup 38 subtable" braceleft.sc
Substitution2: "'c2sc' Capitals to Small Capitals lookup 37 subtable" braceleft.sc
Substitution2: "'aalt' Access All Alternates lookup 0 subtable" braceleft.sc
EndChar

StartChar: bar
Encoding: 124 124 95
Width: 487
Flags: W
LayerCount: 2
Fore
SplineSet
211 -240 m 1,0,-1
 211 760 l 1,1,-1
 275 760 l 1,2,-1
 275 -240 l 1,3,-1
 211 -240 l 1,0,-1
EndSplineSet
EndChar

StartChar: braceright
Encoding: 125 125 96
Width: 385
Flags: W
LayerCount: 2
Fore
SplineSet
24 -126 m 1,0,-1
 24 -75 l 1,1,-1
 59 -75 l 2,2,3
 96 -75 96 -75 108 -49.5 c 128,-1,4
 120 -24 120 -24 120 25 c 2,5,-1
 120 196 l 2,6,7
 120 242 120 242 143 272.5 c 128,-1,8
 166 303 166 303 216 316 c 1,9,-1
 216 322 l 1,10,11
 165 334 165 334 142.5 364 c 128,-1,12
 120 394 120 394 120 441 c 2,13,-1
 120 611 l 2,14,15
 120 659 120 659 108 684.5 c 128,-1,16
 96 710 96 710 59 710 c 2,17,-1
 24 710 l 1,18,-1
 24 760 l 1,19,-1
 109 760 l 2,20,21
 183 760 183 760 221.5 722 c 128,-1,22
 260 684 260 684 260 615 c 2,23,-1
 260 443 l 2,24,25
 260 405 260 405 273.5 384 c 128,-1,26
 287 363 287 363 310 355 c 128,-1,27
 333 347 333 347 361 346 c 1,28,-1
 361 290 l 1,29,30
 333 289 333 289 310 281 c 128,-1,31
 287 273 287 273 273.5 252.5 c 128,-1,32
 260 232 260 232 260 193 c 2,33,-1
 260 22 l 2,34,35
 260 -47 260 -47 221.5 -86.5 c 128,-1,36
 183 -126 183 -126 109 -126 c 2,37,-1
 24 -126 l 1,0,-1
EndSplineSet
Substitution2: "'smcp' Lowercase to Small Capitals lookup 38 subtable" braceright.sc
Substitution2: "'c2sc' Capitals to Small Capitals lookup 37 subtable" braceright.sc
Substitution2: "'aalt' Access All Alternates lookup 0 subtable" braceright.sc
EndChar

StartChar: asciitilde
Encoding: 126 126 97
Width: 465
Flags: W
LayerCount: 2
Fore
SplineSet
27 263 m 1,0,1
 28 312 28 312 38.5 354.5 c 128,-1,2
 49 397 49 397 74 423.5 c 128,-1,3
 99 450 99 450 143 450 c 0,4,5
 173 450 173 450 197 434 c 128,-1,6
 221 418 221 418 256 383 c 0,7,8
 281 357 281 357 294 345 c 128,-1,9
 307 333 307 333 322 333 c 0,10,11
 346 333 346 333 358 360.5 c 128,-1,12
 370 388 370 388 372 450 c 1,13,-1
 439 450 l 1,14,15
 438 400 438 400 427 357.5 c 128,-1,16
 416 315 416 315 391.5 289 c 128,-1,17
 367 263 367 263 324 263 c 0,18,19
 299 263 299 263 275 275.5 c 128,-1,20
 251 288 251 288 214 328 c 0,21,22
 186 358 186 358 173 369.5 c 128,-1,23
 160 381 160 381 146 381 c 0,24,25
 121 381 121 381 108.5 353 c 128,-1,26
 96 325 96 325 94 263 c 1,27,-1
 27 263 l 1,0,1
EndSplineSet
EndChar

StartChar: cent
Encoding: 162 162 100
Width: 487
Flags: W
LayerCount: 2
Fore
SplineSet
245 0 m 1,0,-1
 245 84 l 1,1,2
 184 89 184 89 139.5 118 c 128,-1,3
 95 147 95 147 71 205.5 c 128,-1,4
 47 264 47 264 47 359 c 0,5,6
 47 458 47 458 72 518 c 128,-1,7
 97 578 97 578 142 607 c 128,-1,8
 187 636 187 636 245 641 c 1,9,-1
 245 714 l 1,10,-1
 300 714 l 1,11,-1
 300 641 l 1,12,13
 379 636 379 636 416.5 607 c 128,-1,14
 454 578 454 578 454 537 c 0,15,16
 454 517 454 517 446 498.5 c 128,-1,17
 438 480 438 480 414 468.5 c 128,-1,18
 390 457 390 457 344 457 c 1,19,20
 344 500 344 500 335 534 c 128,-1,21
 326 568 326 568 300 579 c 1,22,-1
 300 154 l 1,23,24
 344 154 344 154 376.5 179 c 128,-1,25
 409 204 409 204 424 237 c 1,26,27
 436 230 436 230 441.5 218 c 128,-1,28
 447 206 447 206 447 192 c 0,29,30
 447 169 447 169 430.5 145.5 c 128,-1,31
 414 122 414 122 381.5 105 c 128,-1,32
 349 88 349 88 300 84 c 1,33,-1
 300 0 l 1,34,-1
 245 0 l 1,0,-1
245 164 m 1,35,-1
 245 577 l 1,36,37
 215 564 215 564 199 514.5 c 128,-1,38
 183 465 183 465 183 360 c 0,39,40
 183 280 183 280 197.5 230.5 c 128,-1,41
 212 181 212 181 245 164 c 1,35,-1
EndSplineSet
EndChar

StartChar: sterling
Encoding: 163 163 101
Width: 487
Flags: W
LayerCount: 2
Fore
SplineSet
353 -10 m 0,0,1
 321 -10 321 -10 295 -2 c 128,-1,2
 269 6 269 6 249 13 c 0,3,4
 225 23 225 23 204 29 c 128,-1,5
 183 35 183 35 160 35 c 0,6,7
 133 35 133 35 109 26 c 128,-1,8
 85 17 85 17 62 5 c 2,9,-1
 36 -9 l 1,10,-1
 36 60 l 1,11,-1
 62 79 l 2,12,13
 87 96 87 96 112.5 134 c 128,-1,14
 138 172 138 172 138 232 c 0,15,16
 138 261 138 261 133 286 c 128,-1,17
 128 311 128 311 119 337 c 1,18,-1
 19 337 l 1,19,-1
 19 394 l 1,20,-1
 100 394 l 1,21,22
 91 422 91 422 82 460.5 c 128,-1,23
 73 499 73 499 73 538 c 0,24,25
 73 625 73 625 123.5 674.5 c 128,-1,26
 174 724 174 724 267 724 c 0,27,28
 361 724 361 724 401.5 690 c 128,-1,29
 442 656 442 656 442 607 c 0,30,31
 442 573 442 573 416 552.5 c 128,-1,32
 390 532 390 532 332 532 c 1,33,34
 332 565 332 565 326.5 595.5 c 128,-1,35
 321 626 321 626 306 646 c 128,-1,36
 291 666 291 666 262 666 c 0,37,38
 193 666 193 666 193 546 c 0,39,40
 193 504 193 504 202.5 462 c 128,-1,41
 212 420 212 420 221 394 c 1,42,-1
 375 394 l 1,43,-1
 375 337 l 1,44,-1
 238 338 l 1,45,46
 244 315 244 315 247 296 c 128,-1,47
 250 277 250 277 250 254 c 0,48,49
 250 215 250 215 228.5 178.5 c 128,-1,50
 207 142 207 142 170 113 c 1,51,-1
 172 109 l 1,52,53
 194 124 194 124 229 124 c 0,54,55
 247 124 247 124 265 118.5 c 128,-1,56
 283 113 283 113 304 106 c 0,57,58
 322 101 322 101 339.5 96 c 128,-1,59
 357 91 357 91 377 91 c 0,60,61
 403 91 403 91 426 106.5 c 128,-1,62
 449 122 449 122 466 148 c 1,63,-1
 466 60 l 1,64,65
 449 34 449 34 422.5 12 c 128,-1,66
 396 -10 396 -10 353 -10 c 0,0,1
EndSplineSet
EndChar

StartChar: currency
Encoding: 164 164 102
Width: 487
Flags: W
LayerCount: 2
Fore
SplineSet
102 145 m 1,0,-1
 58 194 l 1,1,-1
 107 254 l 1,2,3
 82 299 82 299 82 357 c 0,4,5
 82 417 82 417 110 461 c 1,6,-1
 58 523 l 1,7,-1
 102 571 l 1,8,-1
 154 509 l 1,9,10
 173 524 173 524 195 532.5 c 128,-1,11
 217 541 217 541 242 541 c 0,12,13
 289 541 289 541 329 508 c 1,14,-1
 383 572 l 1,15,-1
 427 523 l 1,16,-1
 374 459 l 1,17,18
 402 414 402 414 402 357 c 0,19,20
 402 328 402 328 395 302 c 128,-1,21
 388 276 388 276 376 254 c 1,22,-1
 427 193 l 1,23,-1
 383 145 l 1,24,-1
 332 206 l 1,25,26
 290 174 290 174 242 174 c 0,27,28
 191 174 191 174 153 205 c 1,29,-1
 102 145 l 1,0,-1
242 237 m 0,30,31
 285 237 285 237 313 272 c 128,-1,32
 341 307 341 307 341 357 c 256,33,34
 341 407 341 407 313 442 c 128,-1,35
 285 477 285 477 242 477 c 0,36,37
 200 477 200 477 171 442 c 128,-1,38
 142 407 142 407 142 357 c 256,39,40
 142 307 142 307 171 272 c 128,-1,41
 200 237 200 237 242 237 c 0,30,31
EndSplineSet
EndChar

StartChar: yen
Encoding: 165 165 103
Width: 487
Flags: W
LayerCount: 2
Fore
SplineSet
98 0 m 1,0,-1
 98 50 l 1,1,-1
 118 50 l 2,2,3
 147 50 147 50 163.5 63.5 c 128,-1,4
 180 77 180 77 181 116 c 2,5,-1
 181 166 l 1,6,-1
 59 166 l 1,7,-1
 59 222 l 1,8,-1
 181 222 l 1,9,-1
 181 285 l 1,10,-1
 59 285 l 1,11,-1
 59 341 l 1,12,-1
 166 341 l 1,13,-1
 60 611 l 2,14,15
 48 641 48 641 38 652.5 c 128,-1,16
 28 664 28 664 8 664 c 2,17,-1
 4 664 l 1,18,-1
 4 714 l 1,19,-1
 252 714 l 1,20,-1
 252 664 l 1,21,-1
 246 664 l 2,22,23
 198 664 198 664 198 626 c 0,24,25
 198 614 198 614 202 598.5 c 128,-1,26
 206 583 206 583 212 566 c 2,27,-1
 247 467 l 2,28,29
 257 436 257 436 265.5 407 c 128,-1,30
 274 378 274 378 277 358 c 1,31,32
 281 373 281 373 287.5 392 c 128,-1,33
 294 411 294 411 302 432 c 2,34,-1
 341 543 l 2,35,36
 350 568 350 568 355.5 588.5 c 128,-1,37
 361 609 361 609 361 625 c 0,38,39
 361 664 361 664 311 664 c 2,40,-1
 308 664 l 1,41,-1
 308 714 l 1,42,-1
 480 714 l 1,43,-1
 480 664 l 1,44,-1
 477 664 l 2,45,46
 457 664 457 664 445 648.5 c 128,-1,47
 433 633 433 633 416 587 c 2,48,-1
 321 341 l 1,49,-1
 437 341 l 1,50,-1
 437 285 l 1,51,-1
 314 285 l 1,52,-1
 314 222 l 1,53,-1
 437 222 l 1,54,-1
 437 166 l 1,55,-1
 314 166 l 1,56,-1
 314 119 l 2,57,58
 314 77 314 77 331 63.5 c 128,-1,59
 348 50 348 50 377 50 c 2,60,-1
 398 50 l 1,61,-1
 398 0 l 1,62,-1
 98 0 l 1,0,-1
EndSplineSet
EndChar

StartChar: brokenbar
Encoding: 166 166 104
Width: 487
Flags: W
LayerCount: 2
Fore
SplineSet
211 360 m 1,0,-1
 211 760 l 1,1,-1
 275 760 l 1,2,-1
 275 360 l 1,3,-1
 211 360 l 1,0,-1
211 -240 m 1,4,-1
 211 160 l 1,5,-1
 275 160 l 1,6,-1
 275 -240 l 1,7,-1
 211 -240 l 1,4,-1
EndSplineSet
EndChar

StartChar: section
Encoding: 167 167 105
Width: 474
Flags: W
LayerCount: 2
Fore
SplineSet
242 -114 m 0,0,1
 173 -114 173 -114 135.5 -95 c 128,-1,2
 98 -76 98 -76 83.5 -47.5 c 128,-1,3
 69 -19 69 -19 69 12 c 0,4,5
 69 51 69 51 90.5 70 c 128,-1,6
 112 89 112 89 148 89 c 1,7,8
 148 26 148 26 174.5 -18 c 128,-1,9
 201 -62 201 -62 253 -62 c 0,10,11
 293 -62 293 -62 316 -33.5 c 128,-1,12
 339 -5 339 -5 339 39 c 0,13,14
 339 66 339 66 328.5 87.5 c 128,-1,15
 318 109 318 109 287 133.5 c 128,-1,16
 256 158 256 158 193 195 c 0,17,18
 118 239 118 239 86.5 280.5 c 128,-1,19
 55 322 55 322 55 380 c 0,20,21
 55 414 55 414 71 441 c 128,-1,22
 87 468 87 468 112 484 c 1,23,24
 97 503 97 503 85.5 531.5 c 128,-1,25
 74 560 74 560 74 600 c 0,26,27
 74 676 74 676 123 718 c 128,-1,28
 172 760 172 760 248 760 c 0,29,30
 325 760 325 760 364.5 729 c 128,-1,31
 404 698 404 698 404 653 c 0,32,33
 404 624 404 624 382.5 603.5 c 128,-1,34
 361 583 361 583 321 583 c 1,35,36
 321 612 321 612 314.5 640.5 c 128,-1,37
 308 669 308 669 291 688 c 128,-1,38
 274 707 274 707 244 707 c 0,39,40
 207 707 207 707 185 682 c 128,-1,41
 163 657 163 657 163 612 c 0,42,43
 163 563 163 563 188 538.5 c 128,-1,44
 213 514 213 514 261 488 c 0,45,46
 324 454 324 454 363.5 425 c 128,-1,47
 403 396 403 396 421.5 364.5 c 128,-1,48
 440 333 440 333 440 291 c 0,49,50
 440 254 440 254 424 221.5 c 128,-1,51
 408 189 408 189 385 171 c 1,52,53
 416 128 416 128 416 64 c 0,54,55
 416 -12 416 -12 371 -63 c 128,-1,56
 326 -114 326 -114 242 -114 c 0,0,1
344 207 m 1,57,58
 348 216 348 216 351 230 c 128,-1,59
 354 244 354 244 354 260 c 0,60,61
 354 294 354 294 333 323.5 c 128,-1,62
 312 353 312 353 248 390 c 0,63,64
 220 406 220 406 194.5 421.5 c 128,-1,65
 169 437 169 437 148 453 c 1,66,67
 134 435 134 435 134 402 c 0,68,69
 134 375 134 375 145.5 355 c 128,-1,70
 157 335 157 335 184 314.5 c 128,-1,71
 211 294 211 294 257 267 c 0,72,73
 288 248 288 248 308.5 233 c 128,-1,74
 329 218 329 218 344 207 c 1,57,58
EndSplineSet
EndChar

StartChar: dieresis
Encoding: 168 168 106
Width: 503
Flags: W
LayerCount: 2
Fore
SplineSet
340 628 m 0,0,1
 317 628 317 628 300.5 642 c 128,-1,2
 284 656 284 656 284 689 c 0,3,4
 284 724 284 724 300.5 737.5 c 128,-1,5
 317 751 317 751 340 751 c 0,6,7
 360 751 360 751 377.5 737.5 c 128,-1,8
 395 724 395 724 395 689 c 0,9,10
 395 656 395 656 377.5 642 c 128,-1,11
 360 628 360 628 340 628 c 0,0,1
161 628 m 0,12,13
 140 628 140 628 123.5 642 c 128,-1,14
 107 656 107 656 107 689 c 0,15,16
 107 724 107 724 123.5 737.5 c 128,-1,17
 140 751 140 751 161 751 c 0,18,19
 183 751 183 751 200.5 737.5 c 128,-1,20
 218 724 218 724 218 689 c 0,21,22
 218 656 218 656 200.5 642 c 128,-1,23
 183 628 183 628 161 628 c 0,12,13
EndSplineSet
EndChar

StartChar: copyright
Encoding: 169 169 107
Width: 736
Flags: W
LayerCount: 2
Fore
SplineSet
368 -10 m 0,0,1
 270 -10 270 -10 199 38.5 c 128,-1,2
 128 87 128 87 89.5 170.5 c 128,-1,3
 51 254 51 254 51 358 c 0,4,5
 51 463 51 463 90 546 c 128,-1,6
 129 629 129 629 200 677 c 128,-1,7
 271 725 271 725 369 725 c 0,8,9
 466 725 466 725 537 677 c 128,-1,10
 608 629 608 629 646.5 546 c 128,-1,11
 685 463 685 463 685 358 c 0,12,13
 685 252 685 252 646.5 169 c 128,-1,14
 608 86 608 86 536.5 38 c 128,-1,15
 465 -10 465 -10 368 -10 c 0,0,1
371 41 m 256,16,17
 452 41 452 41 510 81.5 c 128,-1,18
 568 122 568 122 599 193.5 c 128,-1,19
 630 265 630 265 630 358 c 256,20,21
 630 451 630 451 598.5 522.5 c 128,-1,22
 567 594 567 594 508.5 634 c 128,-1,23
 450 674 450 674 369 674 c 256,24,25
 288 674 288 674 228.5 633.5 c 128,-1,26
 169 593 169 593 137 522 c 128,-1,27
 105 451 105 451 105 358 c 0,28,29
 105 264 105 264 138 192.5 c 128,-1,30
 171 121 171 121 230.5 81 c 128,-1,31
 290 41 290 41 371 41 c 256,16,17
374 111 m 0,32,33
 286 111 286 111 237.5 176.5 c 128,-1,34
 189 242 189 242 189 362 c 0,35,36
 189 475 189 475 236.5 539 c 128,-1,37
 284 603 284 603 380 603 c 0,38,39
 451 603 451 603 483.5 572 c 128,-1,40
 516 541 516 541 516 506 c 0,41,42
 516 482 516 482 501.5 470.5 c 128,-1,43
 487 459 487 459 467 459 c 1,44,45
 467 484 467 484 459.5 506.5 c 128,-1,46
 452 529 452 529 433 543.5 c 128,-1,47
 414 558 414 558 380 558 c 0,48,49
 314 558 314 558 285.5 506.5 c 128,-1,50
 257 455 257 455 257 364 c 0,51,52
 257 263 257 263 289 209.5 c 128,-1,53
 321 156 321 156 380 156 c 0,54,55
 424 156 424 156 450 180 c 128,-1,56
 476 204 476 204 489 237 c 1,57,58
 501 232 501 232 506.5 225.5 c 128,-1,59
 512 219 512 219 512 207 c 0,60,61
 512 186 512 186 496.5 164 c 128,-1,62
 481 142 481 142 450.5 126.5 c 128,-1,63
 420 111 420 111 374 111 c 0,32,33
EndSplineSet
EndChar

StartChar: ordfeminine
Encoding: 170 170 108
Width: 368
GlyphClass: 2
Flags: W
AnchorPoint: "Anchor-1" 177 719 basechar 0
AnchorPoint: "Anchor-0" 171 386 basechar 0
LayerCount: 2
Fore
SplineSet
120 380 m 0,0,1
 76 380 76 380 51 405.5 c 128,-1,2
 26 431 26 431 26 478 c 0,3,4
 26 528 26 528 61.5 553 c 128,-1,5
 97 578 97 578 171 582 c 2,6,-1
 214 584 l 1,7,-1
 214 613 l 2,8,9
 214 642 214 642 206.5 661 c 128,-1,10
 199 680 199 680 175 680 c 0,11,12
 149 680 149 680 142.5 660 c 128,-1,13
 136 640 136 640 136 613 c 1,14,15
 91 613 91 613 69.5 620.5 c 128,-1,16
 48 628 48 628 48 650 c 0,17,18
 48 683 48 683 83.5 701 c 128,-1,19
 119 719 119 719 179 719 c 0,20,21
 245 719 245 719 278 694.5 c 128,-1,22
 311 670 311 670 311 613 c 2,23,-1
 311 466 l 2,24,25
 311 444 311 444 319.5 435.5 c 128,-1,26
 328 427 328 427 349 427 c 1,27,-1
 349 386 l 1,28,-1
 245 386 l 1,29,-1
 227 438 l 1,30,-1
 220 438 l 1,31,32
 204 414 204 414 180 397 c 128,-1,33
 156 380 156 380 120 380 c 0,0,1
159 433 m 0,34,35
 186 433 186 433 200 453 c 128,-1,36
 214 473 214 473 214 506 c 2,37,-1
 214 548 l 1,38,-1
 192 547 l 2,39,40
 154 546 154 546 139 529.5 c 128,-1,41
 124 513 124 513 124 482 c 0,42,43
 124 455 124 455 134 444 c 128,-1,44
 144 433 144 433 159 433 c 0,34,35
EndSplineSet
EndChar

StartChar: guillemotleft
Encoding: 171 171 109
Width: 485
Flags: W
LayerCount: 2
Fore
SplineSet
363 73 m 1,0,-1
 229 247 l 1,1,-1
 229 293 l 1,2,-1
 363 467 l 1,3,-1
 423 467 l 1,4,-1
 334 270 l 1,5,-1
 423 73 l 1,6,-1
 363 73 l 1,0,-1
195 73 m 1,7,-1
 62 247 l 1,8,-1
 62 293 l 1,9,-1
 195 467 l 1,10,-1
 256 467 l 1,11,-1
 167 270 l 1,12,-1
 256 73 l 1,13,-1
 195 73 l 1,7,-1
EndSplineSet
EndChar

StartChar: logicalnot
Encoding: 172 172 110
Width: 465
Flags: W
LayerCount: 2
Fore
SplineSet
353 138 m 1,0,-1
 353 323 l 1,1,-1
 46 323 l 1,2,-1
 46 392 l 1,3,-1
 419 392 l 1,4,-1
 419 138 l 1,5,-1
 353 138 l 1,0,-1
EndSplineSet
EndChar

StartChar: registered
Encoding: 174 174 112
Width: 736
Flags: W
LayerCount: 2
Fore
SplineSet
368 -10 m 0,0,1
 270 -10 270 -10 199 38.5 c 128,-1,2
 128 87 128 87 89.5 170.5 c 128,-1,3
 51 254 51 254 51 358 c 0,4,5
 51 463 51 463 90 546 c 128,-1,6
 129 629 129 629 200 677 c 128,-1,7
 271 725 271 725 369 725 c 0,8,9
 466 725 466 725 537 677 c 128,-1,10
 608 629 608 629 646.5 546 c 128,-1,11
 685 463 685 463 685 358 c 0,12,13
 685 252 685 252 646.5 169 c 128,-1,14
 608 86 608 86 536.5 38 c 128,-1,15
 465 -10 465 -10 368 -10 c 0,0,1
371 41 m 256,16,17
 452 41 452 41 510 81.5 c 128,-1,18
 568 122 568 122 599 193.5 c 128,-1,19
 630 265 630 265 630 358 c 256,20,21
 630 451 630 451 598.5 522.5 c 128,-1,22
 567 594 567 594 508.5 634 c 128,-1,23
 450 674 450 674 369 674 c 256,24,25
 288 674 288 674 228.5 633.5 c 128,-1,26
 169 593 169 593 137 522 c 128,-1,27
 105 451 105 451 105 358 c 0,28,29
 105 264 105 264 138 192.5 c 128,-1,30
 171 121 171 121 230.5 81 c 128,-1,31
 290 41 290 41 371 41 c 256,16,17
203 141 m 1,32,-1
 203 174 l 1,33,-1
 214 174 l 2,34,35
 231 174 231 174 244 179.5 c 128,-1,36
 257 185 257 185 257 209 c 2,37,-1
 257 504 l 2,38,39
 257 528 257 528 244 533.5 c 128,-1,40
 231 539 231 539 214 539 c 2,41,-1
 203 539 l 1,42,-1
 203 575 l 1,43,-1
 358 575 l 2,44,45
 508 575 508 575 508 454 c 0,46,47
 508 406 508 406 483.5 380 c 128,-1,48
 459 354 459 354 428 343 c 1,49,-1
 505 200 l 2,50,51
 514 183 514 183 523 178.5 c 128,-1,52
 532 174 532 174 553 174 c 1,53,-1
 553 141 l 1,54,-1
 464 141 l 1,55,-1
 368 328 l 1,56,-1
 320 328 l 1,57,-1
 320 209 l 2,58,59
 320 185 320 185 333 179.5 c 128,-1,60
 346 174 346 174 363 174 c 2,61,-1
 376 174 l 1,62,-1
 376 141 l 1,63,-1
 203 141 l 1,32,-1
320 368 m 1,64,-1
 357 368 l 2,65,66
 405 368 405 368 423.5 389 c 128,-1,67
 442 410 442 410 442 453 c 0,68,69
 442 498 442 498 422 516.5 c 128,-1,70
 402 535 402 535 354 535 c 2,71,-1
 320 535 l 1,72,-1
 320 368 l 1,64,-1
EndSplineSet
EndChar

StartChar: overscore
Encoding: 175 175 113
Width: 399
Flags: W
LayerCount: 2
Fore
SplineSet
-5 760 m 1,0,-1
 -5 819 l 1,1,-1
 403 819 l 1,2,-1
 403 760 l 1,3,-1
 -5 760 l 1,0,-1
EndSplineSet
Substitution2: "'smcp' Lowercase to Small Capitals lookup 38 subtable" overscore.sc
Substitution2: "'c2sc' Capitals to Small Capitals lookup 37 subtable" overscore.sc
Substitution2: "'aalt' Access All Alternates lookup 0 subtable" overscore.sc
EndChar

StartChar: degree
Encoding: 176 176 114
Width: 348
Flags: W
LayerCount: 2
Fore
SplineSet
173 427 m 0,0,1
 111 427 111 427 75.5 469.5 c 128,-1,2
 40 512 40 512 40 579 c 256,3,4
 40 646 40 646 75.5 688.5 c 128,-1,5
 111 731 111 731 173 731 c 0,6,7
 234 731 234 731 270.5 688.5 c 128,-1,8
 307 646 307 646 307 579 c 256,9,10
 307 512 307 512 270.5 469.5 c 128,-1,11
 234 427 234 427 173 427 c 0,0,1
175 480 m 0,12,13
 211 480 211 480 230.5 508.5 c 128,-1,14
 250 537 250 537 250 581 c 256,15,16
 250 625 250 625 230.5 652 c 128,-1,17
 211 679 211 679 175 679 c 0,18,19
 138 679 138 679 117.5 652 c 128,-1,20
 97 625 97 625 97 581 c 256,21,22
 97 537 97 537 117 508.5 c 128,-1,23
 137 480 137 480 175 480 c 0,12,13
EndSplineSet
EndChar

StartChar: plusminus
Encoding: 177 177 115
Width: 465
Flags: W
LayerCount: 2
Fore
SplineSet
197 143 m 1,0,-1
 197 323 l 1,1,-1
 46 323 l 1,2,-1
 46 392 l 1,3,-1
 197 392 l 1,4,-1
 197 572 l 1,5,-1
 267 572 l 1,6,-1
 267 392 l 1,7,-1
 419 392 l 1,8,-1
 419 323 l 1,9,-1
 267 323 l 1,10,-1
 267 143 l 1,11,-1
 197 143 l 1,0,-1
46 0 m 1,12,-1
 46 68 l 1,13,-1
 419 68 l 1,14,-1
 419 0 l 1,15,-1
 46 0 l 1,12,-1
EndSplineSet
EndChar

StartChar: uni00B2
Encoding: 178 178 116
Width: 348
Flags: W
LayerCount: 2
Fore
SplineSet
27 387 m 1,0,-1
 27 456 l 1,1,-1
 122 552 l 2,2,3
 166 596 166 596 186 631 c 128,-1,4
 206 666 206 666 206 711 c 0,5,6
 206 743 206 743 195 761.5 c 128,-1,7
 184 780 184 780 160 780 c 0,8,9
 130 780 130 780 120.5 753 c 128,-1,10
 111 726 111 726 111 687 c 1,11,12
 32 687 32 687 32 738 c 0,13,14
 32 774 32 774 65.5 799.5 c 128,-1,15
 99 825 99 825 167 825 c 0,16,17
 240 825 240 825 272.5 793.5 c 128,-1,18
 305 762 305 762 305 711 c 0,19,20
 305 678 305 678 292 651.5 c 128,-1,21
 279 625 279 625 247.5 595.5 c 128,-1,22
 216 566 216 566 161 523 c 1,23,-1
 96 464 l 1,24,-1
 244 464 l 2,25,26
 262 464 262 464 270 474 c 128,-1,27
 278 484 278 484 281 499 c 2,28,-1
 286 525 l 1,29,-1
 316 525 l 1,30,-1
 312 387 l 1,31,-1
 27 387 l 1,0,-1
EndSplineSet
EndChar

StartChar: uni00B3
Encoding: 179 179 117
Width: 348
Flags: W
LayerCount: 2
Fore
SplineSet
151 380 m 0,0,1
 85 380 85 380 53.5 404 c 128,-1,2
 22 428 22 428 22 465 c 0,3,4
 22 514 22 514 79 514 c 1,5,6
 79 478 79 478 95.5 453.5 c 128,-1,7
 112 429 112 429 146 429 c 0,8,9
 176 429 176 429 196.5 448 c 128,-1,10
 217 467 217 467 217 512 c 0,11,12
 217 546 217 546 198 566 c 128,-1,13
 179 586 179 586 133 586 c 2,14,-1
 102 586 l 1,15,-1
 102 632 l 1,16,-1
 133 632 l 2,17,18
 168 632 168 632 186 654.5 c 128,-1,19
 204 677 204 677 204 716 c 0,20,21
 204 780 204 780 158 780 c 0,22,23
 127 780 127 780 117.5 754.5 c 128,-1,24
 108 729 108 729 108 693 c 1,25,26
 73 693 73 693 53.5 702.5 c 128,-1,27
 34 712 34 712 34 737 c 0,28,29
 34 772 34 772 66.5 798 c 128,-1,30
 99 824 99 824 167 824 c 256,31,32
 235 824 235 824 269 797 c 128,-1,33
 303 770 303 770 303 724 c 0,34,35
 303 680 303 680 279 653.5 c 128,-1,36
 255 627 255 627 218 616 c 1,37,-1
 218 612 l 1,38,39
 258 605 258 605 288 582 c 128,-1,40
 318 559 318 559 318 510 c 0,41,42
 318 445 318 445 270 412.5 c 128,-1,43
 222 380 222 380 151 380 c 0,0,1
EndSplineSet
EndChar

StartChar: acute
Encoding: 180 180 118
Width: 307
Flags: W
LayerCount: 2
Fore
SplineSet
40 606 m 1,0,-1
 40 619 l 1,1,2
 60 651 60 651 86.5 691.5 c 128,-1,3
 113 732 113 732 127 766 c 1,4,-1
 267 766 l 1,5,-1
 267 756 l 1,6,7
 256 739 256 739 227 711 c 128,-1,8
 198 683 198 683 163.5 654 c 128,-1,9
 129 625 129 625 101 606 c 1,10,-1
 40 606 l 1,0,-1
EndSplineSet
EndChar

StartChar: uni00B5
Encoding: 181 181 119
Width: 582
Flags: W
LayerCount: 2
Fore
SplineSet
153 -240 m 0,0,1
 120 -240 120 -240 95 -212 c 128,-1,2
 70 -184 70 -184 70 -112 c 0,3,4
 70 -72 70 -72 72.5 -26 c 128,-1,5
 75 20 75 20 77.5 81 c 128,-1,6
 80 142 80 142 80 225 c 2,7,-1
 80 536 l 1,8,-1
 217 536 l 1,9,-1
 217 199 l 2,10,11
 217 143 217 143 231 106.5 c 128,-1,12
 245 70 245 70 282 70 c 0,13,14
 318 70 318 70 338.5 113 c 128,-1,15
 359 156 359 156 359 227 c 2,16,-1
 359 536 l 1,17,-1
 495 536 l 1,18,-1
 495 132 l 2,19,20
 495 87 495 87 508.5 68.5 c 128,-1,21
 522 50 522 50 555 50 c 2,22,-1
 563 50 l 1,23,-1
 563 0 l 1,24,-1
 486 0 l 2,25,26
 440 0 440 0 409 25 c 128,-1,27
 378 50 378 50 367 92 c 1,28,-1
 363 92 l 1,29,30
 342 47 342 47 315 18.5 c 128,-1,31
 288 -10 288 -10 242 -10 c 0,32,33
 207 -10 207 -10 180.5 6.5 c 128,-1,34
 154 23 154 23 137 53 c 1,35,36
 136 -46 136 -46 154 -99.5 c 128,-1,37
 172 -153 172 -153 235 -163 c 1,38,39
 235 -196 235 -196 213 -218 c 128,-1,40
 191 -240 191 -240 153 -240 c 0,0,1
EndSplineSet
EndChar

StartChar: paragraph
Encoding: 182 182 120
Width: 547
Flags: W
LayerCount: 2
Fore
SplineSet
147 -111 m 1,0,-1
 147 -61 l 1,1,-1
 158 -61 l 2,2,3
 188 -61 188 -61 209 -49 c 128,-1,4
 230 -37 230 -37 230 10 c 2,5,-1
 230 386 l 1,6,-1
 169 386 l 2,7,8
 117 386 117 386 88 413.5 c 128,-1,9
 59 441 59 441 46.5 485.5 c 128,-1,10
 34 530 34 530 34 582 c 0,11,12
 34 662 34 662 65 711 c 128,-1,13
 96 760 96 760 171 760 c 2,14,-1
 512 760 l 1,15,-1
 512 710 l 1,16,-1
 501 710 l 2,17,18
 471 710 471 710 450 697.5 c 128,-1,19
 429 685 429 685 429 638 c 2,20,-1
 429 10 l 2,21,22
 429 -37 429 -37 450 -49 c 128,-1,23
 471 -61 471 -61 501 -61 c 2,24,-1
 512 -61 l 1,25,-1
 512 -111 l 1,26,-1
 365 -111 l 1,27,-1
 365 701 l 1,28,-1
 293 701 l 1,29,-1
 293 -111 l 1,30,-1
 147 -111 l 1,0,-1
EndSplineSet
EndChar

StartChar: periodcentered
Encoding: 183 183 121
Width: 259
Flags: W
LayerCount: 2
Fore
SplineSet
130 280 m 0,0,1
 99 280 99 280 78 296.5 c 128,-1,2
 57 313 57 313 57 356 c 0,3,4
 57 398 57 398 78 414.5 c 128,-1,5
 99 431 99 431 130 431 c 0,6,7
 158 431 158 431 180 414.5 c 128,-1,8
 202 398 202 398 202 356 c 0,9,10
 202 313 202 313 180 296.5 c 128,-1,11
 158 280 158 280 130 280 c 0,0,1
EndSplineSet
EndChar

StartChar: cedilla
Encoding: 184 184 122
Width: 290
Flags: W
LayerCount: 2
Fore
SplineSet
118 -236 m 0,0,1
 105 -236 105 -236 81.5 -233.5 c 128,-1,2
 58 -231 58 -231 42 -226 c 1,3,-1
 42 -171 l 1,4,5
 76 -179 76 -179 101 -179 c 0,6,7
 127 -179 127 -179 141.5 -168.5 c 128,-1,8
 156 -158 156 -158 156 -130 c 0,9,10
 156 -101 156 -101 137.5 -91 c 128,-1,11
 119 -81 119 -81 90 -78 c 1,12,-1
 108 9 l 1,13,-1
 158 9 l 1,14,-1
 148 -35 l 1,15,16
 190 -40 190 -40 216 -63.5 c 128,-1,17
 242 -87 242 -87 242 -127 c 0,18,19
 242 -180 242 -180 207.5 -208 c 128,-1,20
 173 -236 173 -236 118 -236 c 0,0,1
EndSplineSet
EndChar

StartChar: uni00B9
Encoding: 185 185 123
Width: 348
Flags: W
LayerCount: 2
Fore
SplineSet
49 387 m 1,0,-1
 49 432 l 1,1,-1
 94 432 l 2,2,3
 110 432 110 432 122.5 440 c 128,-1,4
 135 448 135 448 135 474 c 2,5,-1
 135 753 l 1,6,7
 116 726 116 726 99.5 708 c 128,-1,8
 83 690 83 690 67 690 c 256,9,10
 51 690 51 690 41 703.5 c 128,-1,11
 31 717 31 717 31 739 c 1,12,13
 65 746 65 746 114 788 c 2,14,-1
 155 819 l 1,15,-1
 229 819 l 1,16,-1
 229 474 l 2,17,18
 229 448 229 448 240.5 440 c 128,-1,19
 252 432 252 432 269 432 c 2,20,-1
 308 432 l 1,21,-1
 308 387 l 1,22,-1
 49 387 l 1,0,-1
EndSplineSet
EndChar

StartChar: ordmasculine
Encoding: 186 186 124
Width: 382
GlyphClass: 2
Flags: W
AnchorPoint: "Anchor-1" 189 719 basechar 0
AnchorPoint: "Anchor-0" 187 383 basechar 0
LayerCount: 2
Fore
SplineSet
191 380 m 0,0,1
 115 380 115 380 73.5 422.5 c 128,-1,2
 32 465 32 465 32 550 c 0,3,4
 32 719 32 719 193 719 c 0,5,6
 266 719 266 719 308.5 677.5 c 128,-1,7
 351 636 351 636 351 550 c 0,8,9
 351 380 351 380 191 380 c 0,0,1
192 426 m 0,10,11
 224 426 224 426 237.5 457.5 c 128,-1,12
 251 489 251 489 251 550 c 0,13,14
 251 610 251 610 237 640.5 c 128,-1,15
 223 671 223 671 191 671 c 256,16,17
 159 671 159 671 145.5 640.5 c 128,-1,18
 132 610 132 610 132 550 c 0,19,20
 132 489 132 489 145.5 457.5 c 128,-1,21
 159 426 159 426 192 426 c 0,10,11
EndSplineSet
EndChar

StartChar: guillemotright
Encoding: 187 187 125
Width: 485
Flags: W
LayerCount: 2
Fore
SplineSet
234 73 m 1,0,-1
 323 270 l 1,1,-1
 234 467 l 1,2,-1
 295 467 l 1,3,-1
 428 293 l 1,4,-1
 428 247 l 1,5,-1
 295 73 l 1,6,-1
 234 73 l 1,0,-1
57 73 m 1,7,-1
 146 270 l 1,8,-1
 57 467 l 1,9,-1
 118 467 l 1,10,-1
 251 293 l 1,11,-1
 251 247 l 1,12,-1
 118 73 l 1,13,-1
 57 73 l 1,7,-1
EndSplineSet
EndChar

StartChar: Aring
Encoding: 197 197 135
Width: 659
GlyphClass: 2
Flags: W
AnchorPoint: "Anchor-1" 330 878 basechar 0
AnchorPoint: "Anchor-0" 330 0 basechar 0
LayerCount: 2
Fore
SplineSet
4 0 m 1,0,-1
 4 50 l 1,1,-1
 14 50 l 2,2,3
 37 50 37 50 53 64.5 c 128,-1,4
 69 79 69 79 83 125 c 2,5,-1
 263 682 l 1,6,7
 247 694 247 694 238 716 c 128,-1,8
 229 738 229 738 229 769 c 0,9,10
 229 823 229 823 259 850.5 c 128,-1,11
 289 878 289 878 333 878 c 256,12,13
 377 878 377 878 407 850.5 c 128,-1,14
 437 823 437 823 437 769 c 0,15,16
 437 710 437 710 404 682 c 1,17,-1
 577 118 l 2,18,19
 589 78 589 78 605.5 64 c 128,-1,20
 622 50 622 50 643 50 c 2,21,-1
 659 50 l 1,22,-1
 659 0 l 1,23,-1
 368 0 l 1,24,-1
 368 50 l 1,25,-1
 403 50 l 2,26,27
 415 50 415 50 427 59.5 c 128,-1,28
 439 69 439 69 439 88 c 0,29,30
 439 100 439 100 436 113.5 c 128,-1,31
 433 127 433 127 430 138 c 2,32,-1
 402 236 l 1,33,-1
 191 236 l 1,34,-1
 167 150 l 2,35,36
 164 138 164 138 159.5 120.5 c 128,-1,37
 155 103 155 103 155 90 c 0,38,39
 155 71 155 71 167.5 60.5 c 128,-1,40
 180 50 180 50 193 50 c 2,41,-1
 231 50 l 1,42,-1
 231 0 l 1,43,-1
 4 0 l 1,0,-1
333 713 m 0,44,45
 354 713 354 713 369 726 c 128,-1,46
 384 739 384 739 384 769 c 0,47,48
 384 801 384 801 368.5 814 c 128,-1,49
 353 827 353 827 333 827 c 0,50,51
 311 827 311 827 296 814 c 128,-1,52
 281 801 281 801 281 769 c 0,53,54
 281 740 281 740 295 726.5 c 128,-1,55
 309 713 309 713 333 713 c 0,44,45
209 295 m 1,56,-1
 383 295 l 1,57,-1
 338 464 l 2,58,59
 329 500 329 500 318.5 541.5 c 128,-1,60
 308 583 308 583 301 615 c 1,61,62
 294 587 294 587 281.5 545 c 128,-1,63
 269 503 269 503 260 471 c 2,64,-1
 209 295 l 1,56,-1
EndSplineSet
Substitution2: "'c2sc' Capitals to Small Capitals lookup 37 subtable" aring.sc
Substitution2: "'aalt' Access All Alternates lookup 0 subtable" aring.sc
EndChar

StartChar: AE
Encoding: 198 198 136
Width: 867
GlyphClass: 2
Flags: W
AnchorPoint: "Anchor-1" 434 714 basechar 0
AnchorPoint: "Anchor-0" 434 0 basechar 0
LayerCount: 2
Fore
SplineSet
0 0 m 1,0,-1
 0 50 l 1,1,-1
 10 50 l 2,2,3
 33 50 33 50 51 69 c 128,-1,4
 69 88 69 88 88 129 c 2,5,-1
 331 659 l 1,6,-1
 275 664 l 1,7,-1
 275 714 l 1,8,-1
 808 714 l 1,9,-1
 810 532 l 1,10,-1
 748 532 l 1,11,-1
 744 578 l 2,12,13
 741 614 741 614 727 635 c 128,-1,14
 713 656 713 656 681 656 c 2,15,-1
 542 656 l 1,16,-1
 542 402 l 1,17,-1
 750 402 l 1,18,-1
 750 344 l 1,19,-1
 542 344 l 1,20,-1
 542 58 l 1,21,-1
 706 58 l 2,22,23
 737 58 737 58 752 80.5 c 128,-1,24
 767 103 767 103 772 136 c 2,25,-1
 779 182 l 1,26,-1
 840 182 l 1,27,-1
 834 0 l 1,28,-1
 320 0 l 1,29,-1
 320 50 l 1,30,-1
 348 50 l 2,31,32
 374 50 374 50 388 64.5 c 128,-1,33
 402 79 402 79 402 116 c 2,34,-1
 402 232 l 1,35,-1
 201 232 l 1,36,-1
 165 142 l 2,37,38
 151 109 151 109 151 89 c 0,39,40
 151 50 151 50 203 50 c 2,41,-1
 218 50 l 1,42,-1
 218 0 l 1,43,-1
 0 0 l 1,0,-1
229 289 m 1,44,-1
 402 289 l 1,45,-1
 402 656 l 1,46,-1
 394 656 l 1,47,-1
 229 289 l 1,44,-1
EndSplineSet
Substitution2: "'c2sc' Capitals to Small Capitals lookup 37 subtable" ae.sc
Substitution2: "'aalt' Access All Alternates lookup 0 subtable" ae.sc
EndChar

StartChar: Eth
Encoding: 208 208 146
Width: 670
GlyphClass: 2
Flags: W
AnchorPoint: "Anchor-1" 336 714 basechar 0
AnchorPoint: "Anchor-0" 336 0 basechar 0
LayerCount: 2
Fore
SplineSet
24 0 m 1,0,-1
 24 50 l 1,1,-1
 60 50 l 2,2,3
 80 50 80 50 92.5 64 c 128,-1,4
 105 78 105 78 105 115 c 2,5,-1
 105 344 l 1,6,-1
 33 344 l 1,7,-1
 33 403 l 1,8,-1
 105 403 l 1,9,-1
 105 602 l 2,10,11
 105 639 105 639 91.5 651.5 c 128,-1,12
 78 664 78 664 56 664 c 2,13,-1
 24 664 l 1,14,-1
 24 714 l 1,15,-1
 313 714 l 2,16,17
 458 714 458 714 540.5 625.5 c 128,-1,18
 623 537 623 537 623 367 c 0,19,20
 623 258 623 258 588 175 c 128,-1,21
 553 92 553 92 484 46 c 128,-1,22
 415 0 415 0 313 0 c 2,23,-1
 24 0 l 1,0,-1
246 59 m 1,24,-1
 293 59 l 2,25,26
 381 59 381 59 426.5 141 c 128,-1,27
 472 223 472 223 472 367 c 0,28,29
 472 656 472 656 293 656 c 2,30,-1
 246 656 l 1,31,-1
 246 403 l 1,32,-1
 352 403 l 1,33,-1
 352 344 l 1,34,-1
 246 344 l 1,35,-1
 246 59 l 1,24,-1
EndSplineSet
Substitution2: "'c2sc' Capitals to Small Capitals lookup 37 subtable" eth.sc
Substitution2: "'aalt' Access All Alternates lookup 0 subtable" eth.sc
EndChar

StartChar: multiply
Encoding: 215 215 153
Width: 465
Flags: W
LayerCount: 2
Fore
SplineSet
102 159 m 1,0,-1
 52 203 l 1,1,-1
 188 359 l 1,2,-1
 52 514 l 1,3,-1
 103 558 l 1,4,-1
 233 410 l 1,5,-1
 362 557 l 1,6,-1
 412 513 l 1,7,-1
 277 359 l 1,8,-1
 412 204 l 1,9,-1
 363 160 l 1,10,-1
 233 308 l 1,11,-1
 102 159 l 1,0,-1
EndSplineSet
EndChar

StartChar: Oslash
Encoding: 216 216 154
Width: 688
GlyphClass: 2
Flags: W
AnchorPoint: "Anchor-1" 344 714 basechar 0
AnchorPoint: "Anchor-0" 344 0 basechar 0
LayerCount: 2
Fore
SplineSet
128 -40 m 1,0,-1
 168 45 l 1,1,2
 108 92 108 92 78 172.5 c 128,-1,3
 48 253 48 253 48 359 c 0,4,5
 48 470 48 470 80.5 552 c 128,-1,6
 113 634 113 634 179.5 679.5 c 128,-1,7
 246 725 246 725 346 725 c 0,8,9
 382 725 382 725 413.5 718 c 128,-1,10
 445 711 445 711 473 698 c 1,11,-1
 500 755 l 1,12,-1
 562 755 l 1,13,-1
 521 668 l 1,14,15
 579 622 579 622 609.5 542 c 128,-1,16
 640 462 640 462 640 358 c 0,17,18
 640 247 640 247 606 164.5 c 128,-1,19
 572 82 572 82 506 36 c 128,-1,20
 440 -10 440 -10 345 -10 c 0,21,22
 272 -10 272 -10 217 16 c 1,23,-1
 191 -40 l 1,24,-1
 128 -40 l 1,0,-1
223 163 m 1,25,-1
 436 619 l 1,26,27
 401 663 401 663 346 663 c 0,28,29
 266 663 266 663 232.5 582.5 c 128,-1,30
 199 502 199 502 199 358 c 0,31,32
 199 298 199 298 204.5 249 c 128,-1,33
 210 200 210 200 223 163 c 1,25,-1
345 52 m 0,34,35
 425 52 425 52 458 133 c 128,-1,36
 491 214 491 214 491 358 c 0,37,38
 491 418 491 418 485 467 c 128,-1,39
 479 516 479 516 467 552 c 1,40,-1
 254 96 l 1,41,42
 271 75 271 75 293 63.5 c 128,-1,43
 315 52 315 52 345 52 c 0,34,35
EndSplineSet
Substitution2: "'c2sc' Capitals to Small Capitals lookup 37 subtable" oslash.sc
Substitution2: "'aalt' Access All Alternates lookup 0 subtable" oslash.sc
EndChar

StartChar: Thorn
Encoding: 222 222 160
Width: 558
GlyphClass: 2
Flags: W
AnchorPoint: "Anchor-1" 279 714 basechar 0
AnchorPoint: "Anchor-0" 279 0 basechar 0
LayerCount: 2
Fore
SplineSet
24 0 m 1,0,-1
 24 50 l 1,1,-1
 60 50 l 2,2,3
 78 50 78 50 91.5 62.5 c 128,-1,4
 105 75 105 75 105 112 c 2,5,-1
 105 600 l 2,6,7
 105 639 105 639 91.5 651.5 c 128,-1,8
 78 664 78 664 60 664 c 2,9,-1
 24 664 l 1,10,-1
 24 714 l 1,11,-1
 331 714 l 1,12,-1
 331 664 l 1,13,-1
 294 664 l 2,14,15
 273 664 273 664 260 651.5 c 128,-1,16
 247 639 247 639 247 602 c 2,17,-1
 247 580 l 1,18,-1
 292 580 l 2,19,20
 415 580 415 580 473.5 524.5 c 128,-1,21
 532 469 532 469 532 371 c 0,22,23
 532 311 532 311 507 259.5 c 128,-1,24
 482 208 482 208 425 176.5 c 128,-1,25
 368 145 368 145 274 145 c 2,26,-1
 247 145 l 1,27,-1
 247 112 l 2,28,29
 247 76 247 76 261 63 c 128,-1,30
 275 50 275 50 294 50 c 2,31,-1
 331 50 l 1,32,-1
 331 0 l 1,33,-1
 24 0 l 1,0,-1
247 201 m 1,34,-1
 270 201 l 2,35,36
 330 201 330 201 356 238.5 c 128,-1,37
 382 276 382 276 382 367 c 0,38,39
 382 448 382 448 358.5 485.5 c 128,-1,40
 335 523 335 523 278 523 c 2,41,-1
 247 523 l 1,42,-1
 247 201 l 1,34,-1
EndSplineSet
Substitution2: "'c2sc' Capitals to Small Capitals lookup 37 subtable" thorn.sc
Substitution2: "'aalt' Access All Alternates lookup 0 subtable" thorn.sc
EndChar

StartChar: germandbls
Encoding: 223 223 161
Width: 619
GlyphClass: 2
Flags: W
AnchorPoint: "Anchor-1" 310 769 basechar 0
AnchorPoint: "Anchor-0" 310 0 basechar 0
LayerCount: 2
Fore
SplineSet
411 -10 m 0,0,1
 333 -10 333 -10 294.5 23 c 128,-1,2
 256 56 256 56 256 106 c 0,3,4
 256 144 256 144 276 157.5 c 128,-1,5
 296 171 296 171 321 171 c 1,6,7
 329 114 329 114 351.5 79.5 c 128,-1,8
 374 45 374 45 414 45 c 0,9,10
 439 45 439 45 454.5 64.5 c 128,-1,11
 470 84 470 84 470 120 c 0,12,13
 470 155 470 155 451 181 c 128,-1,14
 432 207 432 207 382 235 c 0,15,16
 324 267 324 267 298.5 304.5 c 128,-1,17
 273 342 273 342 273 399 c 0,18,19
 273 469 273 469 313 503.5 c 128,-1,20
 353 538 353 538 413 543 c 1,21,22
 413 635 413 635 389 675 c 128,-1,23
 365 715 365 715 317 715 c 0,24,25
 273 715 273 715 247.5 680 c 128,-1,26
 222 645 222 645 222 574 c 2,27,-1
 222 0 l 1,28,-1
 4 0 l 1,29,-1
 4 50 l 1,30,-1
 45 50 l 2,31,32
 63 50 63 50 74.5 61.5 c 128,-1,33
 86 73 86 73 86 117 c 2,34,-1
 86 471 l 1,35,-1
 15 471 l 1,36,-1
 15 536 l 1,37,-1
 86 536 l 1,38,-1
 86 551 l 2,39,40
 86 632 86 632 116.5 679.5 c 128,-1,41
 147 727 147 727 199 748 c 128,-1,42
 251 769 251 769 316 769 c 0,43,44
 439 769 439 769 489 698.5 c 128,-1,45
 539 628 539 628 540 492 c 1,46,-1
 488 492 l 2,47,48
 443 492 443 492 416.5 475 c 128,-1,49
 390 458 390 458 390 419 c 0,50,51
 390 384 390 384 409.5 364 c 128,-1,52
 429 344 429 344 475 317 c 0,53,54
 527 286 527 286 556 246.5 c 128,-1,55
 585 207 585 207 585 152 c 0,56,57
 585 72 585 72 539 31 c 128,-1,58
 493 -10 493 -10 411 -10 c 0,0,1
EndSplineSet
Substitution2: "'smcp' Lowercase to Small Capitals lookup 38 subtable" germandbls.sc
Substitution2: "'aalt' Access All Alternates lookup 0 subtable" germandbls.sc
EndChar

StartChar: ae
Encoding: 230 230 168
Width: 764
GlyphClass: 2
Flags: W
AnchorPoint: "Anchor-1" 383 536 basechar 0
AnchorPoint: "Anchor-0" 383 0 basechar 0
LayerCount: 2
Fore
SplineSet
181 -10 m 0,0,1
 121 -10 121 -10 80 29 c 128,-1,2
 39 68 39 68 39 152 c 0,3,4
 39 233 39 233 87.5 272 c 128,-1,5
 136 311 136 311 233 315 c 2,6,-1
 305 318 l 1,7,-1
 305 373 l 2,8,9
 305 425 305 425 294 457.5 c 128,-1,10
 283 490 283 490 249 490 c 256,11,12
 215 490 215 490 202.5 459 c 128,-1,13
 190 428 190 428 190 381 c 1,14,15
 130 381 130 381 102.5 397 c 128,-1,16
 75 413 75 413 75 448 c 256,17,18
 75 483 75 483 99.5 505.5 c 128,-1,19
 124 528 124 528 164 538 c 128,-1,20
 204 548 204 548 251 548 c 0,21,22
 348 548 348 548 393 486 c 1,23,24
 418 515 418 515 452 531.5 c 128,-1,25
 486 548 486 548 530 548 c 0,26,27
 620 548 620 548 674 486.5 c 128,-1,28
 728 425 728 425 728 307 c 2,29,-1
 728 259 l 1,30,-1
 442 259 l 1,31,32
 444 157 444 157 474.5 108 c 128,-1,33
 505 59 505 59 563 59 c 0,34,35
 607 59 607 59 636 82.5 c 128,-1,36
 665 106 665 106 681 143 c 1,37,38
 693 138 693 138 701 126.5 c 128,-1,39
 709 115 709 115 709 100 c 0,40,41
 709 74 709 74 691 48.5 c 128,-1,42
 673 23 673 23 634 6.5 c 128,-1,43
 595 -10 595 -10 533 -10 c 0,44,45
 404 -10 404 -10 349 94 c 1,46,47
 323 48 323 48 281.5 19 c 128,-1,48
 240 -10 240 -10 181 -10 c 0,0,1
444 319 m 1,49,-1
 593 319 l 1,50,51
 593 397 593 397 577 442.5 c 128,-1,52
 561 488 561 488 525 488 c 256,53,54
 489 488 489 488 467 445 c 128,-1,55
 445 402 445 402 444 319 c 1,49,-1
226 57 m 0,56,57
 261 57 261 57 283.5 93.5 c 128,-1,58
 306 130 306 130 306 191 c 2,59,-1
 306 267 l 1,60,-1
 268 264 l 2,61,62
 217 261 217 261 197.5 232 c 128,-1,63
 178 203 178 203 178 148 c 0,64,65
 178 57 178 57 226 57 c 0,56,57
EndSplineSet
Substitution2: "'smcp' Lowercase to Small Capitals lookup 38 subtable" ae.sc
Substitution2: "'aalt' Access All Alternates lookup 0 subtable" ae.sc
EndChar

StartChar: eth
Encoding: 240 240 178
Width: 536
GlyphClass: 2
Flags: W
AnchorPoint: "Anchor-1" 269 762 basechar 0
AnchorPoint: "Anchor-0" 269 0 basechar 0
LayerCount: 2
Fore
SplineSet
266 -10 m 0,0,1
 160 -10 160 -10 100 57 c 128,-1,2
 40 124 40 124 40 254 c 0,3,4
 40 385 40 385 94 450.5 c 128,-1,5
 148 516 148 516 245 516 c 0,6,7
 277 516 277 516 303.5 506.5 c 128,-1,8
 330 497 330 497 345 483 c 1,9,10
 335 520 335 520 316.5 554.5 c 128,-1,11
 298 589 298 589 268 618 c 1,12,-1
 149 548 l 1,13,-1
 149 611 l 1,14,-1
 222 655 l 1,15,16
 200 671 200 671 175 682 c 128,-1,17
 150 693 150 693 124 699 c 1,18,-1
 124 761 l 1,19,20
 160 754 160 754 207 738 c 128,-1,21
 254 722 254 722 295 695 c 1,22,-1
 405 762 l 1,23,-1
 405 698 l 1,24,-1
 348 660 l 1,25,26
 415 601 415 601 455 507.5 c 128,-1,27
 495 414 495 414 495 288 c 0,28,29
 495 136 495 136 437 63 c 128,-1,30
 379 -10 379 -10 266 -10 c 0,0,1
269 50 m 0,31,32
 316 50 316 50 337 101.5 c 128,-1,33
 358 153 358 153 358 253 c 0,34,35
 358 355 358 355 337.5 404.5 c 128,-1,36
 317 454 317 454 268 454 c 256,37,38
 219 454 219 454 199.5 405.5 c 128,-1,39
 180 357 180 357 180 253 c 0,40,41
 180 153 180 153 200 101.5 c 128,-1,42
 220 50 220 50 269 50 c 0,31,32
EndSplineSet
Substitution2: "'smcp' Lowercase to Small Capitals lookup 38 subtable" eth.sc
Substitution2: "'aalt' Access All Alternates lookup 0 subtable" eth.sc
EndChar

StartChar: divide
Encoding: 247 247 185
Width: 465
Flags: W
LayerCount: 2
Fore
SplineSet
233 487 m 0,0,1
 211 487 211 487 196.5 500.5 c 128,-1,2
 182 514 182 514 182 547 c 256,3,4
 182 580 182 580 196.5 593.5 c 128,-1,5
 211 607 211 607 233 607 c 0,6,7
 254 607 254 607 269 593.5 c 128,-1,8
 284 580 284 580 284 547 c 256,9,10
 284 514 284 514 269 500.5 c 128,-1,11
 254 487 254 487 233 487 c 0,0,1
46 323 m 1,12,-1
 46 392 l 1,13,-1
 419 392 l 1,14,-1
 419 323 l 1,15,-1
 46 323 l 1,12,-1
233 108 m 0,16,17
 211 108 211 108 196.5 121.5 c 128,-1,18
 182 135 182 135 182 168 c 256,19,20
 182 201 182 201 196.5 214.5 c 128,-1,21
 211 228 211 228 233 228 c 0,22,23
 254 228 254 228 269 214.5 c 128,-1,24
 284 201 284 201 284 168 c 256,25,26
 284 135 284 135 269 121.5 c 128,-1,27
 254 108 254 108 233 108 c 0,16,17
EndSplineSet
EndChar

StartChar: oslash
Encoding: 248 248 186
Width: 536
GlyphClass: 2
Flags: W
AnchorPoint: "Anchor-1" 269 536 basechar 0
AnchorPoint: "Anchor-0" 269 0 basechar 0
LayerCount: 2
Fore
SplineSet
74 -40 m 1,0,-1
 118 44 l 1,1,2
 80 79 80 79 60 135 c 128,-1,3
 40 191 40 191 40 269 c 0,4,5
 40 410 40 410 98 479 c 128,-1,6
 156 548 156 548 270 548 c 0,7,8
 331 548 331 548 377 522 c 1,9,-1
 405 576 l 1,10,-1
 467 576 l 1,11,-1
 423 490 l 1,12,13
 457 456 457 456 476 401 c 128,-1,14
 495 346 495 346 495 269 c 0,15,16
 495 -10 495 -10 267 -10 c 0,17,18
 237 -10 237 -10 211.5 -4 c 128,-1,19
 186 2 186 2 164 13 c 1,20,-1
 137 -40 l 1,21,-1
 74 -40 l 1,0,-1
186 154 m 1,22,-1
 332 446 l 1,23,24
 311 487 311 487 268 487 c 0,25,26
 219 487 219 487 198.5 432.5 c 128,-1,27
 178 378 178 378 178 269 c 0,28,29
 178 235 178 235 180 206.5 c 128,-1,30
 182 178 182 178 186 154 c 1,22,-1
269 50 m 0,31,32
 317 50 317 50 337 105.5 c 128,-1,33
 357 161 357 161 357 269 c 0,34,35
 357 331 357 331 350 374 c 1,36,-1
 206 87 l 1,37,38
 228 50 228 50 269 50 c 0,31,32
EndSplineSet
Substitution2: "'smcp' Lowercase to Small Capitals lookup 38 subtable" oslash.sc
Substitution2: "'aalt' Access All Alternates lookup 0 subtable" oslash.sc
EndChar

StartChar: thorn
Encoding: 254 254 192
Width: 564
GlyphClass: 2
Flags: W
AnchorPoint: "Anchor-1" 282 760 basechar 0
AnchorPoint: "Anchor-0" 282 -240 basechar 0
LayerCount: 2
Fore
SplineSet
11 -240 m 1,0,-1
 11 -190 l 1,1,-1
 22 -190 l 2,2,3
 46 -190 46 -190 64 -177.5 c 128,-1,4
 82 -165 82 -165 82 -121 c 2,5,-1
 82 639 l 2,6,7
 82 685 82 685 66.5 697.5 c 128,-1,8
 51 710 51 710 27 710 c 2,9,-1
 21 710 l 1,10,-1
 21 760 l 1,11,-1
 219 760 l 1,12,-1
 219 573 l 2,13,14
 219 554 219 554 217.5 528.5 c 128,-1,15
 216 503 216 503 214.5 482 c 128,-1,16
 213 461 213 461 212 455 c 1,17,-1
 215 455 l 1,18,19
 233 496 233 496 263.5 521 c 128,-1,20
 294 546 294 546 345 546 c 0,21,22
 431 546 431 546 477 479 c 128,-1,23
 523 412 523 412 523 267 c 256,24,25
 523 122 523 122 478 55.5 c 128,-1,26
 433 -11 433 -11 348 -11 c 0,27,28
 298 -11 298 -11 268 10.5 c 128,-1,29
 238 32 238 32 219 72 c 1,30,-1
 214 72 l 1,31,32
 215 65 215 65 216 45 c 128,-1,33
 217 25 217 25 218 0 c 128,-1,34
 219 -25 219 -25 219 -49 c 2,35,-1
 219 -123 l 2,36,37
 219 -166 219 -166 237 -178 c 128,-1,38
 255 -190 255 -190 280 -190 c 2,39,-1
 299 -190 l 1,40,-1
 299 -240 l 1,41,-1
 11 -240 l 1,0,-1
305 56 m 0,42,43
 348 56 348 56 366.5 109.5 c 128,-1,44
 385 163 385 163 385 267 c 0,45,46
 385 368 385 368 367 422.5 c 128,-1,47
 349 477 349 477 307 477 c 0,48,49
 256 477 256 477 237.5 422 c 128,-1,50
 219 367 219 367 219 268 c 0,51,52
 219 163 219 163 237 109.5 c 128,-1,53
 255 56 255 56 305 56 c 0,42,43
EndSplineSet
Substitution2: "'smcp' Lowercase to Small Capitals lookup 38 subtable" thorn.sc
Substitution2: "'aalt' Access All Alternates lookup 0 subtable" thorn.sc
EndChar

StartChar: dcaron
Encoding: 271 271 209
Width: 568
GlyphClass: 2
Flags: W
AnchorPoint: "Anchor-3" 284 268 basechar 0
AnchorPoint: "Anchor-2" 542 760 basechar 0
AnchorPoint: "Anchor-1" 284 760 basechar 0
AnchorPoint: "Anchor-0" 284 0 basechar 0
LayerCount: 2
Fore
SplineSet
527 600 m 1,0,-1
 527 613 l 1,1,2
 536 644 536 644 546.5 685 c 128,-1,3
 557 726 557 726 562 760 c 1,4,-1
 665 760 l 1,5,-1
 665 750 l 1,6,7
 657 729 657 729 643 702 c 128,-1,8
 629 675 629 675 612.5 648 c 128,-1,9
 596 621 596 621 581 600 c 1,10,-1
 527 600 l 1,0,-1
216 -10 m 0,11,12
 131 -10 131 -10 85 56.5 c 128,-1,13
 39 123 39 123 39 267 c 0,14,15
 39 412 39 412 85 479.5 c 128,-1,16
 131 547 131 547 215 547 c 0,17,18
 264 547 264 547 294 525 c 128,-1,19
 324 503 324 503 342 468 c 1,20,-1
 347 468 l 1,21,22
 345 493 345 493 344.5 523.5 c 128,-1,23
 344 554 344 554 344 581 c 2,24,-1
 344 646 l 2,25,26
 344 688 344 688 323 699 c 128,-1,27
 302 710 302 710 274 710 c 2,28,-1
 266 710 l 1,29,-1
 266 760 l 1,30,-1
 480 760 l 1,31,-1
 480 124 l 2,32,33
 480 79 480 79 498.5 64.5 c 128,-1,34
 517 50 517 50 548 50 c 2,35,-1
 554 50 l 1,36,-1
 554 0 l 1,37,-1
 379 0 l 1,38,-1
 357 81 l 1,39,-1
 352 81 l 1,40,41
 332 39 332 39 300 14.5 c 128,-1,42
 268 -10 268 -10 216 -10 c 0,11,12
256 59 m 0,43,44
 305 59 305 59 324.5 113 c 128,-1,45
 344 167 344 167 344 268 c 0,46,47
 344 370 344 370 325 424.5 c 128,-1,48
 306 479 306 479 256 479 c 0,49,50
 214 479 214 479 195.5 424.5 c 128,-1,51
 177 370 177 370 177 267 c 0,52,53
 177 163 177 163 195.5 111 c 128,-1,54
 214 59 214 59 256 59 c 0,43,44
EndSplineSet
Substitution2: "'smcp' Lowercase to Small Capitals lookup 38 subtable" dcaron.sc
Substitution2: "'aalt' Access All Alternates lookup 0 subtable" dcaron.sc
EndChar

StartChar: dcroat
Encoding: 273 273 211
Width: 568
GlyphClass: 2
Flags: W
AnchorPoint: "Anchor-1" 284 760 basechar 0
AnchorPoint: "Anchor-0" 284 0 basechar 0
LayerCount: 2
Fore
SplineSet
217 -10 m 0,0,1
 131 -10 131 -10 85 54 c 128,-1,2
 39 118 39 118 39 253 c 256,3,4
 39 388 39 388 85 453.5 c 128,-1,5
 131 519 131 519 215 519 c 0,6,7
 264 519 264 519 294 497 c 128,-1,8
 324 475 324 475 342 440 c 1,9,-1
 347 440 l 1,10,11
 347 445 347 445 346 465.5 c 128,-1,12
 345 486 345 486 344.5 510.5 c 128,-1,13
 344 535 344 535 344 551 c 2,14,-1
 344 583 l 1,15,-1
 210 583 l 1,16,-1
 210 631 l 1,17,-1
 344 631 l 1,18,-1
 344 646 l 2,19,20
 344 688 344 688 323 699 c 128,-1,21
 302 710 302 710 274 710 c 2,22,-1
 266 710 l 1,23,-1
 266 760 l 1,24,-1
 480 760 l 1,25,-1
 480 631 l 1,26,-1
 555 631 l 1,27,-1
 555 583 l 1,28,-1
 480 583 l 1,29,-1
 480 124 l 2,30,31
 480 79 480 79 498.5 64.5 c 128,-1,32
 517 50 517 50 548 50 c 2,33,-1
 554 50 l 1,34,-1
 554 0 l 1,35,-1
 379 0 l 1,36,-1
 357 81 l 1,37,-1
 352 81 l 1,38,39
 332 39 332 39 300 14.5 c 128,-1,40
 268 -10 268 -10 217 -10 c 0,0,1
256 59 m 0,41,42
 306 59 306 59 325 110.5 c 128,-1,43
 344 162 344 162 344 254 c 256,44,45
 344 346 344 346 325 399 c 128,-1,46
 306 452 306 452 256 452 c 0,47,48
 214 452 214 452 195.5 400 c 128,-1,49
 177 348 177 348 177 253 c 0,50,51
 177 157 177 157 195.5 108 c 128,-1,52
 214 59 214 59 256 59 c 0,41,42
EndSplineSet
Substitution2: "'smcp' Lowercase to Small Capitals lookup 38 subtable" dcroat.sc
Substitution2: "'aalt' Access All Alternates lookup 0 subtable" dcroat.sc
EndChar

StartChar: eogonek
Encoding: 281 281 219
Width: 500
GlyphClass: 2
Flags: W
AnchorPoint: "Anchor-1" 250 536 basechar 0
AnchorPoint: "Anchor-0" 250 -236 basechar 0
LayerCount: 2
Fore
SplineSet
340 -236 m 0,0,1
 278 -236 278 -236 245 -211 c 128,-1,2
 212 -186 212 -186 212 -130 c 0,3,4
 212 -91 212 -91 234.5 -58.5 c 128,-1,5
 257 -26 257 -26 289 -9 c 1,6,7
 284 -10 284 -10 278.5 -10 c 128,-1,8
 273 -10 273 -10 268 -10 c 0,9,10
 155 -10 155 -10 97.5 62 c 128,-1,11
 40 134 40 134 40 264 c 0,12,13
 40 405 40 405 97 476.5 c 128,-1,14
 154 548 154 548 258 548 c 0,15,16
 354 548 354 548 409 486.5 c 128,-1,17
 464 425 464 425 464 307 c 2,18,-1
 464 259 l 1,19,-1
 178 259 l 1,20,21
 180 155 180 155 210.5 107 c 128,-1,22
 241 59 241 59 299 59 c 0,23,24
 344 59 344 59 372.5 83.5 c 128,-1,25
 401 108 401 108 417 143 c 1,26,27
 429 138 429 138 437 127 c 128,-1,28
 445 116 445 116 445 100 c 0,29,30
 445 75 445 75 428.5 50.5 c 128,-1,31
 412 26 412 26 376 10 c 1,32,33
 338 -17 338 -17 319 -46 c 128,-1,34
 300 -75 300 -75 300 -118 c 0,35,36
 300 -147 300 -147 317 -160 c 128,-1,37
 334 -173 334 -173 359 -173 c 256,38,39
 384 -173 384 -173 414 -163 c 1,40,-1
 414 -222 l 1,41,42
 401 -229 401 -229 378 -232.5 c 128,-1,43
 355 -236 355 -236 340 -236 c 0,0,1
180 319 m 1,44,-1
 328 319 l 1,45,46
 328 396 328 396 312.5 442 c 128,-1,47
 297 488 297 488 261 488 c 0,48,49
 224 488 224 488 202.5 444.5 c 128,-1,50
 181 401 181 401 180 319 c 1,44,-1
EndSplineSet
Substitution2: "'smcp' Lowercase to Small Capitals lookup 38 subtable" eogonek.sc
Substitution2: "'locl' Localized Forms in Latin lookup 9 subtable" eogonek.loclNAV
Ligature2: "'ccmp' Glyph Composition/Decomposition lookup 6 subtable" e uni0328
AlternateSubs2: "'aalt' Access All Alternates lookup 1 subtable" eogonek.loclNAV eogonek.sc
EndChar

StartChar: uni0123
Encoding: 291 291 229
Width: 489
GlyphClass: 2
Flags: W
AnchorPoint: "Anchor-2" 488 536 basechar 0
AnchorPoint: "Anchor-1" 244 766 basechar 0
AnchorPoint: "Anchor-0" 244 -237 basechar 0
LayerCount: 2
Fore
SplineSet
179 606 m 1,0,-1
 179 616 l 1,1,2
 187 637 187 637 201.5 664 c 128,-1,3
 216 691 216 691 232 718 c 128,-1,4
 248 745 248 745 263 766 c 1,5,-1
 316 766 l 1,6,-1
 316 753 l 1,7,8
 308 722 308 722 297.5 681 c 128,-1,9
 287 640 287 640 281 606 c 1,10,-1
 179 606 l 1,0,-1
205 -237 m 0,11,12
 102 -237 102 -237 51 -201 c 128,-1,13
 0 -165 0 -165 0 -98 c 0,14,15
 0 -44 0 -44 32.5 -13 c 128,-1,16
 65 18 65 18 118 24 c 1,17,18
 94 35 94 35 73 54 c 128,-1,19
 52 73 52 73 52 108 c 0,20,21
 52 140 52 140 75 164 c 128,-1,22
 98 188 98 188 133 210 c 1,23,24
 92 226 92 226 65 265.5 c 128,-1,25
 38 305 38 305 38 363 c 0,26,27
 38 451 38 451 83.5 499.5 c 128,-1,28
 129 548 129 548 226 548 c 0,29,30
 259 548 259 548 285 540 c 128,-1,31
 311 532 311 532 332 518 c 1,32,33
 352 540 352 540 374 557.5 c 128,-1,34
 396 575 396 575 427 575 c 0,35,36
 456 575 456 575 471 558.5 c 128,-1,37
 486 542 486 542 486 518 c 0,38,39
 486 495 486 495 473 478 c 128,-1,40
 460 461 460 461 426 461 c 1,41,42
 426 481 426 481 415.5 492 c 128,-1,43
 405 503 405 503 394 503 c 0,44,45
 385 503 385 503 377 499.5 c 128,-1,46
 369 496 369 496 363 492 c 1,47,48
 382 471 382 471 395.5 440 c 128,-1,49
 409 409 409 409 409 367 c 0,50,51
 409 289 409 289 365 239.5 c 128,-1,52
 321 190 321 190 226 190 c 0,53,54
 216 190 216 190 199.5 191 c 128,-1,55
 183 192 183 192 175 194 c 1,56,57
 164 187 164 187 154.5 172.5 c 128,-1,58
 145 158 145 158 145 140 c 0,59,60
 145 120 145 120 157.5 111.5 c 128,-1,61
 170 103 170 103 189 103 c 2,62,-1
 291 103 l 2,63,64
 378 103 378 103 419 62.5 c 128,-1,65
 460 22 460 22 460 -46 c 0,66,67
 460 -135 460 -135 397.5 -186 c 128,-1,68
 335 -237 335 -237 205 -237 c 0,11,12
223 245 m 0,69,70
 262 245 262 245 275 276.5 c 128,-1,71
 288 308 288 308 288 365 c 0,72,73
 288 424 288 424 274.5 458 c 128,-1,74
 261 492 261 492 224 492 c 256,75,76
 187 492 187 492 173 457 c 128,-1,77
 159 422 159 422 159 364 c 0,78,79
 159 309 159 309 173 277 c 128,-1,80
 187 245 187 245 223 245 c 0,69,70
208 -180 m 0,81,82
 283 -180 283 -180 318 -152 c 128,-1,83
 353 -124 353 -124 353 -76 c 0,84,85
 353 -12 353 -12 284 -12 c 2,86,-1
 182 -12 l 2,87,88
 165 -12 165 -12 147.5 -19 c 128,-1,89
 130 -26 130 -26 118 -44 c 128,-1,90
 106 -62 106 -62 106 -95 c 0,91,92
 106 -136 106 -136 133 -158 c 128,-1,93
 160 -180 160 -180 208 -180 c 0,81,82
EndSplineSet
Substitution2: "'smcp' Lowercase to Small Capitals lookup 38 subtable" uni0123.sc
Substitution2: "'aalt' Access All Alternates lookup 0 subtable" uni0123.sc
EndChar

StartChar: Hbar
Encoding: 294 294 232
Width: 715
GlyphClass: 2
Flags: W
AnchorPoint: "Anchor-1" 358 714 basechar 0
AnchorPoint: "Anchor-0" 358 0 basechar 0
LayerCount: 2
Fore
SplineSet
24 0 m 1,0,-1
 24 50 l 1,1,-1
 60 50 l 2,2,3
 79 50 79 50 92 63.5 c 128,-1,4
 105 77 105 77 105 113 c 2,5,-1
 105 500 l 1,6,-1
 15 500 l 1,7,-1
 15 551 l 1,8,-1
 105 551 l 1,9,-1
 105 602 l 2,10,11
 105 639 105 639 91 651.5 c 128,-1,12
 77 664 77 664 55 664 c 2,13,-1
 24 664 l 1,14,-1
 24 714 l 1,15,-1
 320 714 l 1,16,-1
 320 664 l 1,17,-1
 291 664 l 2,18,19
 271 664 271 664 259 651.5 c 128,-1,20
 247 639 247 639 247 602 c 2,21,-1
 247 551 l 1,22,-1
 469 551 l 1,23,-1
 469 600 l 2,24,25
 469 639 469 639 457 651.5 c 128,-1,26
 445 664 445 664 423 664 c 2,27,-1
 396 664 l 1,28,-1
 396 714 l 1,29,-1
 692 714 l 1,30,-1
 692 664 l 1,31,-1
 656 664 l 2,32,33
 635 664 635 664 623 651.5 c 128,-1,34
 611 639 611 639 611 600 c 2,35,-1
 611 551 l 1,36,-1
 701 551 l 1,37,-1
 701 500 l 1,38,-1
 611 500 l 1,39,-1
 611 111 l 2,40,41
 611 75 611 75 623.5 62.5 c 128,-1,42
 636 50 636 50 656 50 c 2,43,-1
 692 50 l 1,44,-1
 692 0 l 1,45,-1
 396 0 l 1,46,-1
 396 50 l 1,47,-1
 423 50 l 2,48,49
 444 50 444 50 456.5 63.5 c 128,-1,50
 469 77 469 77 469 115 c 2,51,-1
 469 343 l 1,52,-1
 247 343 l 1,53,-1
 247 113 l 2,54,55
 247 77 247 77 259 63.5 c 128,-1,56
 271 50 271 50 291 50 c 2,57,-1
 320 50 l 1,58,-1
 320 0 l 1,59,-1
 24 0 l 1,0,-1
247 402 m 1,60,-1
 469 402 l 1,61,-1
 469 500 l 1,62,-1
 247 500 l 1,63,-1
 247 402 l 1,60,-1
EndSplineSet
Substitution2: "'c2sc' Capitals to Small Capitals lookup 37 subtable" hbar.sc
Substitution2: "'aalt' Access All Alternates lookup 0 subtable" hbar.sc
EndChar

StartChar: hbar
Encoding: 295 295 233
Width: 583
GlyphClass: 2
Flags: W
AnchorPoint: "Anchor-1" 291 760 basechar 0
AnchorPoint: "Anchor-0" 291 0 basechar 0
LayerCount: 2
Fore
SplineSet
17 0 m 1,0,-1
 17 50 l 1,1,-1
 21 50 l 2,2,3
 49 50 49 50 68 62 c 128,-1,4
 87 74 87 74 87 120 c 2,5,-1
 87 583 l 1,6,-1
 11 583 l 1,7,-1
 11 631 l 1,8,-1
 87 631 l 1,9,-1
 87 647 l 2,10,11
 87 675 87 675 77 688 c 128,-1,12
 67 701 67 701 53 705.5 c 128,-1,13
 39 710 39 710 26 710 c 2,14,-1
 15 710 l 1,15,-1
 15 760 l 1,16,-1
 223 760 l 1,17,-1
 223 631 l 1,18,-1
 357 631 l 1,19,-1
 357 583 l 1,20,-1
 223 583 l 1,21,-1
 223 534 l 2,22,23
 223 506 223 506 221 476.5 c 128,-1,24
 219 447 219 447 219 437 c 1,25,-1
 225 437 l 1,26,27
 244 476 244 476 275.5 498 c 128,-1,28
 307 520 307 520 357 520 c 0,29,30
 427 520 427 520 463.5 473.5 c 128,-1,31
 500 427 500 427 500 326 c 2,32,-1
 500 121 l 2,33,34
 500 75 500 75 513.5 62.5 c 128,-1,35
 527 50 527 50 558 50 c 2,36,-1
 561 50 l 1,37,-1
 561 0 l 1,38,-1
 364 0 l 1,39,-1
 364 304 l 2,40,41
 364 368 364 368 348.5 404 c 128,-1,42
 333 440 333 440 296 440 c 0,43,44
 268 440 268 440 252 418.5 c 128,-1,45
 236 397 236 397 229.5 361.5 c 128,-1,46
 223 326 223 326 223 283 c 2,47,-1
 223 116 l 2,48,49
 223 73 223 73 239 61.5 c 128,-1,50
 255 50 255 50 284 50 c 2,51,-1
 287 50 l 1,52,-1
 287 0 l 1,53,-1
 17 0 l 1,0,-1
EndSplineSet
Substitution2: "'smcp' Lowercase to Small Capitals lookup 38 subtable" hbar.sc
Substitution2: "'aalt' Access All Alternates lookup 0 subtable" hbar.sc
EndChar

StartChar: kgreenlandic
Encoding: 312 312 249
Width: 558
GlyphClass: 2
Flags: W
AnchorPoint: "Anchor-1" 279 536 basechar 0
AnchorPoint: "Anchor-0" 279 0 basechar 0
LayerCount: 2
Fore
SplineSet
14 0 m 1,0,-1
 14 50 l 1,1,-1
 26 50 l 2,2,3
 38 50 38 50 52 54.5 c 128,-1,4
 66 59 66 59 76.5 73 c 128,-1,5
 87 87 87 87 87 117 c 2,6,-1
 87 423 l 2,7,8
 87 451 87 451 76.5 464 c 128,-1,9
 66 477 66 477 51.5 481.5 c 128,-1,10
 37 486 37 486 26 486 c 2,11,-1
 14 486 l 1,12,-1
 14 536 l 1,13,-1
 223 536 l 1,14,-1
 223 374 l 2,15,16
 223 356 223 356 222 330.5 c 128,-1,17
 221 305 221 305 220 285 c 128,-1,18
 219 265 219 265 219 265 c 1,19,-1
 326 407 l 2,20,21
 343 428 343 428 347 440.5 c 128,-1,22
 351 453 351 453 351 460 c 0,23,24
 351 488 351 488 306 488 c 1,25,-1
 306 536 l 1,26,-1
 526 536 l 1,27,-1
 526 488 l 1,28,29
 496 488 496 488 466.5 466.5 c 128,-1,30
 437 445 437 445 404 401 c 2,31,-1
 349 329 l 1,32,-1
 465 130 l 2,33,34
 511 50 511 50 555 50 c 2,35,-1
 558 50 l 1,36,-1
 558 0 l 1,37,-1
 545 0 l 2,38,39
 480 0 480 0 441.5 5.5 c 128,-1,40
 403 11 403 11 378.5 30 c 128,-1,41
 354 49 354 49 332 91 c 2,42,-1
 254 237 l 1,43,-1
 223 196 l 1,44,-1
 223 116 l 2,45,46
 223 87 223 87 233.5 73 c 128,-1,47
 244 59 244 59 258 54.5 c 128,-1,48
 272 50 272 50 284 50 c 2,49,-1
 295 50 l 1,50,-1
 295 0 l 1,51,-1
 14 0 l 1,0,-1
EndSplineSet
EndChar

StartChar: Lcaron
Encoding: 317 317 254
Width: 571
GlyphClass: 2
Flags: W
AnchorPoint: "Anchor-3" 286 357 basechar 0
AnchorPoint: "Anchor-2" 551 714 basechar 0
AnchorPoint: "Anchor-1" 286 714 basechar 0
AnchorPoint: "Anchor-0" 286 0 basechar 0
LayerCount: 2
Fore
SplineSet
394 554 m 1,0,-1
 394 567 l 1,1,2
 403 598 403 598 413.5 639 c 128,-1,3
 424 680 424 680 429 714 c 1,4,-1
 532 714 l 1,5,-1
 532 704 l 1,6,7
 524 683 524 683 510 656 c 128,-1,8
 496 629 496 629 479.5 602 c 128,-1,9
 463 575 463 575 448 554 c 1,10,-1
 394 554 l 1,0,-1
24 0 m 1,11,-1
 24 50 l 1,12,-1
 60 50 l 2,13,14
 78 50 78 50 91.5 62.5 c 128,-1,15
 105 75 105 75 105 112 c 2,16,-1
 105 600 l 2,17,18
 105 639 105 639 91 651.5 c 128,-1,19
 77 664 77 664 56 664 c 2,20,-1
 24 664 l 1,21,-1
 24 714 l 1,22,-1
 328 714 l 1,23,-1
 328 664 l 1,24,-1
 295 664 l 2,25,26
 270 664 270 664 258.5 652 c 128,-1,27
 247 640 247 640 247 604 c 2,28,-1
 247 58 l 1,29,-1
 409 58 l 2,30,31
 438 58 438 58 455 80 c 128,-1,32
 472 102 472 102 481 146 c 2,33,-1
 496 221 l 1,34,-1
 543 221 l 1,35,-1
 538 0 l 1,36,-1
 24 0 l 1,11,-1
EndSplineSet
Substitution2: "'c2sc' Capitals to Small Capitals lookup 37 subtable" lcaron.sc
Substitution2: "'aalt' Access All Alternates lookup 0 subtable" lcaron.sc
EndChar

StartChar: lcaron
Encoding: 318 318 255
Width: 309
GlyphClass: 2
Flags: W
AnchorPoint: "Anchor-3" 155 268 basechar 0
AnchorPoint: "Anchor-2" 275 760 basechar 0
AnchorPoint: "Anchor-1" 155 760 basechar 0
AnchorPoint: "Anchor-0" 155 0 basechar 0
LayerCount: 2
Fore
SplineSet
271 600 m 1,0,-1
 271 613 l 1,1,2
 279 644 279 644 289.5 685 c 128,-1,3
 300 726 300 726 305 760 c 1,4,-1
 408 760 l 1,5,-1
 408 750 l 1,6,7
 400 729 400 729 386 702 c 128,-1,8
 372 675 372 675 355.5 648 c 128,-1,9
 339 621 339 621 324 600 c 1,10,-1
 271 600 l 1,0,-1
15 0 m 1,11,-1
 15 50 l 1,12,-1
 26 50 l 2,13,14
 49 50 49 50 67.5 63.5 c 128,-1,15
 86 77 86 77 86 121 c 2,16,-1
 86 647 l 2,17,18
 86 675 86 675 75.5 688 c 128,-1,19
 65 701 65 701 51 705.5 c 128,-1,20
 37 710 37 710 26 710 c 2,21,-1
 15 710 l 1,22,-1
 15 760 l 1,23,-1
 223 760 l 1,24,-1
 223 121 l 2,25,26
 223 77 223 77 241 63.5 c 128,-1,27
 259 50 259 50 284 50 c 2,28,-1
 294 50 l 1,29,-1
 294 0 l 1,30,-1
 15 0 l 1,11,-1
EndSplineSet
Substitution2: "'smcp' Lowercase to Small Capitals lookup 38 subtable" lcaron.sc
Substitution2: "'aalt' Access All Alternates lookup 0 subtable" lcaron.sc
EndChar

StartChar: Lslash
Encoding: 321 321 258
Width: 571
GlyphClass: 2
Flags: W
AnchorPoint: "Anchor-1" 286 714 basechar 0
AnchorPoint: "Anchor-0" 286 0 basechar 0
LayerCount: 2
Fore
SplineSet
24 0 m 1,0,-1
 24 50 l 1,1,-1
 60 50 l 2,2,3
 78 50 78 50 91.5 62.5 c 128,-1,4
 105 75 105 75 105 112 c 2,5,-1
 105 280 l 1,6,-1
 33 230 l 1,7,-1
 33 294 l 1,8,-1
 105 344 l 1,9,-1
 105 600 l 2,10,11
 105 639 105 639 91 651.5 c 128,-1,12
 77 664 77 664 56 664 c 2,13,-1
 24 664 l 1,14,-1
 24 714 l 1,15,-1
 328 714 l 1,16,-1
 328 664 l 1,17,-1
 295 664 l 2,18,19
 270 664 270 664 259 652 c 128,-1,20
 248 640 248 640 247 604 c 2,21,-1
 247 429 l 1,22,-1
 372 514 l 1,23,-1
 372 448 l 1,24,-1
 247 364 l 1,25,-1
 247 58 l 1,26,-1
 409 58 l 2,27,28
 438 58 438 58 455 80 c 128,-1,29
 472 102 472 102 481 146 c 2,30,-1
 496 221 l 1,31,-1
 544 221 l 1,32,-1
 538 0 l 1,33,-1
 24 0 l 1,0,-1
EndSplineSet
Substitution2: "'c2sc' Capitals to Small Capitals lookup 37 subtable" lslash.sc
Substitution2: "'aalt' Access All Alternates lookup 0 subtable" lslash.sc
EndChar

StartChar: lslash
Encoding: 322 322 259
Width: 309
GlyphClass: 2
Flags: W
AnchorPoint: "Anchor-1" 154 760 basechar 0
AnchorPoint: "Anchor-0" 154 0 basechar 0
LayerCount: 2
Fore
SplineSet
19 0 m 1,0,-1
 19 50 l 1,1,-1
 28 50 l 2,2,3
 53 50 53 50 71.5 63.5 c 128,-1,4
 90 77 90 77 90 121 c 2,5,-1
 90 280 l 1,6,-1
 21 232 l 1,7,-1
 21 294 l 1,8,-1
 90 343 l 1,9,-1
 90 647 l 2,10,11
 90 675 90 675 79.5 688 c 128,-1,12
 69 701 69 701 54.5 705.5 c 128,-1,13
 40 710 40 710 28 710 c 2,14,-1
 19 710 l 1,15,-1
 19 760 l 1,16,-1
 227 760 l 1,17,-1
 227 427 l 1,18,-1
 301 480 l 1,19,-1
 301 415 l 1,20,-1
 227 363 l 1,21,-1
 227 121 l 2,22,23
 227 77 227 77 245 63.5 c 128,-1,24
 263 50 263 50 287 50 c 2,25,-1
 298 50 l 1,26,-1
 298 0 l 1,27,-1
 19 0 l 1,0,-1
EndSplineSet
Substitution2: "'smcp' Lowercase to Small Capitals lookup 38 subtable" lslash.sc
Substitution2: "'aalt' Access All Alternates lookup 0 subtable" lslash.sc
EndChar

StartChar: Eng
Encoding: 330 330 267
Width: 687
GlyphClass: 2
Flags: W
AnchorPoint: "Anchor-1" 344 714 basechar 0
AnchorPoint: "Anchor-0" 344 -240 basechar 0
LayerCount: 2
Fore
SplineSet
413 -240 m 1,0,-1
 413 -185 l 1,1,-1
 430 -185 l 2,2,3
 470 -185 470 -185 498.5 -144.5 c 128,-1,4
 527 -104 527 -104 527 -9 c 2,5,-1
 527 2 l 1,6,-1
 171 564 l 1,7,-1
 171 117 l 2,8,9
 171 73 171 73 184 61.5 c 128,-1,10
 197 50 197 50 220 50 c 2,11,-1
 252 50 l 1,12,-1
 252 0 l 1,13,-1
 24 0 l 1,14,-1
 24 50 l 1,15,-1
 51 50 l 2,16,17
 75 50 75 50 90 61.5 c 128,-1,18
 105 73 105 73 105 117 c 2,19,-1
 105 601 l 2,20,21
 105 642 105 642 90.5 653 c 128,-1,22
 76 664 76 664 55 664 c 2,23,-1
 24 664 l 1,24,-1
 24 714 l 1,25,-1
 219 714 l 1,26,-1
 527 207 l 1,27,-1
 527 601 l 2,28,29
 527 640 527 640 512.5 652 c 128,-1,30
 498 664 498 664 478 664 c 2,31,-1
 446 664 l 1,32,-1
 446 714 l 1,33,-1
 674 714 l 1,34,-1
 674 664 l 1,35,-1
 643 664 l 2,36,37
 621 664 621 664 607 651 c 128,-1,38
 593 638 593 638 593 597 c 2,39,-1
 593 -6 l 2,40,41
 593 -95 593 -95 576 -146 c 128,-1,42
 559 -197 559 -197 526 -218.5 c 128,-1,43
 493 -240 493 -240 446 -240 c 2,44,-1
 413 -240 l 1,0,-1
EndSplineSet
Substitution2: "'c2sc' Capitals to Small Capitals lookup 37 subtable" eng.sc
AlternateSubs2: "'aalt' Access All Alternates lookup 1 subtable" Eng.alt1 Eng.alt2 Eng.alt3 eng.sc
EndChar

StartChar: eng
Encoding: 331 331 268
Width: 583
GlyphClass: 2
Flags: W
AnchorPoint: "Anchor-2" 559 536 basechar 0
AnchorPoint: "Anchor-1" 291 536 basechar 0
AnchorPoint: "Anchor-0" 291 -240 basechar 0
LayerCount: 2
Fore
SplineSet
273 -240 m 1,0,-1
 273 -181 l 1,1,-1
 278 -181 l 2,2,3
 305 -181 305 -181 324 -165 c 128,-1,4
 343 -149 343 -149 353.5 -110 c 128,-1,5
 364 -71 364 -71 364 -2 c 2,6,-1
 364 333 l 2,7,8
 364 397 364 397 349.5 433 c 128,-1,9
 335 469 335 469 298 469 c 0,10,11
 270 469 270 469 253 447 c 128,-1,12
 236 425 236 425 229.5 389 c 128,-1,13
 223 353 223 353 223 312 c 2,14,-1
 223 116 l 2,15,16
 223 73 223 73 239 61.5 c 128,-1,17
 255 50 255 50 284 50 c 2,18,-1
 286 50 l 1,19,-1
 286 0 l 1,20,-1
 17 0 l 1,21,-1
 17 50 l 1,22,-1
 21 50 l 2,23,24
 50 50 50 50 68 62 c 128,-1,25
 86 74 86 74 86 120 c 2,26,-1
 86 420 l 2,27,28
 86 463 86 463 69.5 474.5 c 128,-1,29
 53 486 53 486 24 486 c 2,30,-1
 21 486 l 1,31,-1
 21 536 l 1,32,-1
 208 536 l 1,33,-1
 219 462 l 1,34,-1
 224 462 l 1,35,36
 245 509 245 509 276 528.5 c 128,-1,37
 307 548 307 548 356 548 c 0,38,39
 425 548 425 548 462 502 c 128,-1,40
 499 456 499 456 499 355 c 2,41,-1
 499 -8 l 2,42,43
 499 -97 499 -97 472 -148 c 128,-1,44
 445 -199 445 -199 398 -219.5 c 128,-1,45
 351 -240 351 -240 289 -240 c 2,46,-1
 273 -240 l 1,0,-1
EndSplineSet
Substitution2: "'smcp' Lowercase to Small Capitals lookup 38 subtable" eng.sc
Substitution2: "'aalt' Access All Alternates lookup 0 subtable" eng.sc
EndChar

StartChar: OE
Encoding: 338 338 275
Width: 892
GlyphClass: 2
Flags: W
AnchorPoint: "Anchor-1" 446 714 basechar 0
AnchorPoint: "Anchor-0" 446 0 basechar 0
LayerCount: 2
Fore
SplineSet
345 -10 m 0,0,1
 245 -10 245 -10 179 36 c 128,-1,2
 113 82 113 82 80.5 165 c 128,-1,3
 48 248 48 248 48 359 c 256,4,5
 48 470 48 470 80.5 552 c 128,-1,6
 113 634 113 634 179.5 679.5 c 128,-1,7
 246 725 246 725 346 725 c 0,8,9
 368 725 368 725 393.5 722 c 128,-1,10
 419 719 419 719 438 714 c 1,11,-1
 831 714 l 1,12,-1
 835 532 l 1,13,-1
 772 532 l 1,14,-1
 768 578 l 2,15,16
 765 614 765 614 751 635 c 128,-1,17
 737 656 737 656 705 656 c 2,18,-1
 566 656 l 1,19,-1
 566 402 l 1,20,-1
 773 402 l 1,21,-1
 773 344 l 1,22,-1
 566 344 l 1,23,-1
 566 58 l 1,24,-1
 731 58 l 2,25,26
 762 58 762 58 776.5 80.5 c 128,-1,27
 791 103 791 103 796 136 c 2,28,-1
 803 182 l 1,29,-1
 864 182 l 1,30,-1
 858 0 l 1,31,-1
 435 0 l 1,32,33
 416 -4 416 -4 391 -7 c 128,-1,34
 366 -10 366 -10 345 -10 c 0,0,1
345 52 m 0,35,36
 370 52 370 52 389.5 58.5 c 128,-1,37
 409 65 409 65 425 76 c 1,38,-1
 425 638 l 1,39,40
 411 650 411 650 391 656.5 c 128,-1,41
 371 663 371 663 346 663 c 0,42,43
 266 663 266 663 232.5 582.5 c 128,-1,44
 199 502 199 502 199 358 c 256,45,46
 199 214 199 214 232.5 133 c 128,-1,47
 266 52 266 52 345 52 c 0,35,36
EndSplineSet
Substitution2: "'c2sc' Capitals to Small Capitals lookup 37 subtable" oe.sc
Substitution2: "'aalt' Access All Alternates lookup 0 subtable" oe.sc
EndChar

StartChar: oe
Encoding: 339 339 276
Width: 817
GlyphClass: 2
Flags: W
AnchorPoint: "Anchor-1" 409 536 basechar 0
AnchorPoint: "Anchor-0" 409 0 basechar 0
LayerCount: 2
Fore
SplineSet
267 -10 m 0,0,1
 161 -10 161 -10 100.5 59 c 128,-1,2
 40 128 40 128 40 269 c 256,3,4
 40 410 40 410 98 479 c 128,-1,5
 156 548 156 548 270 548 c 0,6,7
 370 548 370 548 425 478 c 1,8,9
 478 548 478 548 576 548 c 0,10,11
 671 548 671 548 726 486.5 c 128,-1,12
 781 425 781 425 781 307 c 2,13,-1
 781 259 l 1,14,-1
 496 259 l 1,15,16
 496 201 496 201 507.5 156 c 128,-1,17
 519 111 519 111 545.5 85 c 128,-1,18
 572 59 572 59 616 59 c 0,19,20
 661 59 661 59 689.5 83.5 c 128,-1,21
 718 108 718 108 734 143 c 1,22,23
 746 138 746 138 754 127 c 128,-1,24
 762 116 762 116 762 100 c 0,25,26
 762 74 762 74 744 48.5 c 128,-1,27
 726 23 726 23 687 6.5 c 128,-1,28
 648 -10 648 -10 586 -10 c 0,29,30
 484 -10 484 -10 427 60 c 1,31,32
 374 -10 374 -10 267 -10 c 0,0,1
497 319 m 1,33,-1
 646 319 l 1,34,35
 646 397 646 397 630 442.5 c 128,-1,36
 614 488 614 488 578 488 c 256,37,38
 542 488 542 488 520 444.5 c 128,-1,39
 498 401 498 401 497 319 c 1,33,-1
269 50 m 256,40,41
 318 50 318 50 337 105 c 128,-1,42
 356 160 356 160 356 270 c 0,43,44
 356 378 356 378 336 432.5 c 128,-1,45
 316 487 316 487 268 487 c 0,46,47
 219 487 219 487 199.5 432.5 c 128,-1,48
 180 378 180 378 180 269 c 0,49,50
 180 162 180 162 200 106 c 128,-1,51
 220 50 220 50 269 50 c 256,40,41
EndSplineSet
Substitution2: "'smcp' Lowercase to Small Capitals lookup 38 subtable" oe.sc
Substitution2: "'aalt' Access All Alternates lookup 0 subtable" oe.sc
EndChar

StartChar: tcaron
Encoding: 357 357 294
Width: 357
GlyphClass: 2
Flags: W
AnchorPoint: "Anchor-3" 179 268 basechar 0
AnchorPoint: "Anchor-2" 347 659 basechar 0
AnchorPoint: "Anchor-1" 179 760 basechar 0
AnchorPoint: "Anchor-0" 179 0 basechar 0
LayerCount: 2
Fore
SplineSet
270 600 m 1,0,-1
 270 613 l 1,1,2
 279 644 279 644 289 685 c 128,-1,3
 299 726 299 726 305 760 c 1,4,-1
 407 760 l 1,5,-1
 407 750 l 1,6,7
 400 729 400 729 385.5 702 c 128,-1,8
 371 675 371 675 354.5 648 c 128,-1,9
 338 621 338 621 324 600 c 1,10,-1
 270 600 l 1,0,-1
217 -10 m 0,11,12
 154 -10 154 -10 118.5 25 c 128,-1,13
 83 60 83 60 83 147 c 2,14,-1
 83 475 l 1,15,-1
 18 475 l 1,16,-1
 18 520 l 1,17,18
 49 522 49 522 70.5 534 c 128,-1,19
 92 546 92 546 106 562 c 0,20,21
 118 578 118 578 128 600.5 c 128,-1,22
 138 623 138 623 145 659 c 1,23,-1
 220 659 l 1,24,-1
 220 536 l 1,25,-1
 331 536 l 1,26,-1
 331 475 l 1,27,-1
 220 475 l 1,28,-1
 220 156 l 2,29,30
 220 109 220 109 232.5 87.5 c 128,-1,31
 245 66 245 66 276 66 c 0,32,33
 310 66 310 66 340 75 c 1,34,-1
 340 13 l 1,35,36
 325 6 325 6 293.5 -2 c 128,-1,37
 262 -10 262 -10 217 -10 c 0,11,12
EndSplineSet
Substitution2: "'smcp' Lowercase to Small Capitals lookup 38 subtable" tcaron.sc
Substitution2: "'aalt' Access All Alternates lookup 0 subtable" tcaron.sc
EndChar

StartChar: Tbar
Encoding: 358 358 295
Width: 571
GlyphClass: 2
Flags: W
AnchorPoint: "Anchor-1" 286 714 basechar 0
AnchorPoint: "Anchor-0" 286 0 basechar 0
LayerCount: 2
Fore
SplineSet
134 0 m 1,0,-1
 134 50 l 1,1,-1
 172 50 l 2,2,3
 190 50 190 50 202 61.5 c 128,-1,4
 214 73 214 73 214 116 c 2,5,-1
 214 332 l 1,6,-1
 95 332 l 1,7,-1
 95 382 l 1,8,-1
 214 382 l 1,9,-1
 214 656 l 1,10,-1
 146 656 l 2,11,12
 107 656 107 656 92 635.5 c 128,-1,13
 77 615 77 615 74 582 c 2,14,-1
 67 524 l 1,15,-1
 8 524 l 1,16,-1
 12 714 l 1,17,-1
 559 714 l 1,18,-1
 563 524 l 1,19,-1
 504 524 l 1,20,-1
 498 582 l 2,21,22
 494 615 494 615 479 635.5 c 128,-1,23
 464 656 464 656 425 656 c 2,24,-1
 357 656 l 1,25,-1
 357 382 l 1,26,-1
 476 382 l 1,27,-1
 476 332 l 1,28,-1
 357 332 l 1,29,-1
 357 117 l 2,30,31
 357 73 357 73 369.5 61.5 c 128,-1,32
 382 50 382 50 400 50 c 2,33,-1
 437 50 l 1,34,-1
 437 0 l 1,35,-1
 134 0 l 1,0,-1
EndSplineSet
Substitution2: "'c2sc' Capitals to Small Capitals lookup 37 subtable" tbar.sc
Substitution2: "'aalt' Access All Alternates lookup 0 subtable" tbar.sc
EndChar

StartChar: tbar
Encoding: 359 359 296
Width: 357
GlyphClass: 2
Flags: W
AnchorPoint: "Anchor-3" 179 268 basechar 0
AnchorPoint: "Anchor-2" 347 659 basechar 0
AnchorPoint: "Anchor-1" 177 659 basechar 0
AnchorPoint: "Anchor-0" 177 0 basechar 0
LayerCount: 2
Fore
SplineSet
217 -10 m 0,0,1
 154 -10 154 -10 118.5 25 c 128,-1,2
 83 60 83 60 83 147 c 2,3,-1
 83 283 l 1,4,-1
 24 283 l 1,5,-1
 24 333 l 1,6,-1
 83 333 l 1,7,-1
 83 475 l 1,8,-1
 18 475 l 1,9,-1
 18 520 l 1,10,11
 49 522 49 522 70.5 534 c 128,-1,12
 92 546 92 546 106 562 c 0,13,14
 118 578 118 578 128 600.5 c 128,-1,15
 138 623 138 623 145 659 c 1,16,-1
 220 659 l 1,17,-1
 220 536 l 1,18,-1
 331 536 l 1,19,-1
 331 475 l 1,20,-1
 220 475 l 1,21,-1
 220 333 l 1,22,-1
 319 333 l 1,23,-1
 319 283 l 1,24,-1
 220 283 l 1,25,-1
 220 156 l 2,26,27
 220 109 220 109 232.5 87.5 c 128,-1,28
 245 66 245 66 276 66 c 0,29,30
 310 66 310 66 340 75 c 1,31,-1
 340 13 l 1,32,33
 325 6 325 6 293.5 -2 c 128,-1,34
 262 -10 262 -10 217 -10 c 0,0,1
EndSplineSet
Substitution2: "'smcp' Lowercase to Small Capitals lookup 38 subtable" tbar.sc
Substitution2: "'aalt' Access All Alternates lookup 0 subtable" tbar.sc
EndChar

StartChar: longs
Encoding: 383 383 320
Width: 344
GlyphClass: 2
Flags: W
AnchorPoint: "Anchor-1" 245 770 basechar 0
AnchorPoint: "Anchor-0" 172 0 basechar 0
LayerCount: 2
Fore
SplineSet
6 0 m 1,0,-1
 6 50 l 1,1,-1
 26 50 l 2,2,3
 51 50 51 50 69 63.5 c 128,-1,4
 87 77 87 77 87 121 c 2,5,-1
 87 576 l 2,6,7
 87 668 87 668 132 719 c 128,-1,8
 177 770 177 770 271 770 c 0,9,10
 328 770 328 770 358.5 759 c 128,-1,11
 389 748 389 748 401.5 730.5 c 128,-1,12
 414 713 414 713 414 693 c 0,13,14
 414 634 414 634 314 634 c 1,15,16
 314 665 314 665 304.5 690 c 128,-1,17
 295 715 295 715 269 715 c 0,18,19
 244 715 244 715 233.5 685 c 128,-1,20
 223 655 223 655 223 590 c 2,21,-1
 223 121 l 2,22,23
 223 78 223 78 241.5 64 c 128,-1,24
 260 50 260 50 285 50 c 2,25,-1
 326 50 l 1,26,-1
 326 0 l 1,27,-1
 6 0 l 1,0,-1
EndSplineSet
EndChar

StartChar: florin
Encoding: 402 402 321
Width: 434
GlyphClass: 2
Flags: W
AnchorPoint: "Anchor-2" 503 770 basechar 0
AnchorPoint: "Anchor-1" 320 770 basechar 0
AnchorPoint: "Anchor-0" 129 -11 basechar 0
LayerCount: 2
Fore
SplineSet
129 -11 m 0,0,1
 76 -11 76 -11 46 0.5 c 128,-1,2
 16 12 16 12 3.5 31 c 128,-1,3
 -9 50 -9 50 -9 72 c 0,4,5
 -9 139 -9 139 73 139 c 1,6,7
 73 103 73 103 83.5 73.5 c 128,-1,8
 94 44 94 44 125 44 c 0,9,10
 175 44 175 44 175 152 c 2,11,-1
 175 472 l 1,12,-1
 97 472 l 1,13,-1
 97 536 l 1,14,-1
 175 536 l 1,15,-1
 175 576 l 2,16,17
 175 668 175 668 217.5 719 c 128,-1,18
 260 770 260 770 356 770 c 0,19,20
 411 770 411 770 441.5 759.5 c 128,-1,21
 472 749 472 749 484 732.5 c 128,-1,22
 496 716 496 716 496 697 c 0,23,24
 496 668 496 668 474 650 c 128,-1,25
 452 632 452 632 396 632 c 1,26,27
 396 649 396 649 392.5 668 c 128,-1,28
 389 687 389 687 380 701 c 128,-1,29
 371 715 371 715 355 715 c 0,30,31
 332 715 332 715 321.5 686 c 128,-1,32
 311 657 311 657 311 592 c 2,33,-1
 311 536 l 1,34,-1
 430 536 l 1,35,-1
 430 472 l 1,36,-1
 311 472 l 1,37,-1
 311 186 l 2,38,39
 311 87 311 87 261.5 38 c 128,-1,40
 212 -11 212 -11 129 -11 c 0,0,1
EndSplineSet
Substitution2: "'ss03' Style Set 3 lookup 43 subtable" florin.ss03
EndChar

StartChar: Aringacute
Encoding: 506 506 322
Width: 659
GlyphClass: 2
Flags: W
AnchorPoint: "Anchor-1" 330 958 basechar 0
AnchorPoint: "Anchor-0" 330 0 basechar 0
LayerCount: 2
Fore
SplineSet
272 830 m 1,0,-1
 272 840 l 1,1,2
 291 863 291 863 317 897 c 128,-1,3
 343 931 343 931 356 958 c 1,4,-1
 497 958 l 1,5,-1
 497 950 l 1,6,7
 486 936 486 936 457.5 913 c 128,-1,8
 429 890 429 890 395 867.5 c 128,-1,9
 361 845 361 845 333 830 c 1,10,-1
 272 830 l 1,0,-1
4 0 m 1,11,-1
 4 50 l 1,12,-1
 14 50 l 2,13,14
 36 50 36 50 52 63.5 c 128,-1,15
 68 77 68 77 83 118 c 2,16,-1
 262 609 l 1,17,18
 229 636 229 636 229 697 c 0,19,20
 229 751 229 751 259 778.5 c 128,-1,21
 289 806 289 806 333 806 c 256,22,23
 377 806 377 806 407.5 778.5 c 128,-1,24
 438 751 438 751 438 697 c 0,25,26
 438 667 438 667 429 645 c 128,-1,27
 420 623 420 623 405 610 c 1,28,-1
 577 112 l 2,29,30
 589 76 589 76 605.5 63 c 128,-1,31
 622 50 622 50 643 50 c 2,32,-1
 659 50 l 1,33,-1
 659 0 l 1,34,-1
 368 0 l 1,35,-1
 368 50 l 1,36,-1
 403 50 l 2,37,38
 415 50 415 50 427 59.5 c 128,-1,39
 439 69 439 69 439 86 c 0,40,41
 439 99 439 99 436.5 111.5 c 128,-1,42
 434 124 434 124 431 134 c 2,43,-1
 405 212 l 1,44,-1
 190 212 l 1,45,-1
 170 147 l 2,46,47
 166 134 166 134 160.5 116.5 c 128,-1,48
 155 99 155 99 155 87 c 0,49,50
 155 70 155 70 167.5 60 c 128,-1,51
 180 50 180 50 193 50 c 2,52,-1
 231 50 l 1,53,-1
 231 0 l 1,54,-1
 4 0 l 1,11,-1
333 641 m 0,55,56
 356 641 356 641 370 654.5 c 128,-1,57
 384 668 384 668 384 697 c 0,58,59
 384 729 384 729 369 742 c 128,-1,60
 354 755 354 755 333 755 c 256,61,62
 312 755 312 755 296.5 742 c 128,-1,63
 281 729 281 729 281 697 c 0,64,65
 281 667 281 667 294.5 654 c 128,-1,66
 308 641 308 641 333 641 c 0,55,56
211 271 m 1,67,-1
 382 271 l 1,68,-1
 338 417 l 2,69,70
 328 449 328 449 318 489 c 128,-1,71
 308 529 308 529 301 560 c 1,72,73
 294 530 294 530 282 494 c 128,-1,74
 270 458 270 458 259 424 c 2,75,-1
 211 271 l 1,67,-1
EndSplineSet
Substitution2: "'c2sc' Capitals to Small Capitals lookup 37 subtable" aringacute.sc
Substitution2: "'aalt' Access All Alternates lookup 0 subtable" aringacute.sc
EndChar

StartChar: aringacute
Encoding: 507 507 323
Width: 525
GlyphClass: 2
Flags: W
AnchorPoint: "Anchor-1" 263 958 basechar 0
AnchorPoint: "Anchor-0" 263 0 basechar 0
LayerCount: 2
Fore
SplineSet
203 830 m 1,0,-1
 203 840 l 1,1,2
 221 863 221 863 247 897 c 128,-1,3
 273 931 273 931 287 958 c 1,4,-1
 427 958 l 1,5,-1
 427 950 l 1,6,7
 416 936 416 936 387.5 913 c 128,-1,8
 359 890 359 890 325 867.5 c 128,-1,9
 291 845 291 845 263 830 c 1,10,-1
 203 830 l 1,0,-1
265 583 m 256,11,12
 221 583 221 583 190.5 611 c 128,-1,13
 160 639 160 639 160 692 c 0,14,15
 160 746 160 746 190.5 773.5 c 128,-1,16
 221 801 221 801 265 801 c 256,17,18
 309 801 309 801 339.5 773.5 c 128,-1,19
 370 746 370 746 370 692 c 0,20,21
 370 639 370 639 339.5 611 c 128,-1,22
 309 583 309 583 265 583 c 256,11,12
265 638 m 0,23,24
 285 638 285 638 300.5 650.5 c 128,-1,25
 316 663 316 663 316 692 c 0,26,27
 316 723 316 723 300.5 735.5 c 128,-1,28
 285 748 285 748 265 748 c 0,29,30
 244 748 244 748 229 735.5 c 128,-1,31
 214 723 214 723 214 692 c 0,32,33
 214 663 214 663 229 650.5 c 128,-1,34
 244 638 244 638 265 638 c 0,23,24
175 -10 m 0,35,36
 118 -10 118 -10 78.5 29.5 c 128,-1,37
 39 69 39 69 39 152 c 0,38,39
 39 233 39 233 87.5 272 c 128,-1,40
 136 311 136 311 233 315 c 2,41,-1
 305 318 l 1,42,-1
 305 373 l 2,43,44
 305 425 305 425 296.5 457.5 c 128,-1,45
 288 490 288 490 253 490 c 0,46,47
 221 490 221 490 209 459 c 128,-1,48
 197 428 197 428 197 381 c 1,49,50
 137 381 137 381 106 396 c 128,-1,51
 75 411 75 411 75 448 c 0,52,53
 75 483 75 483 100 505.5 c 128,-1,54
 125 528 125 528 166 538 c 128,-1,55
 207 548 207 548 257 548 c 0,56,57
 348 548 348 548 394.5 509.5 c 128,-1,58
 441 471 441 471 441 378 c 2,59,-1
 441 121 l 2,60,61
 441 80 441 80 452.5 65 c 128,-1,62
 464 50 464 50 494 50 c 2,63,-1
 497 50 l 1,64,-1
 497 0 l 1,65,-1
 331 0 l 1,66,-1
 313 73 l 1,67,-1
 305 73 l 1,68,69
 276 32 276 32 250.5 11 c 128,-1,70
 225 -10 225 -10 175 -10 c 0,35,36
226 60 m 0,71,72
 262 60 262 60 284 95.5 c 128,-1,73
 306 131 306 131 306 191 c 2,74,-1
 306 267 l 1,75,-1
 268 264 l 2,76,77
 217 261 217 261 197.5 232 c 128,-1,78
 178 203 178 203 178 148 c 0,79,80
 178 60 178 60 226 60 c 0,71,72
EndSplineSet
Substitution2: "'smcp' Lowercase to Small Capitals lookup 38 subtable" aringacute.sc
Substitution2: "'aalt' Access All Alternates lookup 0 subtable" aringacute.sc
EndChar

StartChar: circumflex
Encoding: 710 710 330
Width: 393
Flags: W
LayerCount: 2
Fore
SplineSet
40 606 m 1,0,-1
 40 619 l 1,1,2
 53 638 53 638 72.5 664 c 128,-1,3
 92 690 92 690 109.5 717 c 128,-1,4
 127 744 127 744 136 766 c 1,5,-1
 256 766 l 1,6,7
 266 744 266 744 283.5 717 c 128,-1,8
 301 690 301 690 320 664 c 128,-1,9
 339 638 339 638 353 619 c 1,10,-1
 353 606 l 1,11,-1
 291 606 l 1,12,13
 273 626 273 626 244 652.5 c 128,-1,14
 215 679 215 679 196 702 c 1,15,16
 176 679 176 679 148 652.5 c 128,-1,17
 120 626 120 626 102 606 c 1,18,-1
 40 606 l 1,0,-1
EndSplineSet
EndChar

StartChar: caron
Encoding: 711 711 331
Width: 393
Flags: W
LayerCount: 2
Fore
SplineSet
136 606 m 1,0,1
 127 629 127 629 109.5 655.5 c 128,-1,2
 92 682 92 682 72.5 708 c 128,-1,3
 53 734 53 734 40 753 c 1,4,-1
 40 766 l 1,5,-1
 102 766 l 1,6,7
 120 746 120 746 148 719.5 c 128,-1,8
 176 693 176 693 196 670 c 1,9,10
 215 693 215 693 244 719.5 c 128,-1,11
 273 746 273 746 291 766 c 1,12,-1
 353 766 l 1,13,-1
 353 753 l 1,14,15
 339 734 339 734 320 708 c 128,-1,16
 301 682 301 682 283.5 655.5 c 128,-1,17
 266 629 266 629 256 606 c 1,18,-1
 136 606 l 1,0,1
EndSplineSet
EndChar

StartChar: macron
Encoding: 713 713 332
Width: 333
Flags: W
LayerCount: 2
Fore
SplineSet
40 609 m 1,0,-1
 40 682 l 1,1,-1
 293 682 l 1,2,-1
 293 609 l 1,3,-1
 40 609 l 1,0,-1
EndSplineSet
EndChar

StartChar: breve
Encoding: 728 728 333
Width: 362
Flags: W
LayerCount: 2
Fore
SplineSet
181 606 m 256,0,1
 135 606 135 606 104 628.5 c 128,-1,2
 73 651 73 651 57 686 c 128,-1,3
 41 721 41 721 40 758 c 1,4,-1
 100 758 l 1,5,6
 106 722 106 722 128 706 c 128,-1,7
 150 690 150 690 181 690 c 0,8,9
 213 690 213 690 234 706 c 128,-1,10
 255 722 255 722 263 758 c 1,11,-1
 322 758 l 1,12,13
 321 721 321 721 305 686 c 128,-1,14
 289 651 289 651 258 628.5 c 128,-1,15
 227 606 227 606 181 606 c 256,0,1
EndSplineSet
EndChar

StartChar: dotaccent
Encoding: 729 729 334
Width: 232
Flags: W
LayerCount: 2
Fore
SplineSet
116 630 m 0,0,1
 83 630 83 630 61.5 646.5 c 128,-1,2
 40 663 40 663 40 698 c 0,3,4
 40 734 40 734 61.5 750 c 128,-1,5
 83 766 83 766 116 766 c 0,6,7
 147 766 147 766 169.5 750 c 128,-1,8
 192 734 192 734 192 698 c 0,9,10
 192 663 192 663 169.5 646.5 c 128,-1,11
 147 630 147 630 116 630 c 0,0,1
EndSplineSet
EndChar

StartChar: ring
Encoding: 730 730 335
Width: 290
Flags: W
LayerCount: 2
Fore
SplineSet
144 596 m 256,0,1
 100 596 100 596 70 624 c 128,-1,2
 40 652 40 652 40 705 c 256,3,4
 40 758 40 758 70 786 c 128,-1,5
 100 814 100 814 144 814 c 256,6,7
 188 814 188 814 218.5 786 c 128,-1,8
 249 758 249 758 249 705 c 256,9,10
 249 652 249 652 218.5 624 c 128,-1,11
 188 596 188 596 144 596 c 256,0,1
144 648 m 0,12,13
 166 648 166 648 181 661 c 128,-1,14
 196 674 196 674 196 705 c 256,15,16
 196 736 196 736 181 749.5 c 128,-1,17
 166 763 166 763 144 763 c 0,18,19
 123 763 123 763 107.5 749.5 c 128,-1,20
 92 736 92 736 92 705 c 256,21,22
 92 674 92 674 107.5 661 c 128,-1,23
 123 648 123 648 144 648 c 0,12,13
EndSplineSet
EndChar

StartChar: ogonek
Encoding: 731 731 336
Width: 436
Flags: W
LayerCount: 2
Fore
SplineSet
260 -236 m 0,0,1
 198 -236 198 -236 165 -211 c 128,-1,2
 132 -186 132 -186 132 -130 c 0,3,4
 132 -98 132 -98 147 -71 c 128,-1,5
 162 -44 162 -44 184.5 -25.5 c 128,-1,6
 207 -7 207 -7 232 0 c 1,7,-1
 302 0 l 1,8,9
 274 -10 274 -10 247 -40.5 c 128,-1,10
 220 -71 220 -71 220 -118 c 0,11,12
 220 -147 220 -147 237 -160 c 128,-1,13
 254 -173 254 -173 280 -173 c 0,14,15
 304 -173 304 -173 335 -163 c 1,16,-1
 335 -222 l 1,17,18
 321 -229 321 -229 298 -232.5 c 128,-1,19
 275 -236 275 -236 260 -236 c 0,0,1
EndSplineSet
EndChar

StartChar: tilde
Encoding: 732 732 337
Width: 428
Flags: W
LayerCount: 2
Fore
SplineSet
277 606 m 0,0,1
 254 606 254 606 235.5 615.5 c 128,-1,2
 217 625 217 625 200.5 637.5 c 128,-1,3
 184 650 184 650 169.5 659.5 c 128,-1,4
 155 669 155 669 141 669 c 0,5,6
 122 669 122 669 111 652.5 c 128,-1,7
 100 636 100 636 98 616 c 1,8,-1
 40 616 l 1,9,10
 42 654 42 654 56.5 686 c 128,-1,11
 71 718 71 718 95.5 737.5 c 128,-1,12
 120 757 120 757 151 757 c 0,13,14
 174 757 174 757 193 747.5 c 128,-1,15
 212 738 212 738 228 725.5 c 128,-1,16
 244 713 244 713 258.5 703.5 c 128,-1,17
 273 694 273 694 287 694 c 0,18,19
 305 694 305 694 316 710.5 c 128,-1,20
 327 727 327 727 330 747 c 1,21,-1
 388 747 l 1,22,23
 386 709 386 709 371.5 677 c 128,-1,24
 357 645 357 645 332.5 625.5 c 128,-1,25
 308 606 308 606 277 606 c 0,0,1
EndSplineSet
EndChar

StartChar: hungarumlaut
Encoding: 733 733 338
Width: 428
Flags: W
LayerCount: 2
Fore
SplineSet
206 606 m 1,0,-1
 206 619 l 1,1,2
 224 654 224 654 244.5 693 c 128,-1,3
 265 732 265 732 279 766 c 1,4,-1
 388 766 l 1,5,-1
 388 756 l 1,6,7
 379 739 379 739 357 711 c 128,-1,8
 335 683 335 683 309.5 654 c 128,-1,9
 284 625 284 625 265 606 c 1,10,-1
 206 606 l 1,0,-1
40 606 m 1,11,-1
 40 619 l 1,12,13
 58 654 58 654 78.5 693 c 128,-1,14
 99 732 99 732 113 766 c 1,15,-1
 222 766 l 1,16,-1
 222 756 l 1,17,18
 213 739 213 739 191 711 c 128,-1,19
 169 683 169 683 143.5 654 c 128,-1,20
 118 625 118 625 99 606 c 1,21,-1
 40 606 l 1,11,-1
EndSplineSet
EndChar

StartChar: tonos
Encoding: 900 900 339
Width: 502
Flags: W
LayerCount: 2
Fore
SplineSet
190 606 m 1,0,-1
 190 621 l 1,1,2
 199 660 199 660 210.5 707 c 128,-1,3
 222 754 222 754 230 796 c 1,4,-1
 352 796 l 1,5,-1
 352 784 l 1,6,7
 336 741 336 741 308.5 693.5 c 128,-1,8
 281 646 281 646 254 606 c 1,9,-1
 190 606 l 1,0,-1
EndSplineSet
EndChar

StartChar: dieresistonos
Encoding: 901 901 340
Width: 502
Flags: W
LayerCount: 2
Fore
SplineSet
206 685 m 1,0,-1
 206 698 l 1,1,2
 215 731 215 731 224.5 771 c 128,-1,3
 234 811 234 811 240 845 c 1,4,-1
 341 845 l 1,5,-1
 341 835 l 1,6,7
 326 799 326 799 303.5 759.5 c 128,-1,8
 281 720 281 720 260 685 c 1,9,-1
 206 685 l 1,0,-1
139 627 m 0,10,11
 118 627 118 627 102.5 641 c 128,-1,12
 87 655 87 655 87 687 c 256,13,14
 87 719 87 719 102.5 732.5 c 128,-1,15
 118 746 118 746 139 746 c 0,16,17
 159 746 159 746 175.5 732.5 c 128,-1,18
 192 719 192 719 192 687 c 256,19,20
 192 655 192 655 175.5 641 c 128,-1,21
 159 627 159 627 139 627 c 0,10,11
355 627 m 0,22,23
 334 627 334 627 318 641 c 128,-1,24
 302 655 302 655 302 687 c 256,25,26
 302 719 302 719 318 732.5 c 128,-1,27
 334 746 334 746 355 746 c 0,28,29
 375 746 375 746 391 732.5 c 128,-1,30
 407 719 407 719 407 687 c 256,31,32
 407 655 407 655 391 641 c 128,-1,33
 375 627 375 627 355 627 c 0,22,23
EndSplineSet
EndChar

StartChar: anoteleia
Encoding: 903 903 342
Width: 258
Flags: W
LayerCount: 2
Fore
SplineSet
130 388 m 0,0,1
 99 388 99 388 78 405 c 128,-1,2
 57 422 57 422 57 464 c 0,3,4
 57 508 57 508 78 525 c 128,-1,5
 99 542 99 542 130 542 c 0,6,7
 159 542 159 542 180.5 525 c 128,-1,8
 202 508 202 508 202 464 c 0,9,10
 202 422 202 422 180.5 405 c 128,-1,11
 159 388 159 388 130 388 c 0,0,1
EndSplineSet
EndChar

StartChar: Gamma
Encoding: 915 915 352
Width: 516
GlyphClass: 2
Flags: W
AnchorPoint: "Anchor-1" 259 714 basechar 0
AnchorPoint: "Anchor-0" 259 0 basechar 0
LayerCount: 2
Fore
SplineSet
24 0 m 1,0,-1
 24 50 l 1,1,-1
 55 50 l 2,2,3
 77 50 77 50 91 61.5 c 128,-1,4
 105 73 105 73 105 117 c 2,5,-1
 105 597 l 2,6,7
 105 641 105 641 91 652.5 c 128,-1,8
 77 664 77 664 55 664 c 2,9,-1
 24 664 l 1,10,-1
 24 714 l 1,11,-1
 503 714 l 1,12,-1
 508 523 l 1,13,-1
 452 523 l 1,14,-1
 444 567 l 2,15,16
 437 611 437 611 418 633.5 c 128,-1,17
 399 656 399 656 360 656 c 2,18,-1
 247 656 l 1,19,-1
 247 113 l 2,20,21
 247 72 247 72 260.5 61 c 128,-1,22
 274 50 274 50 298 50 c 2,23,-1
 345 50 l 1,24,-1
 345 0 l 1,25,-1
 24 0 l 1,0,-1
EndSplineSet
EndChar

StartChar: uni0394
Encoding: 916 916 353
Width: 616
GlyphClass: 2
Flags: W
AnchorPoint: "Anchor-1" 309 714 basechar 0
AnchorPoint: "Anchor-0" 309 0 basechar 0
LayerCount: 2
Fore
SplineSet
44 0 m 1,0,-1
 44 62 l 1,1,-1
 247 714 l 1,2,-1
 376 714 l 1,3,-1
 572 69 l 1,4,-1
 572 0 l 1,5,-1
 44 0 l 1,0,-1
123 76 m 1,6,-1
 435 76 l 1,7,-1
 322 456 l 2,8,9
 309 501 309 501 298 545 c 128,-1,10
 287 589 287 589 280 623 c 1,11,12
 273 589 273 589 262.5 552 c 128,-1,13
 252 515 252 515 238 468 c 2,14,-1
 123 76 l 1,6,-1
EndSplineSet
EndChar

StartChar: Theta
Encoding: 920 920 357
Width: 688
GlyphClass: 2
Flags: W
AnchorPoint: "Anchor-1" 344 714 basechar 0
AnchorPoint: "Anchor-0" 344 0 basechar 0
LayerCount: 2
Fore
SplineSet
345 -10 m 0,0,1
 245 -10 245 -10 179 36 c 128,-1,2
 113 82 113 82 80.5 165 c 128,-1,3
 48 248 48 248 48 359 c 256,4,5
 48 470 48 470 80.5 552 c 128,-1,6
 113 634 113 634 179.5 679.5 c 128,-1,7
 246 725 246 725 346 725 c 0,8,9
 440 725 440 725 506 679.5 c 128,-1,10
 572 634 572 634 606 551.5 c 128,-1,11
 640 469 640 469 640 358 c 256,12,13
 640 247 640 247 606 164.5 c 128,-1,14
 572 82 572 82 506 36 c 128,-1,15
 440 -10 440 -10 345 -10 c 0,0,1
345 52 m 0,16,17
 425 52 425 52 459 131.5 c 128,-1,18
 493 211 493 211 493 358 c 256,19,20
 493 505 493 505 459 584 c 128,-1,21
 425 663 425 663 346 663 c 0,22,23
 266 663 266 663 231 584 c 128,-1,24
 196 505 196 505 196 358 c 256,25,26
 196 211 196 211 231 131.5 c 128,-1,27
 266 52 266 52 345 52 c 0,16,17
229 270 m 1,28,-1
 229 459 l 1,29,-1
 274 459 l 1,30,-1
 278 440 l 2,31,32
 282 420 282 420 291.5 408.5 c 128,-1,33
 301 397 301 397 335 397 c 2,34,-1
 350 397 l 2,35,36
 382 397 382 397 394 409 c 128,-1,37
 406 421 406 421 411 440 c 2,38,-1
 414 459 l 1,39,-1
 460 459 l 1,40,-1
 460 270 l 1,41,-1
 414 270 l 1,42,-1
 411 289 l 2,43,44
 406 307 406 307 394.5 319 c 128,-1,45
 383 331 383 331 351 331 c 2,46,-1
 335 331 l 2,47,48
 301 331 301 331 291.5 319.5 c 128,-1,49
 282 308 282 308 278 289 c 2,50,-1
 274 270 l 1,51,-1
 229 270 l 1,28,-1
EndSplineSet
EndChar

StartChar: Lambda
Encoding: 923 923 360
Width: 612
GlyphClass: 2
Flags: W
AnchorPoint: "Anchor-1" 306 714 basechar 0
AnchorPoint: "Anchor-0" 306 0 basechar 0
LayerCount: 2
Fore
SplineSet
0 0 m 1,0,-1
 0 50 l 1,1,-1
 33 50 l 2,2,3
 51 50 51 50 61 66 c 128,-1,4
 71 82 71 82 84 125 c 2,5,-1
 264 714 l 1,6,-1
 350 714 l 1,7,-1
 537 100 l 2,8,9
 546 72 546 72 560 61 c 128,-1,10
 574 50 574 50 589 50 c 2,11,-1
 612 50 l 1,12,-1
 612 0 l 1,13,-1
 325 0 l 1,14,-1
 325 50 l 1,15,-1
 360 50 l 2,16,17
 394 50 394 50 394 83 c 0,18,19
 394 93 394 93 391 106 c 128,-1,20
 388 119 388 119 385 130 c 2,21,-1
 297 450 l 2,22,23
 289 481 289 481 282.5 509 c 128,-1,24
 276 537 276 537 272 561 c 1,25,26
 269 541 269 541 262 511.5 c 128,-1,27
 255 482 255 482 245 449 c 2,28,-1
 158 145 l 2,29,30
 153 129 153 129 148.5 112.5 c 128,-1,31
 144 96 144 96 144 84 c 0,32,33
 144 50 144 50 180 50 c 2,34,-1
 221 50 l 1,35,-1
 221 0 l 1,36,-1
 0 0 l 1,0,-1
EndSplineSet
EndChar

StartChar: Xi
Encoding: 926 926 363
Width: 551
GlyphClass: 2
Flags: W
AnchorPoint: "Anchor-1" 275 714 basechar 0
AnchorPoint: "Anchor-0" 275 0 basechar 0
LayerCount: 2
Fore
SplineSet
54 512 m 1,0,-1
 59 714 l 1,1,-1
 493 714 l 1,2,-1
 497 512 l 1,3,-1
 444 512 l 1,4,-1
 440 542 l 2,5,6
 436 574 436 574 420.5 595.5 c 128,-1,7
 405 617 405 617 366 617 c 2,8,-1
 185 617 l 2,9,10
 145 617 145 617 129.5 595.5 c 128,-1,11
 114 574 114 574 111 542 c 2,12,-1
 108 512 l 1,13,-1
 54 512 l 1,0,-1
149 272 m 1,14,-1
 149 457 l 1,15,-1
 194 457 l 1,16,-1
 198 438 l 2,17,18
 202 424 202 424 206.5 413.5 c 128,-1,19
 211 403 211 403 222.5 397.5 c 128,-1,20
 234 392 234 392 260 392 c 2,21,-1
 290 392 l 2,22,23
 325 392 325 392 337 404.5 c 128,-1,24
 349 417 349 417 354 438 c 2,25,-1
 358 457 l 1,26,-1
 403 457 l 1,27,-1
 403 272 l 1,28,-1
 358 272 l 1,29,-1
 354 291 l 2,30,31
 349 312 349 312 337 324.5 c 128,-1,32
 325 337 325 337 290 337 c 2,33,-1
 260 337 l 2,34,35
 234 337 234 337 222.5 331.5 c 128,-1,36
 211 326 211 326 206.5 315.5 c 128,-1,37
 202 305 202 305 198 291 c 2,38,-1
 194 272 l 1,39,-1
 149 272 l 1,14,-1
32 0 m 1,40,-1
 27 215 l 1,41,-1
 81 215 l 1,42,-1
 85 185 l 2,43,44
 89 151 89 151 104 131 c 128,-1,45
 119 111 119 111 159 111 c 2,46,-1
 392 111 l 2,47,48
 432 111 432 111 447 130.5 c 128,-1,49
 462 150 462 150 466 185 c 2,50,-1
 470 215 l 1,51,-1
 523 215 l 1,52,-1
 519 0 l 1,53,-1
 32 0 l 1,40,-1
EndSplineSet
EndChar

StartChar: Pi
Encoding: 928 928 365
Width: 708
GlyphClass: 2
Flags: W
AnchorPoint: "Anchor-1" 354 714 basechar 0
AnchorPoint: "Anchor-0" 354 0 basechar 0
LayerCount: 2
Fore
SplineSet
24 0 m 1,0,-1
 24 50 l 1,1,-1
 51 50 l 2,2,3
 75 50 75 50 90 61.5 c 128,-1,4
 105 73 105 73 105 117 c 2,5,-1
 105 601 l 2,6,7
 105 642 105 642 89.5 653 c 128,-1,8
 74 664 74 664 51 664 c 2,9,-1
 24 664 l 1,10,-1
 24 714 l 1,11,-1
 684 714 l 1,12,-1
 684 664 l 1,13,-1
 656 664 l 2,14,15
 632 664 632 664 617.5 652.5 c 128,-1,16
 603 641 603 641 603 597 c 2,17,-1
 603 112 l 2,18,19
 603 71 603 71 618.5 60.5 c 128,-1,20
 634 50 634 50 656 50 c 2,21,-1
 684 50 l 1,22,-1
 684 0 l 1,23,-1
 388 0 l 1,24,-1
 388 50 l 1,25,-1
 408 50 l 2,26,27
 432 50 432 50 446.5 61.5 c 128,-1,28
 461 73 461 73 461 117 c 2,29,-1
 461 656 l 1,30,-1
 247 656 l 1,31,-1
 247 117 l 2,32,33
 247 73 247 73 260.5 61.5 c 128,-1,34
 274 50 274 50 298 50 c 2,35,-1
 320 50 l 1,36,-1
 320 0 l 1,37,-1
 24 0 l 1,0,-1
EndSplineSet
EndChar

StartChar: Sigma
Encoding: 931 931 367
Width: 557
GlyphClass: 2
Flags: W
AnchorPoint: "Anchor-1" 279 714 basechar 0
AnchorPoint: "Anchor-0" 279 0 basechar 0
LayerCount: 2
Fore
SplineSet
20 0 m 1,0,-1
 20 59 l 1,1,-1
 214 343 l 1,2,-1
 39 672 l 1,3,-1
 39 714 l 1,4,-1
 485 714 l 1,5,-1
 490 528 l 1,6,-1
 435 528 l 1,7,-1
 427 582 l 2,8,9
 423 617 423 617 406 636.5 c 128,-1,10
 389 656 389 656 350 656 c 2,11,-1
 190 656 l 1,12,-1
 321 394 l 1,13,-1
 321 380 l 1,14,-1
 129 111 l 1,15,-1
 375 111 l 2,16,17
 416 111 416 111 434.5 136 c 128,-1,18
 453 161 453 161 458 203 c 2,19,-1
 462 236 l 1,20,-1
 520 236 l 1,21,-1
 508 0 l 1,22,-1
 20 0 l 1,0,-1
EndSplineSet
EndChar

StartChar: Phi
Encoding: 934 934 370
Width: 748
GlyphClass: 2
Flags: W
AnchorPoint: "Anchor-1" 374 714 basechar 0
AnchorPoint: "Anchor-0" 374 0 basechar 0
LayerCount: 2
Fore
SplineSet
226 0 m 1,0,-1
 226 50 l 1,1,-1
 238 50 l 2,2,3
 268 50 268 50 288.5 61 c 128,-1,4
 309 72 309 72 309 114 c 2,5,-1
 309 134 l 1,6,-1
 283 134 l 2,7,8
 189 134 189 134 133 167 c 128,-1,9
 77 200 77 200 52 253.5 c 128,-1,10
 27 307 27 307 27 370 c 0,11,12
 27 467 27 467 85 528.5 c 128,-1,13
 143 590 143 590 262 590 c 2,14,-1
 309 590 l 1,15,-1
 309 600 l 2,16,17
 309 642 309 642 288.5 653 c 128,-1,18
 268 664 268 664 238 664 c 2,19,-1
 226 664 l 1,20,-1
 226 714 l 1,21,-1
 522 714 l 1,22,-1
 522 664 l 1,23,-1
 511 664 l 2,24,25
 481 664 481 664 460.5 653 c 128,-1,26
 440 642 440 642 440 600 c 2,27,-1
 440 590 l 1,28,-1
 487 590 l 2,29,30
 606 590 606 590 663.5 528.5 c 128,-1,31
 721 467 721 467 721 370 c 0,32,33
 721 309 721 309 696.5 255 c 128,-1,34
 672 201 672 201 616 167.5 c 128,-1,35
 560 134 560 134 466 134 c 2,36,-1
 440 134 l 1,37,-1
 440 114 l 2,38,39
 440 72 440 72 460.5 61 c 128,-1,40
 481 50 481 50 511 50 c 2,41,-1
 522 50 l 1,42,-1
 522 0 l 1,43,-1
 226 0 l 1,0,-1
288 189 m 2,44,-1
 309 189 l 1,45,-1
 309 535 l 1,46,-1
 277 535 l 2,47,48
 216 535 216 535 188 493 c 128,-1,49
 160 451 160 451 160 367 c 0,50,51
 160 272 160 272 190.5 230.5 c 128,-1,52
 221 189 221 189 288 189 c 2,44,-1
440 189 m 1,53,-1
 461 189 l 2,54,55
 527 189 527 189 558 230.5 c 128,-1,56
 589 272 589 272 589 367 c 0,57,58
 589 451 589 451 560.5 493 c 128,-1,59
 532 535 532 535 471 535 c 2,60,-1
 440 535 l 1,61,-1
 440 189 l 1,53,-1
EndSplineSet
EndChar

StartChar: Psi
Encoding: 936 936 372
Width: 860
GlyphClass: 2
Flags: W
AnchorPoint: "Anchor-1" 430 714 basechar 0
AnchorPoint: "Anchor-0" 430 0 basechar 0
LayerCount: 2
Fore
SplineSet
281 0 m 1,0,-1
 281 50 l 1,1,-1
 292 50 l 2,2,3
 322 50 322 50 343 61 c 128,-1,4
 364 72 364 72 364 114 c 2,5,-1
 364 241 l 1,6,-1
 330 241 l 2,7,8
 256 241 256 241 209 259.5 c 128,-1,9
 162 278 162 278 136 310 c 128,-1,10
 110 342 110 342 100.5 382.5 c 128,-1,11
 91 423 91 423 91 468 c 2,12,-1
 91 592 l 2,13,14
 91 639 91 639 70 651.5 c 128,-1,15
 49 664 49 664 20 664 c 1,16,-1
 20 714 l 1,17,-1
 221 714 l 1,18,-1
 221 478 l 2,19,20
 221 415 221 415 231 374.5 c 128,-1,21
 241 334 241 334 268 315 c 128,-1,22
 295 296 295 296 344 296 c 2,23,-1
 364 296 l 1,24,-1
 364 596 l 2,25,26
 364 637 364 637 345.5 650.5 c 128,-1,27
 327 664 327 664 298 664 c 2,28,-1
 285 664 l 1,29,-1
 285 714 l 1,30,-1
 573 714 l 1,31,-1
 573 664 l 1,32,-1
 559 664 l 2,33,34
 530 664 530 664 512 650.5 c 128,-1,35
 494 637 494 637 494 596 c 2,36,-1
 494 296 l 1,37,-1
 513 296 l 2,38,39
 588 296 588 296 612.5 339.5 c 128,-1,40
 637 383 637 383 637 478 c 2,41,-1
 637 714 l 1,42,-1
 838 714 l 1,43,-1
 838 664 l 1,44,45
 809 664 809 664 788 651.5 c 128,-1,46
 767 639 767 639 767 592 c 2,47,-1
 767 468 l 2,48,49
 767 423 767 423 757 382.5 c 128,-1,50
 747 342 747 342 721.5 310 c 128,-1,51
 696 278 696 278 649 259.5 c 128,-1,52
 602 241 602 241 528 241 c 2,53,-1
 494 241 l 1,54,-1
 494 114 l 2,55,56
 494 72 494 72 514.5 61 c 128,-1,57
 535 50 535 50 566 50 c 2,58,-1
 577 50 l 1,59,-1
 577 0 l 1,60,-1
 281 0 l 1,0,-1
EndSplineSet
EndChar

